<svg xmlns="http://www.w3.org/2000/svg" width="96" height="96" viewBox="0 0 96 96">
    <g fill="none" fill-rule="evenodd">
        <path d="M0 0h96v96H0z"/>
        <path d="M0 0h96v96H0z"/>
        <g stroke="#000" stroke-linecap="round">
            <path d="M53.547 28.826c2.396 2.482 8.295-2.787 10.249-.763 1.954 2.024-3.497 41.376-2.88 47.447.617 6.072 9.977-1.065 11.006-3.408 1.029-2.344.563-47.294-3.292-47.294-1.748 0-39.34-5.895-42.631-2.487-1.7 1.76-2.16 8.276 1.543 6.784 3.703-1.49 3.07-9.264 7.967-13.138 16.56-13.101 15.64 10.377 18.038 12.86z"/>
            <path d="M60.877 74.878c-1.235 9.108-5.413 1.378-22.899-.433-17.486-1.81-15.943-8.734-15.943-16.297 0-7.563 2.417-30.837 4.011-32.488.946-.979 14.693 1.375 21.453 2.023 11.136 1.067 13.57-6.112 7.375-12.527-6.195-6.415-14.724-3.045-17.09 6.01"/>
        </g>
        <path fill="#FFF" fill-rule="nonzero" stroke="#000" d="M49.028 84.119c-.72-1.881-4.888-15.134-6.524-14.982a1.562 1.562 0 0 0-.952 2.372c.936 1.576 11.403-3.006 11.896-3.194.493-.188-18.903-12.576-19.383-11.785-.48.791-4.48 19.72-4.643 20.433-.162.713 7.427-2.965 8.173-2.946.746.02 3.678 10.891 4.087 11.734.409.843 7.722-.648 7.346-1.632z"/>
    </g>
</svg>
