<svg xmlns="http://www.w3.org/2000/svg" width="64" height="64" viewBox="0 0 64 64">
    <path fill="#222" fill-rule="nonzero" d="M23.75 9.578c.225.057.406.274.608.668l.081.165c.69-.352 1.205-.58 1.533-.666l.078-.018.07-.013c1.639-.234 19.473.638 20.84 1.259.894.406 1.325 7.964 1.378 19.064l.005 2.866c-.014 10.624-.403 18.85-1.097 19.617-1.419 1.572-28.635.698-29.78-1.02-.913-1.369-.694-35.127-.192-37.387.288-1.294 5.559-4.764 6.476-4.535zm-.162.647c-.139-.035-1.567.7-2.878 1.562l-.326.218c-1.384.944-2.365 1.831-2.459 2.253-.168.756-.304 5.634-.372 11.61l.188.003 1.746.064c.217.006.413.01.607.013l.145.002h.385l.29-.006-.062-.058a1.695 1.695 0 0 1-.527-1.08l-.006-.116c-.019-.79.94-1.46 1.855-1.448 1.543.021 2.389 1.165 1.74 2.464-.1.198-.264.358-.494.485l-.037.018.045.007c.38.053.787.08 1.212.08l.78-.008c3.447-.022 14.634.1 16.877.167a.333.333 0 0 1-.02.667l-1.39-.031c-4.082-.073-13.92-.17-16.052-.13-1.031.02-1.995-.103-2.765-.37l-.097-.036-.035.004c-.43.041-.925.059-1.49.058h-.215a38.93 38.93 0 0 1-1.114-.027l-1.573-.058a756.66 756.66 0 0 0-.039 6.167l-.031.004c.392-.052.84-.06 1.732-.04l1.007.026c.26.007.503.01.73.01l.296-.003-.015-.012c-.353-.294-.563-.658-.598-1.101l-.005-.104a1.79 1.79 0 0 1 3.232-.935c.443.608.458 1.43.058 2.016a1.036 1.036 0 0 1-.22.297l-.022.019.063.01c.942.158 2.092.227 3.328.213l3.756-.054c4.45-.053 10.372-.092 11.533-.057a.333.333 0 0 1-.02.667l-.643-.01c-2.243-.017-8.474.032-12.45.086l-1.957.031c-1.886.035-3.542-.08-4.731-.431l-.093-.029-.022.003c-.464.055-1.047.07-1.774.06l-1.753-.04c-.708-.013-1.082 0-1.403.047-.002 2.075.004 4.137.02 6.083l-.066-.014c1.027.23 2.227.285 3.263.194l.12-.012-.008-.008c-.314-.32-.494-.732-.514-1.249l-.001-.12c.007-.76 1.115-1.522 2-1.545h.101c.58.002 1.112.326 1.38.841.266.515.225 1.137-.083 1.57-.124.248-.367.46-.696.634l-.077.039.133.019c.455.06.974.08 1.546.064l.408-.014c1.187-.033 3.48.011 6.694.117l2.524.089 8.066.319a.334.334 0 0 1-.02.666l-7.61-.302-3.283-.115c-2.937-.095-5.07-.136-6.23-.11l-.33.01c-1.226.05-2.276-.044-3.055-.331l-.06-.024-.082.017c-1.22.23-2.765.218-4.115-.053.057 5.894.208 10.57.49 10.993.896 1.345 27.595 2.203 28.732.944.508-.564.9-8.915.923-18.92V31.49c-.019-10.68-.489-19.682-.992-19.91-1.226-.558-18.944-1.423-20.468-1.206-.17.025-.547.177-1.069.43l-.441.221c.736 1.828 1.242 3.99.64 4.191-.291.097-2.099.104-3.612.015l-.166-.01c-.913-.06-1.654-.15-2.143-.272-.313-.079-.532-.17-.672-.303-.248-.237-.205-.56.06-.786.722-.613 3.152-2.122 5.036-3.137l-.076-.155c-.11-.214-.193-.345-.184-.343zm-1.182 27.143c-.577-.023-1.417.533-1.42.884-.006.505.249.883.713 1.147l.128.067.01-.002c.62-.144 1.086-.358 1.271-.63l.038-.063a.891.891 0 0 0-.74-1.403zm-.31-6.85a1.117 1.117 0 0 0-.807.976c.008.44.402.785 1.065 1.04l.189.068.096-.017c.355-.07.577-.175.676-.32l.024-.04a1.123 1.123 0 0 0-1.243-1.706zm.069-6.61c-.579-.007-1.188.418-1.18.766.012.49.4.885 1.026 1.164l.066.027.119-.015c.589-.084.967-.22 1.097-.403l.024-.04c.414-.828-.07-1.484-1.152-1.498zM24.11 11.34l-.513.283c-1.538.857-3.278 1.937-4.084 2.535l-.118.089.107.033.084.023c.404.101 1.032.182 1.808.238l.216.015c1.058.069 2.377.085 3.068.064l.306-.015-.002-.06-.007-.08a7.729 7.729 0 0 0-.192-.992 18.993 18.993 0 0 0-.606-1.957l-.067-.176z"/>
</svg>
