<svg xmlns="http://www.w3.org/2000/svg" width="96" height="96" viewBox="0 0 96 96">
    <g fill="none" fill-rule="nonzero">
        <path fill="#222" d="M45.441 11.66c3.214-.879 6.794.043 9.793 3.149 2.813 2.913 3.875 5.851 3.396 8.237 4.13.527 9.254 1.194 9.932 1.257l.146.009c2.174.198 3.31 8.792 3.9 23.244l.05 1.327.076 2.247c.307 10.173.165 19.99-.354 21.173-.603 1.373-3.38 3.805-5.885 5.102-1.465.759-2.773 1.116-3.818.958-.78-.118-1.38-.514-1.77-1.172-.58 1.868-1.543 2.612-3.158 2.534-.982-.048-5.84-1.606-7.89-2.283l-.91-.306-.742-.217a59.035 59.035 0 0 0-10.28-1.977l-.497-.053c-7.38-.821-11.726-2.613-13.935-5.49-1.656-2.16-2.02-4.16-1.987-8.756l.021-1.627.007-1.15c.041-7.227 1.655-22.543 3.1-29.312-.208-.434-.34-.969-.39-1.581-.147-1.817.443-4.015 1.393-5 .759-.785 2.727-1.14 5.905-1.203l-.027.066.067-.16c.951-2.233 2.048-3.86 3.615-5.1 4.182-3.31 7.547-4.535 10.202-3.904zM30.61 26.12l-.076.183c-.794 1.83-1.568 2.77-2.805 3.267-.951.383-1.733.328-2.315-.066-1.308 6.89-2.88 21.968-2.88 28.645v.28l-.026 2.215c-.032 4.374.304 6.222 1.78 8.147 2.056 2.678 6.305 4.388 13.742 5.158l.862.095a60.091 60.091 0 0 1 10.355 2.137c-.236-.07 7.425 2.49 8.55 2.546 1.41.069 2.083-.73 2.505-3.38l.068-.457c-.085-1.833.116-4.91.783-12.096l.995-10.381.565-5.976.39-4.43c.728-8.671.855-13.056.333-13.596-.51-.528-1.325-.444-3.45.316l-1.619.595-.538.184c-2.26.742-3.604.744-4.642-.331-.242-.25-.444-.621-.638-1.158-1.462.28-3.166.35-5.098.165a93.577 93.577 0 0 1-1.5-.156l-1.384-.163-9.264-1.203a196.47 196.47 0 0 0-4.693-.54zm27.726-2.101l-.03.076c-.728 1.7-2.35 3.018-4.774 3.693.13.34.253.567.374.692.736.762 1.91.686 4.128-.1l.271-.099 1.39-.513.526-.184c2.181-.741 3.088-.744 3.935.132.937.971.728 6.207-.49 19.317l-1.542 16.123-.406 4.584c-.31 3.741-.406 5.745-.351 7.048a.45.45 0 0 1 .005.158v-.028c.01.196.024.375.041.543l.026.208c.155 1.075.623 1.59 1.387 1.706.793.12 1.915-.186 3.209-.857 2.32-1.201 4.935-3.491 5.43-4.616.47-1.074.586-12.656.176-23.454l-.094-2.277-.07-1.463c-.23-4.577-.545-8.626-.937-11.832l-.12-.94-.095-.68c-.531-3.648-1.205-5.817-1.654-5.941l-.51-.053c-1.486-.17-6.12-.771-9.825-1.243zM29.562 26.02c-1.954-.17-2.998-.176-3.156-.012-.222.23-.48 1.062-.755 2.327.347.512.909.627 1.705.307.892-.36 1.516-1.092 2.173-2.544zm3.128-4.26l-.469.002-.192.502-.237.648-.538 1.525-.257.702c1.192.122 2.63.294 4.359.514l7.442.977c.712.092 1.317.169 1.852.235l1.645.192 1.557.155c1.669.139 3.14.079 4.404-.146-.035-.128-.07-.264-.106-.405l-.092-.378-.695-3.114-1.085-.122-2.167-.235c-6.372-.672-11.589-1.047-15.42-1.052zm19.726 1.53l.613 2.757.15.6.056.2c2.037-.553 3.412-1.6 4.067-2.96a17.618 17.618 0 0 0-.182-.024l-4.704-.573zM31.142 21.78c-2.64.081-4.311.398-4.784.887-.63.654-1.102 2.186-1.132 3.596.161-.475.315-.8.46-.951.411-.425 1.564-.515 4.28-.274.068-.172.135-.353.204-.542l.695-1.962.277-.754zm23.372-6.277c-2.282-2.364-4.92-3.342-7.423-3.124.232.144.456.306.673.485 2.018 1.658 3.219 4.408 4.288 8.83l.131.561 3.28.39c.634.08 1.372.172 2.17.274.46-2.096-.526-4.732-3.119-7.416zm-9.103-2.79l-.13.041c-3.057 1.01-5.7 3.875-6.923 8.208 3.254.2 7.052.544 11.333 1.013l1.439.16c-1.034-4.335-2.175-6.999-4-8.499a4.856 4.856 0 0 0-1.719-.924zm-2.123-.162l-.042.005c-2.016.24-4.463 1.458-7.426 3.802-1.346 1.065-2.323 2.47-3.182 4.401 1.392 0 2.961.05 4.7.144 1.069-3.97 3.277-6.844 5.95-8.352z"/>
        <path fill="#FFF" d="M49.028 84.119c-.72-1.881-4.888-15.134-6.524-14.982a1.562 1.562 0 0 0-.952 2.372c.936 1.576 11.403-3.006 11.896-3.194.493-.188-18.903-12.576-19.383-11.785-.48.791-4.48 19.72-4.643 20.433-.162.713 7.427-2.965 8.173-2.946.746.02 3.678 10.891 4.087 11.734.409.843 7.722-.648 7.346-1.632z"/>
        <path fill="#222" d="M41.948 60.121l2.95 1.83 1.524.96c1.509.958 2.95 1.892 4.157 2.694l.911.61.894.614c.198.138.377.265.536.38l.428.317.214.17.084.071c.08.07.14.13.187.19a.554.554 0 0 1 .113.237.513.513 0 0 1-.233.546l-.087.042-2.415.994c-.664.265-1.324.52-1.984.766-.547.204-1.078.395-1.59.57-.957.33-1.829.6-2.598.803l.005.009.135.318.301.694.155.369.318.78a93.4 93.4 0 0 1 .755 1.951l.46 1.251c.192.532.412 1.152.638 1.796l1.724 4.966c.146.57-.35.95-1.242 1.32-.65.27-1.555.532-2.535.74-2.391.51-4.163.598-4.52-.14l-.05-.112a15.43 15.43 0 0 1-.33-.983l-1.659-5.45-.425-1.335-.237-.721a49.56 49.56 0 0 0-.426-1.227l-.164-.438c-.15-.392-.282-.705-.394-.933l-.055-.107-.063-.114-.21.07c-.2.073-.49.187-.9.354l-4.093 1.71-.765.304c-.154.06-.297.114-.434.165l-.407.145-.365.118c-.167.05-.31.087-.43.11-.17.032-.307.041-.44.014a.563.563 0 0 1-.466-.587l.015-.1 2.844-13.09.643-2.844c.602-2.618.994-4.158 1.179-4.575l.036-.072c.446-.735 2.825.48 8.311 3.85zm-7.553-3.056l-.086.307c-.26.957-.746 3.016-1.378 5.827l-.678 3.047-2.207 10.188.284-.094.16-.057c.472-.169 1.032-.39 1.809-.712l3.603-1.51c1.046-.43 1.361-.53 1.606-.542l.1-.001c.638.016 1.1 1.087 2.152 4.379l.586 1.866.801 2.636.79 2.582.153.45.037.09-.016-.042c-.002-.014.005-.02.022-.02l.202.026c.182.018.418.02.695.006.693-.034 1.602-.165 2.515-.36.924-.197 1.774-.442 2.36-.685.273-.114.478-.222.598-.313l-1.517-4.367a295.47 295.47 0 0 0-.698-1.971l-.516-1.407-.38-.998a82.282 82.282 0 0 0-.367-.933l-.343-.84a42.355 42.355 0 0 0-.642-1.467c-1.56.326-2.525.276-2.908-.369a2.062 2.062 0 0 1-.184-1.892c.25-.623.787-1.085 1.51-1.25.707-.066 1.324.722 2.137 2.356a34.18 34.18 0 0 0 2.718-.828c.502-.173 1.025-.36 1.565-.562a89.699 89.699 0 0 0 1.963-.758l.988-.4.696-.29-.354-.255c-.45-.32-1.043-.728-1.754-1.203l-.8-.532-.964-.632c-1.165-.76-2.46-1.589-3.777-2.417l-1.98-1.235-1.395-.855a155.183 155.183 0 0 0-4.042-2.39l-.621-.349a34.433 34.433 0 0 0-1.82-.954l-.3-.137-.118-.051-.205-.082zm8.217 12.56l-.122.037a1.062 1.062 0 0 0-.509 1.592c.055.092.437.124 1.067.047l.178-.023.36-.059a9.49 9.49 0 0 0-.677-1.145l-.133-.176c-.121-.152-.198-.234-.18-.263l.016-.01z"/>
    </g>
</svg>
