<svg xmlns="http://www.w3.org/2000/svg" width="57" height="56" viewBox="0 0 57 56">
    <g fill="none" fill-rule="nonzero">
        <path fill="#222" d="M14.586 9.65l.05.006.288-.011c3.419-.096 27.956.193 28.41.373.255.101.48.212.768.402.43.286.841.662 1.211 1.144.999 1.301 1.563 3.179 1.524 5.735-.032 2.068-1.375 3.463-3.307 3.786l-.14.02.007.171c.107 2.921-.188 18.46-.447 19.161l-.009.018c-.379.548-2.57.625-2.904-.008l-.046-.095c-.06-.167-.056-.54.066-2.967l.212-4.134c.198-4.08.213-6.55.013-6.826-.473-.652-6.53-.681-8.009-.157-.177.063-.355 2.697-.397 6.582l-.035 5.546-.023 1.022c-.025.876-.057.978-.265 1.017l-.087.013c-.546.072-17.277-.065-17.741-.205-.45-.137-.55-2.168-.617-7.455l-.02-2.175c-.014-2.526-.003-5.002.021-5.233.023-.213.431-.343 1.307-.417l.306-.023-.063-3.389-.05-.004a5.175 5.175 0 0 1-.168-.019l-.173-.024c-3.17-.507-4.092-1.92-4.18-5.07-.042-1.584 3.36-6.854 4.498-6.784zm14.641 8.707l-.364-.92-.162.455c-.169.467-.406 1.089-.573 1.412-.792 1.525-2.053 2.401-4.037 2.38-1.885-.02-3.15-.93-3.978-2.462-.215-.398-.473-1.066-.653-1.564l-.091-.254-.07.189c-.255.695-.421 1.097-.676 1.57-.754 1.399-1.788 2.264-3.208 2.39l-.172.01.062 3.348.538-.016c.92-.022 2.09-.021 3.543-.008l1.992.025c3.353.057 6.052.188 6.524.35 1.402.48 1.51 10.026.396 10.64-.705.389-12.324.522-12.954.049l-.025-.023c-.3-.336-.422-2.6-.559-9.102l-.027-1.299-.357.02a16.41 16.41 0 0 0-.13.008l-.23.019-.193.02-.14.019-.011.794c-.008 1.038-.01 2.758.002 4.461l.017 1.913.027 1.663c.02 1.052.047 1.986.08 2.772l.02.453c.034.69.073 1.232.117 1.609.018.153.037.277.056.369l.01.05.023.002c1.428.095 13.603.203 16.675.184l.501-.006.009-.083c.012-.15.022-.355.03-.616l.026-1.411.025-4.696.022-1.703c.066-3.83.237-5.462.766-5.65 1.701-.603 7.997-.573 8.676.365.325.449.318 2.574.11 6.942l-.304 6.143c-.028.716-.028.969-.007 1.007.114.216 1.763.159 1.909-.052.147-.213.438-15.904.37-18.702l-.01-.272-.06.002a5.865 5.865 0 0 1-4.276-1.862l-.126-.139c-.11-.135-.232-.291-.356-.462l-.109-.151-.037.092-.089.202-.094.203a4.83 4.83 0 0 1-3.907 2.586c-1.996.136-3.287-.74-4.132-2.339a11.544 11.544 0 0 1-.409-.924zm-9.664 7.116c-1.212-.01-2.346-.007-3.296.01l-.95.021.077 3.436c.014.54.029 1.043.043 1.517l.037 1.102c.044 1.258.093 2.235.145 2.923l.024.29c.02.225.042.407.063.546l.021.122.015.066.014.005c.985.284 11.448.162 12.232-.108l.028-.012c.693-.382.593-9.27-.303-9.577-.406-.14-3.37-.275-6.828-.326l-1.322-.015zM43.118 10.56c-.335-.133-24.737-.418-28.068-.345l-.125.003.029.242c.083.814.128 2.479.195 5.941l.084 4.577.052-.002c1.202-.081 2.075-.772 2.746-1.947l.079-.143c.194-.361.336-.682.515-1.155l.295-.79c.163-.418.209-.426.417-.456a.356.356 0 0 1 .305.105c.115.113.666 1.765.984 2.354.735 1.36 1.818 2.139 3.471 2.156 1.748.02 2.817-.723 3.513-2.064.265-.512.758-1.956.774-1.99.113-.237.24-.379.458-.39.192-.01.326.099.434.273.086.138.614 1.584.876 2.08.745 1.41 1.833 2.148 3.573 2.03a4.242 4.242 0 0 0 3.428-2.263c.12-.254.225-.503.317-.743l.032-.088-.058-.092a9.422 9.422 0 0 1-.31-.543l-.09-.176c-.247-.506-.374-.937-.35-1.289.034-.485.358-.789.91-.826.618-.042.906.5.867 1.315a5.532 5.532 0 0 1-.25 1.305l-.075.23.016.024c.184.28.375.542.544.757l.098.122a5.275 5.275 0 0 0 4.12 1.793c1.942-.104 3.3-1.33 3.33-3.275.037-2.43-.489-4.179-1.403-5.37a4.45 4.45 0 0 0-1.071-1.013 3.352 3.352 0 0 0-.662-.347zm-28.77-.297l-.01.008c-.313.25-1.133 1.211-1.906 2.398l-.21.327c-.922 1.467-1.565 2.861-1.55 3.423.078 2.84.807 4.007 3.526 4.482l.162.027.163.023.126.013-.12-6.144c-.019-.841-.038-1.541-.058-2.163l-.041-1.124a36.77 36.77 0 0 0-.044-.82l-.023-.306-.015-.144zm23.296 5.338c-.27.018-.355.099-.368.284-.016.226.087.571.293.994l.083.164.086.158.007-.025c.069-.269.114-.518.134-.74l.01-.13c.024-.516-.083-.716-.245-.705z"/>
        <path fill="#FFF" d="M49.768 45.337c-.792-.867-5.887-7.17-6.743-6.738a.911.911 0 0 0-.01 1.491c.846.655 5.548-4.068 5.775-4.276.228-.207-12.947-2.787-13.039-2.255-.091.533 1.782 11.661 1.846 12.083.065.422 3.398-3.196 3.807-3.345.41-.149 4.324 5.125 4.726 5.496.402.37 4.053-2.002 3.638-2.456z"/>
        <path fill="#222" d="M35.464 33.51c.091-.533 1.888-.315 6.243.478l1.428.264c1.151.217 2.283.442 3.238.645l.906.196c.453.101.824.19 1.094.261l.194.053c.058.017.109.032.153.047l.06.02a.8.8 0 0 1 .143.064c.043.026.08.055.112.104a.3.3 0 0 1-.01.346l-.06.063c-.097.095-.49.476-.73.704-.527.505-1.05.988-1.567 1.444-.22.192-.432.375-.638.548l-.377.31c-.123.1-.242.193-.358.283l-.172.13-.131.097.123.12.34.34c.234.238.482.5.745.782l.403.44.72.804c.333.379.766.88 1.184 1.365l1.437 1.678.04.044c.265.291.08.617-.35 1.034a8.45 8.45 0 0 1-1.057.835l-.16.108c-1.19.788-2.133 1.214-2.485.89l-.045-.044c-.085-.09-.226-.26-.454-.544l-1.894-2.39-.441-.546a35.368 35.368 0 0 0-1.058-1.249l-.176-.192a5.612 5.612 0 0 0-.35-.35l-.044-.037-.042-.034-.124.105c-.183.164-.507.474-1.065 1.018l-.988.963c-.355.342-.616.586-.841.783-.2.174-.356.297-.476.373a.64.64 0 0 1-.235.1.329.329 0 0 1-.376-.22l-.022-.107-.98-5.993-.438-2.783c-.308-2.012-.454-3.145-.42-3.35zm.58.27l.028.264c.062.534.204 1.52.405 2.837l.385 2.453.961 5.887.13-.107.208-.184c.236-.212.52-.482.91-.86l1.28-1.25c.633-.612.773-.724.92-.784l.033-.013c.346-.126.834.355 2.11 1.923l.844 1.047 1.754 2.214c.076.095.139.171.189.23l.09.104.02.02-.008-.01c-.002-.007.002-.01.011-.014l.042-.01c.111-.024.265-.08.45-.164a9.819 9.819 0 0 0 1.288-.732 8.41 8.41 0 0 0 1.134-.877c.11-.105.191-.198.24-.27l.017-.027-1.45-1.692c-.362-.422-.734-.852-1.04-1.2l-.32-.365-.338-.377-.165-.182a37.94 37.94 0 0 0-1.492-1.564l-.177-.17c-.777.509-1.311.689-1.657.42a1.203 1.203 0 0 1-.064-1.909l.077-.059.035-.02c.371-.188.873.11 1.664.822.33-.236.697-.526 1.097-.86.203-.17.412-.35.627-.54.383-.337.77-.69 1.16-1.057l.814-.778-.369-.093c-.21-.051-.457-.108-.737-.17l-.35-.078a149.766 149.766 0 0 0-4.463-.889l-.967-.175a98.598 98.598 0 0 0-3.326-.543l-.225-.03a21.887 21.887 0 0 0-1.379-.155l-.109-.007a4.894 4.894 0 0 0-.187-.007h-.1zm7.115 5.083l-.026.022a.62.62 0 0 0 .061.975c.056.043.327-.046.734-.283l.13-.079-.026-.023a5.922 5.922 0 0 0-.519-.41l-.086-.056-.107-.063-.16-.083z"/>
    </g>
</svg>
