<svg xmlns="http://www.w3.org/2000/svg" width="96" height="96" viewBox="0 0 96 96">
    <g fill="none" fill-rule="evenodd">
        <path d="M0 0h96v96H0z"/>
        <path d="M0 0h96v96H0z"/>
        <path stroke="#222" stroke-linecap="round" d="M64.64 46.044c-3.316-.2-11.068-.118-16.295-.03-2.621.045-3.828 1.603-3.809 3.089.031 2.431 4.217 4.128 4.633-1.05.113-1.406.613-11.162.676-13.528.217-8.199.779-11.525-1.5-12.15-3.51-.963-28.17 4.932-25.704 27.647 1.71 15.744 15.055 22.63 25.704 23.105 17.333.772 23.838-11.522 25.577-21.791 2.549-15.05-6.042-32.933-23.892-33.325-43.238-.95-41.614 59.392-1.685 59.392 21.619 0 28.914-14.653 29.6-26.845.89-15.858-8.155-27.21-23.674-27.923"/>
    </g>
</svg>
