<svg xmlns="http://www.w3.org/2000/svg" width="96" height="96" viewBox="0 0 96 96">
    <g fill="none" fill-rule="evenodd">
        <path d="M0 0h24v24H0z"/>
        <path fill="#FFF" fill-rule="nonzero" d="M10.851 48.328l37.477-37.476 37.476 37.476-37.476 37.477z"/>
        <path fill="#FA3C32" d="M48.02 8C61.36 21.34 74.7 34.68 88 48L48 88C34.68 74.68 21.34 61.34 8 48.02 21.32 34.68 34.66 21.34 48.02 8zM48 81.66l33.62-33.62c-11.2-11.22-22.4-22.46-33.56-33.64C36.8 25.6 25.56 36.82 14.34 48L48 81.66z"/>
        <path fill="#222" fill-rule="nonzero" d="M55.508 43.845c1.093-.342 1.794-1.06 2.414-1.99.18.49.342.93.49 1.37 1.14 3.702.619 7.16-1.534 10.372a7.978 7.978 0 0 0-.93 1.957c-.88 2.723-2.706 4.55-5.413 5.479-.082.032-.147.049-.228.13h6.49v2.593H39.625v-2.593h5.936c0-.016.017-.032.017-.065-.082-.033-.18-.065-.261-.098-3.197-1.043-5.48-3.93-5.757-7.256a.652.652 0 0 0-.114-.294c-1.076-1.435-1.663-3.066-1.892-4.827-.146-1.174-.212-2.364-.26-3.538-.066-1.272-.017-2.56-.294-3.833.978.636 1.924 1.272 2.886 1.892-.179-2.3-.342-4.517-.521-6.767.065.065.114.114.163.179l1.712 2.104c.31.375.652.7 1.174.799-.033-.473-.065-.946-.098-1.403-.098-1.484.033-2.935.587-4.321.163-.424.228-.848.13-1.337.115.13.262.26.36.407.342.587.684 1.174 1.01 1.761.294.522.571 1.077.865 1.599.098.163.228.293.358.472.44-.864.734-1.728.946-2.625.343-1.402.457-2.821.555-4.256.049-.652.114-1.321.212-1.973.032-.261.179-.522.26-.783.033 0 .066.016.082.016.065.212.13.44.212.653.44 1.174.897 2.348 1.305 3.538.603 1.712.864 3.506.994 5.316 0 .114.017.212.017.326.782-.163 1.68-1.174 1.777-1.956.065-.522.13-1.044.212-1.55.016-.114.082-.228.147-.407.799.994 1.174 2.103 1.37 3.294.195 1.174.163 2.364 0 3.538.782.115 1.549-.587 2.12-1.973.57.962.717 1.957.603 3.017-.082 1.093-.424 2.055-.93 3.033zm-1.647 9.132a6.013 6.013 0 0 0-6.017-6.017c-3.294 0-6 2.707-6 6 0 3.311 2.69 6.018 6 6.018a5.979 5.979 0 0 0 6.017-6zM47.143 38.97c-.033.506-.065.962-.114 1.42-.082.798-.424 1.516-.8 2.233-.374.701-.472 1.468-.407 2.283 1.288-.326 2.56-.342 3.881-.081a8.109 8.109 0 0 0-.18-.571c-.293-.718-.456-1.468-.554-2.234-.097-.685-.31-1.337-.685-1.924a3.583 3.583 0 0 0-1.141-1.126zm-2.267 6.197c-.7-1.24-1.076-2.593-1.37-4.06-.048.31-.065.554-.114.782-.163.767-.342 1.517-.473 2.283-.114.685-.081 1.386.017 2.071.636-.358 1.272-.717 1.94-1.076zm8.219 1.158c-.26-1.256-.538-2.61-.815-3.995-.783.782-1.321 1.712-1.778 2.625.897.473 1.778.93 2.593 1.37zm2.821 3.979c.424-1.403.408-2.838.359-4.273-.033-.016-.049-.049-.082-.065-.685.457-1.37.93-2.07 1.402a9.018 9.018 0 0 1 1.793 2.936zM39.56 45.15c.326 1.272.652 2.511.962 3.75.587-.733 1.142-1.435 1.68-2.103-.832-.522-1.712-1.06-2.642-1.647z"/>
    </g>
</svg>
