<svg xmlns="http://www.w3.org/2000/svg" width="96" height="96" viewBox="0 0 96 96">
    <g fill="none" fill-rule="evenodd">
        <path d="M0 0h24v24H0z"/>
        <path fill="#FFF" fill-rule="nonzero" d="M10.851 48.328l37.477-37.476 37.476 37.476-37.476 37.477z"/>
        <path fill="#FA3C32" d="M48.02 8C61.36 21.34 74.7 34.68 88 48L48 88C34.68 74.68 21.34 61.34 8 48.02 21.32 34.68 34.66 21.34 48.02 8zM48 81.66l33.62-33.62c-11.2-11.22-22.4-22.46-33.56-33.64C36.8 25.6 25.56 36.82 14.34 48L48 81.66z"/>
        <path fill="#222" fill-rule="nonzero" d="M59.011 33.13c.173.173.346.363.536.553-3.23 3.264-6.443 6.511-9.707 9.793.259 0 .483-.017.69 0 .294.035.536-.069.778-.294.328-.293.673-.57 1.053-.829-.138.277-.293.536-.414.795a3.395 3.395 0 0 1-1.14 1.382c-.311.224-.622.5-.95.777-.07-.276-.156-.518-.242-.777-.294.138-.57.276-.864.38-.069.034-.172 0-.31 0-.156.155-.346.362-.553.587.069.104.172.242.293.414-.19 0-.345.018-.483 0-.173-.017-.294.052-.432.173-.415.415-.846.83-1.278 1.227.414-.45.829-.899 1.26-1.382h-.915c-.069.293-.155.57-.224.88-.484-.051-.968-.103-1.503-.155.138.328.242.657.397.95.087.173.07.294-.052.45a31.3 31.3 0 0 0-.932 1.105c-.484-.242-.968-.45-1.417-.726-.345-.19-.69-.276-1.07-.207-.19.035-.415.017-.605.035-.052 0-.086.051-.138.069-.087-.018-.207-.052-.328-.052a.453.453 0 0 1-.484-.207c-.45-.657-1.14-1.037-1.796-1.469a1.007 1.007 0 0 1-.432-.604c.622.466 1.209.898 1.813 1.364.76-2.694 3.42-4.3 6.236-3.316A9111.976 9111.976 0 0 1 51.428 28c.363.173.709.31 1.071.484-1.917 5.337-3.817 10.657-5.734 15.994.017 0 .035.017.052.017 1.45-2.867 2.902-5.717 4.37-8.619.172.104.345.207.535.328-1.623 2.799-3.247 5.58-4.853 8.343.31.259.621.518.95.777.19-.207.397-.414.587-.639a.23.23 0 0 0 .052-.138c-.104-.173.034-.225.138-.294.38-.259.708-.535 1.019-.88 3.057-3.351 6.132-6.685 9.206-10.036.035-.017.104-.12.19-.207zM45.055 50.85c.484-.31.95-.639 1.4-.95a.535.535 0 0 0 .103-.224c.017-.26 0-.536 0-.864.414.415.95.64 1.243 1.14.052.104.19.19.311.26.156.068.294.12.484.172-.052.155-.086.294-.138.432 3.005.414 5.993.846 8.999 1.26-.052.415-.121.778-.173 1.193-1.313-.329-2.59-.657-3.886-1.002.57.293 1.053.622.811 1.416-.293-.052-.587-.086-.88-.155-.553-.087-1.14-.173-1.693-.294a.956.956 0 0 1-.38-.173 23.296 23.296 0 0 1-.898-.656c.069-.156.155-.294.241-.432.035-.052.139-.069.208-.052.242.035.466.087.708.121.19.035.19.035.328-.173-1.157-.293-2.314-.587-3.472-.898-.086.19-.172.38-.293.57.069.052.155.087.224.138 1.676.916 3.351 1.866 5.044 2.764.31.173.414.45.535.777-1.952-1.191-3.903-2.383-5.838-3.575-.052.086-.12.173-.173.276 2.194 1.59 4.37 3.178 6.581 4.767-.103.104-.19.173-.31.294-2.09-1.624-4.215-3.299-6.34-4.957-.103.12-.19.242-.293.38.069.052.155.12.224.173 1.382 1.019 2.781 2.055 4.197 3.057.294.207.398.5.536.863-1.71-1.381-3.35-2.694-5.01-4.041-.932.984-2.072 1.52-3.419 1.502-1.365-.017-2.453-.587-3.385-1.606-.64.57-1.261 1.14-1.918 1.745.173 0 .294.017.398 0 .293-.052.535.069.777.259.052.034.086.12.069.172-.035.173-.07.346-.155.501-.052.104-.173.173-.294.26-.07.051-.156.086-.225.138h-.034c-.242-.346-.501-.121-.76-.018h-.052c-.104-.034-.432-.5-.432-.656-1.45 1.33-2.867 2.643-4.318 3.973-.173-.173-.363-.329-.535-.536 2.47-1.969 4.94-3.938 7.41-5.924-.208-.294-.415-.605-.622-.898-1.33.431-2.66.88-4.007 1.312 0-.362 0-.362.31-.449 1.158-.31 2.332-.622 3.507-.933.034-.017.069-.017.103-.034.018-.242-.12-.173-.241-.138-1.313.31-2.609.656-3.921.967-2.505.622-5.01 1.244-7.497 1.865-.051.018-.103.018-.155.035-.017-.328 0-.363.294-.415 3.748-.829 7.496-1.658 11.227-2.47.052-.017.138-.034.19-.051-.121-.398-.242-.778-.363-1.21-.07 0-.173-.017-.26-.017v-.052c.225.035.45.052.675.104.535.138 1.07.294 1.623.415.07.017.173-.035.26-.087.431-.362.863-.742 1.312-1.14.674.622 1.364 1.192 2.038 1.78zM72 44.823v.847l-23.629 3.212v-.051c7.877-1.348 15.753-2.678 23.629-4.008zM50.79 49.97c1.295.052 2.59.07 3.92.121-.086-.328-.172-.639-.241-.967.155-.052.293-.103.414-.155.432-.104.777-.328 1.105-.657.311-.328.19-.293.605-.103.795.345 1.624.708 2.453 1.088-.26.294-.518.587-.778.898.45.017.847.035 1.261.052 3.006.086 6.011.19 9.017.276.259.017.38.19.535.346-.69-.035-1.382-.052-2.09-.087l-5.337-.259c-1.106-.052-2.211-.155-3.316-.138-.432 0-.899.052-1.33-.017-1.78-.242-3.576-.208-5.372-.328-.277-.018-.553 0-.83 0-.017-.018-.017-.035-.017-.07zm4.49.104c0 .017 0 .035.018.052h.932c-.069-.104-.172-.225-.276-.225-.225.018-.45.104-.674.173zm-7.617-2.107l2.954-.777c6.01-1.555 12.039-3.127 18.032-4.681.19-.052.294-.017.346.173.051.138.12.276.19.431-7.186 1.624-14.371 3.265-21.54 4.888.018-.017.018-.017.018-.034zm11.884-9.293c0 .363.017.691-.018 1.02 0 .051-.103.138-.172.172-2.16 1.347-4.301 2.677-6.46 4.007-1.762 1.106-3.541 2.194-5.303 3.3-.052.051-.12.068-.207.068 4.059-2.85 8.083-5.682 12.16-8.567zm6.097 2.367c-.518-.346-1.02-.674-1.537-1.037-.225.242-.45.467-.657.708-.086.104-.173.121-.293.052a4.98 4.98 0 0 0-.657-.38c-.12-.052-.155-.138-.12-.276.051-.19.051-.38.086-.57.051-.397.259-.57.656-.587.276-.018.553-.035.83-.035.137 0 .206-.052.258-.19.121-.414.26-.829.415-1.278.052.086.103.155.138.207.276.45.535.916.812 1.382a.38.38 0 0 1 .069.225c.017.587 0 1.157 0 1.779zm-26.755 8.791c-.795-.034-1.607-.052-2.436-.086l.052.674c-.052.017-.086.034-.12.017-.312-.052-.536.052-.674.363-.018.051-.156.086-.208.086-.794-.121-.915-.173-1.589-.743.087-.155.173-.293.277-.483-.07-.018-.121-.035-.173-.035-1.848-.069-3.662-.155-5.51-.224-.155 0-.294-.156-.414-.225.017-.017.017-.052.034-.052.173 0 .328-.017.501 0l5.544.363c.052 0 .156 0 .173-.035.087-.207.26-.155.415-.155.155.017.31.017.466.017.138 0 .26.017.328.173.035.052.173.086.26.086 1.018.07 2.02.138 3.057.19.017 0 .051.017.051.017-.034.018-.034.035-.034.052zm6.788-6.097c.898-3.472 1.779-6.926 2.677-10.398.035 0 .052 0 .052.017.57.294.57.294.38.899-1.002 3.091-1.986 6.183-2.988 9.292-.018.052-.052.138-.07.19h-.051zm.103-9.102c.173.051.329.12.536.19.069-.173.155-.346.207-.536.052-.138.104-.173.242-.173.432.018.432 0 .57.432.086.294.19.605.276.898.018.052.035.173-.017.208-.414.5-.829.984-1.26 1.468-.053-.207-.139-.432-.174-.657-.051-.207-.138-.345-.345-.414-.086-.035-.173-.086-.294-.138.07-.432.173-.847.26-1.278zM38.32 50.8c-4.767.656-9.535 1.278-14.319 1.934.017-.138.035-.224.035-.328 4.767-.536 9.534-1.088 14.284-1.641-.017 0 0 .017 0 .035zm17.117-6.771c.017.034.017.052.017.052.07.57.07.57-.466.777-2.09.812-4.215 1.623-6.305 2.435a.478.478 0 0 1-.224.052c2.331-1.105 4.663-2.21 6.978-3.316zM30.892 57.035a26.963 26.963 0 0 1-.778-1.088c-.034-.052-.034-.121-.034-.173.069-.276.173-.535.259-.846.276.172.535.31.795.5.155-.397.414-.224.656-.138.103.052.207.07.31.121-.034.311-.155.588-.397.778-.069.051-.19.069-.293.069-.207-.018-.294.069-.346.276-.034.173-.103.31-.172.5zm20.692-16.962a8.92 8.92 0 0 1-.605-.535c-.051-.052-.051-.173-.051-.242.034-.224.051-.466.138-.673.069-.225.224-.432.345-.657.104.104.173.173.294.242.069-.07.155-.138.224-.207.432.777.415 1.33-.345 2.072zm8.135 3.697c-.742-.087-1.468-.173-2.193-.26.069-.535.38-.898.708-1.208.484.483.967.967 1.485 1.468zM33.69 55.239c-.068-.242 0-.346.19-.45 1.884-1.019 3.783-2.038 5.666-3.057a.397.397 0 0 1 .242-.069c-2.038 1.192-4.059 2.384-6.097 3.576zm-3.056-4.923c.466.363.915.725 1.433 1.14-.777-.07-1.502-.138-2.228-.207-.052-.208-.017-.329.156-.432.224-.173.414-.363.639-.501zm9.361-1.054c-1.796-.293-3.592-.552-5.389-.846.173-.294.294-.345.588-.294l4.611 1.037c.052.017.138.034.19.052v.051zm-6.58 3.628c.414.034.863.051 1.278.069.086.414-.104.656-.501.673a.157.157 0 0 1-.121-.052 8.342 8.342 0 0 1-.657-.69zm3.42-5.977c.967.518 1.951 1.02 2.918 1.538 0 .017-.017.034-.017.034-.052-.017-.086-.034-.138-.052-.846-.414-1.71-.812-2.556-1.243-.087-.052-.173-.156-.26-.225l.052-.052zm18.446 3.161c.225-.052.45-.155.674-.173.086-.017.173.104.276.225h-.932c-.018-.035-.018-.035-.018-.052z"/>
    </g>
</svg>
