<svg xmlns="http://www.w3.org/2000/svg" width="96" height="96" viewBox="0 0 96 96">
    <g fill="none" fill-rule="evenodd">
        <path d="M0 0h24v24H0z"/>
        <path fill="#FFF" fill-rule="nonzero" d="M10.851 48.328l37.477-37.476 37.476 37.476-37.476 37.477z"/>
        <path fill="#FA3C32" d="M48.02 8C61.36 21.34 74.7 34.68 88 48L48 88C34.68 74.68 21.34 61.34 8 48.02 21.32 34.68 34.66 21.34 48.02 8zM48 81.66l33.62-33.62c-11.2-11.22-22.4-22.46-33.56-33.64C36.8 25.6 25.56 36.82 14.34 48L48 81.66z"/>
        <path fill="#222" fill-rule="nonzero" d="M55.984 48.054c-.102.146-.19.263-.278.38-.03.03-.044.074-.058.103-.044.234-.176.395-.41.454-.234.073-.44-.015-.6-.19 0-.015-.015-.015-.015-.015-.073.117-.117.249-.205.322-.102.073-.234.088-.366.131 0 .088.044.22.015.337-.059.351-.395.527-.732.425a.248.248 0 0 0-.146 0c-.322.22-.542.175-.761-.161-.147.131-.322.22-.527.16-.088-.029-.19-.073-.235-.146-.102-.175-.248-.16-.41-.175l-.087.263c.278.263.322.498.117.703-.19.19-.44.146-.673-.103-.103.03-.205.059-.293.103a.399.399 0 0 0-.146.117c-.147.292-.425.424-.718.307-.278-.117-.41-.395-.322-.703a.293.293 0 0 0-.029-.19 1.173 1.173 0 0 1-.132-1.156c.015-.044.03-.103.015-.146-.044-.19-.117-.381-.176-.586-.248-.088-.35-.234-.263-.424.073-.176.249-.22.512-.088.015-.073.044-.147.03-.205a1.175 1.175 0 0 1 0-.776c-.308-.322-.323-.366-.235-.746-.512-.352-.424-.879 0-1.157-.322-.307-.453-.673-.351-1.127-.249-.146-.454-.35-.454-.644 0-.234-.014-.439-.175-.63-.059-.058-.059-.19-.074-.292-.087.03-.175.059-.248.073-.044.161-.074.293-.118.454.337.308.337.761-.131 1.025.146.22.22.453.146.717a.795.795 0 0 1-.468.541c.014.161.044.337.029.483-.015.147-.073.308-.117.454.073.059.146.117.22.161.029.015.073.03.102.03.234-.03.366.043.41.219.029.176-.073.293-.293.351-.015 0-.015.015-.015 0 .059.176.132.337.147.513.029.322-.117.57-.395.731-.088.044-.103.103-.118.19-.029.176-.087.337-.146.542.22.234.205.395-.102.571a.981.981 0 0 1 .073.761c-.088.264-.278.44-.527.556v.117c-.015.176-.132.293-.293.293-.146 0-.293-.117-.293-.278 0-.102-.043-.132-.117-.176-.16-.102-.292-.248-.453-.38a.846.846 0 0 1-.776-.117c-.205.307-.483.468-.85.41-.365-.059-.57-.293-.672-.644-.337.044-.586-.088-.659-.44-.6.088-.834-.029-1.098-.541-.439.015-.732-.176-.893-.585-.629-.03-.863-.19-.98-.644.234-.088.453-.161.688-.25 1.288-.468 2.576-.936 3.878-1.404.132-.044.176-.118.19-.25.06-.629.118-1.273.176-1.902a.405.405 0 0 0-.044-.19c-1.053-1.318-1.697-2.825-2.137-4.45-.336-1.244-.526-2.503-.453-3.805.146-2.84 1.961-5.255 4.464-6.045 1.961-.63 3.732-.22 5.298 1.097 1.376 1.157 2.284 2.62 2.65 4.391.146.688.117 1.376.014 2.064a19.463 19.463 0 0 1-1.317 4.801 7.798 7.798 0 0 1-1.39 2.225.278.278 0 0 0-.074.19c0 .586.015 1.186 0 1.771 0 .132.073.161.176.19 1.595.513 3.19 1.025 4.786 1.552.103.03.278.015.234.205-.029.19-.146.278-.322.278-.014-.015-.029 0 0 0zm.761 9.616c-.658.22-1.024-.014-1.214-.746-.454.278-.908.117-1.084-.425-.22.117-.453.161-.702.073a.86.86 0 0 1-.512-.497c-.074.058-.132.146-.22.175a.406.406 0 0 1-.263 0c-.132-.058-.205-.175-.176-.322.015-.16.132-.263.351-.292-.014-.161-.014-.322-.029-.483-.161-.03-.337-.059-.527-.088-.102.19-.249.322-.498.263a.391.391 0 0 1-.292-.322c-.044-.249.073-.395.278-.497-.015-.161-.044-.293-.059-.44-.102-.014-.205-.043-.307-.043a.158.158 0 0 0-.103.044.342.342 0 0 1-.41.117.3.3 0 0 1-.204-.278c0-.176.102-.293.292-.352-.175-.249-.234-.497-.044-.76.176-.235.41-.25.63-.191.044-.176.058-.351.146-.512.088-.176.278-.22.483-.205.015-.044.03-.088.03-.132.131-.556.6-.878 1.17-.776a.24.24 0 0 0 .147-.014.577.577 0 0 1 .57-.132c-.029-.366.074-.688.352-.937.278-.249.6-.322.966-.263.102-.718.746-.981 1.288-.674.117-.424.263-.527.659-.453.044-.059.073-.132.117-.19.102-.118.234-.176.395-.118.644.22 1.273.41 1.917.63.776.278 1.39.775 1.815 1.478.205.322.293.673.293 1.068v2.65c0 .117-.03.205-.117.292-1.376 1.26-2.752 2.533-4.128 3.791l-.175.176c-.19.19-.41.22-.63.102a.508.508 0 0 1-.234-.6c0-.029.015-.058.03-.117zm-16.612-8.313c.439-.015.585.131.556.57.146.117.293.235.454.352.541-.22 1.17.073 1.17.834.425.059.528.176.528.512.19-.014.395-.044.57-.014.352.058.586.35.63.702a.742.742 0 0 0 .102.22c.044.058.103.117.132.19.073.161.102.322.307.41.176.073.132.351-.029.454a.438.438 0 0 1-.146.058v.19c0 .059-.03.132-.03.19.264.162.337.25.293.44a.296.296 0 0 1-.278.249c-.16.029-.278-.074-.366-.293-.044.014-.102.014-.146.03-.044 0-.088.014-.147.014.03.263-.029.483-.22.658.294.22.381.454.25.688a.463.463 0 0 1-.6.176c-.25-.117-.308-.366-.176-.688-.132-.058-.249-.132-.38-.19-.103.132-.22.263-.323.395.147.293.132.483-.029.644-.176.161-.366.161-.644.015-.102.073-.205.16-.307.234.102.307.044.6-.25.79-.292.205-.585.132-.863-.102 0 .058-.014.117-.014.16-.073.47-.454.762-.922.703-.118-.014-.19 0-.264.088a.607.607 0 0 1-.293.176c-.16.058-.307.029-.439-.117a560.482 560.482 0 0 0-4.142-4.201A.376.376 0 0 1 34 53.6v-2.473a2.22 2.22 0 0 1 1.405-2.079c.82-.322 1.64-.644 2.444-.951.25-.103.44 0 .586.307.249-.132.468-.102.644.132.015.015.058.03.088.03.6.014.834.219.966.79zm15.866 9.147c.146.03.322.044.454.118.234.146.234.439.044.614-1.962 1.8-3.923 3.601-5.884 5.416-.82.761-1.64 1.507-2.474 2.269-.044.044-.088.073-.132.117-.19-.117-.22-.235-.131-.41.058-.117.102-.249.16-.38-.102-.118-.131-.25-.029-.41.015-.03 0-.088-.014-.118-.015-.117-.088-.234-.059-.336.059-.22.03-.44.03-.659-.015-.263.131-.454.336-.63-.234-.263-.366-.54-.307-.892.058-.337.249-.586.57-.747-.424-.35-.526-.775-.307-1.302-.249-.044-.454-.161-.483-.44-.015-.219.103-.38.293-.468-.132-.366-.103-.556.102-.688a.44.44 0 0 1 .542.015c.19.146.22.337.117.63.059.029.132.043.176.058.029-.161.058-.322.087-.468 0-.044-.014-.088-.029-.132-.234-.308-.263-.644-.132-.996.015-.029 0-.087-.014-.117-.278-.278-.322-.6-.19-.951-.322-.263-.41-.468-.279-.703.118-.22.337-.278.66-.175 0-.044-.016-.088-.016-.117a.55.55 0 0 1 .996-.41c.088.117.336.132.424.03.308-.381.673-.308.864.146.63.073.834.234.951.805.249-.03.469.058.644.278.044-.278.176-.469.454-.483.234-.015.366.102.498.41.658-.088.922.087 1.097.775.19 0 .395-.044.556.015.161.058.293.22.425.336zm-9.177 1.479v.658a.445.445 0 0 1 .439.22c.102.176.073.351-.015.527.234.293.234.439.015.746.249.161.424.366.454.688.014.308-.118.557-.366.747.366.673.263 1.259-.308 1.77.308.22.337.41.117.674.205.234.205.337 0 .542.176.234.161.366-.087.541-.03-.044-.059-.117-.103-.16-2.547-2.591-5.093-5.182-7.64-7.758-.176-.176-.25-.352-.147-.571.103-.249.278-.395.542-.41.146 0 .278.03.439.059.498-.63.761-.688 1.537-.337-.015-.57.454-.922 1.024-.673.322-.513.66-.6 1.098-.293.161-.102.308-.234.469-.307.16-.059.35-.03.483-.044-.03-.103-.088-.25-.088-.38 0-.191.117-.323.293-.381.175-.059.336-.015.483.117.043.029.102.073.146.073.337-.103.63 0 .863.234.293-.146.44-.132.557.03.102.16.058.321-.147.512.19.336.19.673-.044.995.469.424.425.893.103 1.288.395.351.351.688-.117.893zm.732-1.64c-.176-.292-.074-.556.204-.57.22-.015.366.16.337.38 0 .044.015.117.059.161.205.19.234.44.073.644a.458.458 0 0 1-.63.088c-.204-.146-.248-.395-.102-.63a.257.257 0 0 0 .059-.073zm1.858-6.25c-.292-.029-.468-.204-.38-.41.044-.102.146-.219.234-.233.103-.03.22.058.322.102.059.015.117.073.161.073.293-.029.498.103.542.366a.391.391 0 0 1-.293.469c-.278.073-.498-.044-.586-.322.015 0 .015-.03 0-.044zm1.084 3.104c-.015.058-.015.087-.03.131a.312.312 0 0 1-.307.235c-.161 0-.264-.088-.307-.235a.307.307 0 0 1 .131-.366c.073-.043.117-.087.117-.19a.424.424 0 0 1 .41-.468.435.435 0 0 1 .454.395c.03.234-.132.44-.38.483-.03 0-.045 0-.088.015zm-2.855-5.87c-.234-.249-.248-.512-.044-.673.19-.146.469-.117.6.088.162.234.074.468-.234.644.118.263.088.41-.087.497a.283.283 0 0 1-.381-.102c-.088-.146-.044-.307.146-.454zm-2.62 3.06c.293-.162.542-.103.66.146a.414.414 0 0 1-.206.541c-.249.103-.468-.014-.585-.322-.25.03-.395-.029-.44-.19-.029-.146 0-.263.147-.337.146-.087.278-.029.424.161zm-.907-1.289c0-.234.176-.424.424-.424.235 0 .425.19.425.424 0 .22-.19.41-.41.425a.428.428 0 0 1-.439-.425zm2.942 4.582a.4.4 0 0 1-.41-.41.4.4 0 0 1 .41-.41c.22 0 .395.176.41.395a.413.413 0 0 1-.41.425zm-2.093-.425a.325.325 0 0 1-.322.322.348.348 0 0 1-.337-.322c0-.19.147-.336.337-.336a.348.348 0 0 1 .322.336zm2.605-4.61c0 .16-.117.292-.278.292a.297.297 0 0 1-.307-.292c0-.161.131-.293.292-.293.161 0 .293.132.293.293z"/>
    </g>
</svg>
