<svg xmlns="http://www.w3.org/2000/svg" width="96" height="96" viewBox="0 0 96 96">
    <g fill="none" fill-rule="evenodd">
        <path d="M0 0h24v24H0z"/>
        <path fill="#FFF" fill-rule="nonzero" d="M10.851 48.328l37.477-37.476 37.476 37.476-37.476 37.477z"/>
        <path fill="#FA3C32" d="M48.02 8C61.36 21.34 74.7 34.68 88 48L48 88C34.68 74.68 21.34 61.34 8 48.02 21.32 34.68 34.66 21.34 48.02 8zM48 81.66l33.62-33.62c-11.2-11.22-22.4-22.46-33.56-33.64C36.8 25.6 25.56 36.82 14.34 48L48 81.66z"/>
        <path fill="#222" fill-rule="nonzero" d="M47.74 31c1.498.035 2.664.279 3.726.923.626.4 1.131.905 1.41 1.619.191.487.122.974.052 1.48-.4 2.663-.783 5.309-1.184 7.972-.383 2.629-.783 5.24-1.166 7.869-.104.713-.33 1.323-.87 1.793-.766.661-1.654.853-2.594.487-.958-.348-1.497-1.062-1.654-2.071-.226-1.445-.435-2.89-.644-4.335-.313-2.124-.627-4.248-.94-6.354-.279-1.932-.575-3.865-.853-5.797-.105-.731.157-1.358.627-1.897.713-.819 1.67-1.254 2.715-1.48.54-.122 1.097-.174 1.375-.209zm4.109 28.81c-.07 1.463-.731 2.734-2.211 3.5-1.462.765-3.308.382-4.404-.854-1.428-1.636-1.445-3.986-.018-5.622 1.445-1.654 4.091-1.672 5.553-.018.714.818 1.062 1.758 1.08 2.994z"/>
    </g>
</svg>
