<svg xmlns="http://www.w3.org/2000/svg" width="96" height="96" viewBox="0 0 96 96">
    <g fill="none" fill-rule="evenodd">
        <path d="M0 0h24v24H0z"/>
        <path fill="#FFF" fill-rule="nonzero" d="M10.851 48.328l37.477-37.476 37.476 37.476-37.476 37.477z"/>
        <path fill="#FA3C32" d="M48.02 8C61.36 21.34 74.7 34.68 88 48L48 88C34.68 74.68 21.34 61.34 8 48.02 21.32 34.68 34.66 21.34 48.02 8zM48 81.66l33.62-33.62c-11.2-11.22-22.4-22.46-33.56-33.64C36.8 25.6 25.56 36.82 14.34 48L48 81.66z"/>
        <path fill="#222" fill-rule="nonzero" d="M28 51.32c.104-.54.166-1.1.332-1.62.25-.81.79-1.308 1.641-1.537 8.766-2.347 17.531-4.694 26.276-7.062 1.08-.29 1.91.062 2.555.852.664.81 1.37 1.017 2.388.706 1.641-.499 3.324-.914 4.985-1.35.873-.229 1.496.166 1.745 1.08.25.914-.104 1.578-.997 1.807-1.724.457-3.427.935-5.151 1.37-.852.23-1.35.707-1.496 1.6-.187 1.163-.81 1.911-2.056 2.243a3656.792 3656.792 0 0 0-25.902 6.959c-1.308.353-2.201-.146-2.95-1.101-.892-1.122-1.287-2.451-1.37-3.947z"/>
    </g>
</svg>
