<svg xmlns="http://www.w3.org/2000/svg" width="96" height="96" viewBox="0 0 96 96">
    <g fill="none" fill-rule="evenodd">
        <path d="M0 0h24v24H0z"/>
        <path fill="#FFF" fill-rule="nonzero" d="M10.851 48.328l37.477-37.476 37.476 37.476-37.476 37.477z"/>
        <path fill="#FA3C32" d="M48.02 8C61.36 21.34 74.7 34.68 88 48L48 88C34.68 74.68 21.34 61.34 8 48.02 21.32 34.68 34.66 21.34 48.02 8zM48 81.66l33.62-33.62c-11.2-11.22-22.4-22.46-33.56-33.64C36.8 25.6 25.56 36.82 14.34 48L48 81.66z"/>
        <path fill="#222" fill-rule="nonzero" d="M52.036 54.201c1.163-.904 1.712-2.084 1.97-3.376.146-.679.033-1.405-.016-2.149-.42 1.584-2.245 1.664-2.94 2.957-.048-.016-.097-.049-.161-.065 0-.97.048-1.955-.016-2.924-.13-2.165-.97-3.99-2.763-5.428-.016.226-.064.372-.048.533.145 1.309-.194 2.52-.695 3.683-.5 1.131-.565 2.262-.29 3.441.048.227.08.469.128.76-1.421-.566-2.617-1.293-2.972-2.989-.598 1.955-.404 3.07.71 4.523.26.34.518.695.825 1.099-1.406-.097-2.714-.194-3.78-1.147.953 2.665 2.31 4.879 5.411 5.363-.129 0-.258.016-.387.016-.13 0-.259-.016-.388-.016-1.89.065-3.651-.404-5.347-1.244-1.632-.824-2.843-2.051-3.409-3.764-.678-2.084-1.195-4.232-1.777-6.348-.097-.356-.113-.727-.065-1.164.388.437.792.857 1.18 1.293.307.339.63.662.937.985.678.727 1.615.566 2.552.776-.323-.743-.662-1.374-.888-2.036-.259-.791-.533-1.615-.614-2.44-.162-1.582-.194-3.182-.291-4.943.485.517.92.921 1.276 1.374.388.484.695 1.034 1.083 1.518.274.323.63.566 1.001.889-.113-.824-.307-1.535-.274-2.214.064-1.324.29-2.649.403-3.974.049-.63.017-1.26.017-1.89.888.016 1.502.436 1.841 1.357.178.485.307.97.436 1.47.097.356.081.744.21 1.083.21.533.485 1.017.824 1.712.323-.808.646-1.47.84-2.18.566-1.988.533-4.023.55-6.059 0-1.066.371-2.568.92-3.683.097.485.21.889.275 1.292.13 1.018.5 1.955 1.034 2.811.985 1.567 1.567 3.312 2.1 5.057.226.743.162 1.583.178 2.39.016.308-.081.614-.13.921.744-.032 1.584-.662 1.729-1.373.275-1.211.469-2.44.695-3.667.048-.226.048-.468.097-.791.985 1.34 1.421 2.778 1.454 4.345.032 1.519.226 3.053-.647 4.459 1.68-.566 2.537-1.874 3.183-3.393 1.502 3.183.937 6.042-1.244 8.692 1.567-.049 2.827-.808 3.215-1.987.016.258.032.387.032.517-.016 1.89-.242 3.731-.985 5.476-.614 1.47-1.503 2.714-2.94 3.586-1.535.921-3.393 1.47-5.154 1.228 2.036-1.308 3.716-2.86 4.572-5.266-.986.727-2.052 1.211-3.457.904zm6.445 6.43c0 .581.017 1.147-.016 1.712 0 .097-.177.226-.307.275-.113.048-.258.016-.387.016H38.82v-2.003h19.66z"/>
    </g>
</svg>
