<svg xmlns="http://www.w3.org/2000/svg" width="96" height="96" viewBox="0 0 96 96">
    <g fill="none" fill-rule="evenodd">
        <path d="M0 0h24v24H0z"/>
        <path fill="#FFF" fill-rule="nonzero" d="M10.851 48.328l37.477-37.476 37.476 37.476-37.476 37.477z"/>
        <path fill="#FA3C32" d="M48.02 8C61.36 21.34 74.7 34.68 88 48L48 88C34.68 74.68 21.34 61.34 8 48.02 21.32 34.68 34.66 21.34 48.02 8zM48 81.66l33.62-33.62c-11.2-11.22-22.4-22.46-33.56-33.64C36.8 25.6 25.56 36.82 14.34 48L48 81.66z"/>
        <path fill="#222" fill-rule="nonzero" d="M41.826 52.3c.035-.582-.336-.794-.759-1.006a195.862 195.862 0 0 1-4.71-2.38c-.723-.371-1.41-.424-2.151-.019-.389.212-.794.37-1.218.477-.987.229-1.799-.388-1.852-1.394-.017-.406-.035-.829 0-1.235.053-.617.37-1.076.83-1.464.105-.088.158-.247.211-.37.053-.141.053-.318.088-.459.265-1.076 1.041-1.552 2.152-1.287.741.176 1.323.582 1.764 1.182l.37.529c.494.705 1.077 1.287 1.906 1.605.476.194.934.44 1.41.653 0-.053 0-.071-.017-.071-.706-.706-.935-1.57-.829-2.54.053-.547.123-1.094.159-1.64a.692.692 0 0 0-.106-.424c-.53-.794-1.076-1.57-1.394-2.47-.14-.44-.229-.881-.317-1.34-.088-.582.123-1.093.494-1.517.423-.494.882-.97 1.358-1.41.83-.795 1.676-1.57 2.505-2.365 1.41-1.375 3.157-2.01 5.045-2.275 2.504-.335 4.71.388 6.597 2.064 1.217 1.076 2.434 2.17 3.633 3.245.053.053.088.106.141.141 1.076.935 1.235 2.064.759 3.352-.353.952-.9 1.8-1.482 2.628a.743.743 0 0 0-.123.512c.088.705.176 1.41.194 2.134.017.811-.318 1.5-.918 2.064-.088.07-.158.158-.229.264.053-.017.124-.035.176-.07.724-.335 1.447-.688 2.188-1.023.617-.265 1.093-.688 1.481-1.217.212-.265.406-.565.6-.83.53-.705 1.217-1.146 2.1-1.252.846-.088 1.534.282 1.728 1.111.14.6.353 1.112.811 1.535.318.3.423.74.423 1.182 0 .353 0 .705-.017 1.058-.07.988-.847 1.605-1.8 1.376a5.537 5.537 0 0 1-1.305-.494c-.705-.37-1.358-.335-2.046.018-1.887.97-3.792 1.922-5.68 2.875-.123.053-.211.159-.352.282.3.141.511.247.723.353 1.57.74 3.14 1.5 4.727 2.24.424.212.864.124 1.288-.035.617-.23 1.235-.459 1.905-.459.829-.017 1.57.23 2.187.794.776.723.688 1.8-.23 2.364-.387.247-.81.44-1.234.635a.467.467 0 0 0-.282.37c-.053.318-.141.617-.177.917-.14 1.164-1.446 1.817-2.434 1.464-.9-.317-1.534-.917-1.693-1.922-.124-.777-.547-1.359-1.252-1.694-1.711-.829-3.422-1.64-5.133-2.47-.16-.07-.247-.017-.37.054-.918.635-1.923 1.093-2.947 1.499-.476.194-.97.176-1.464.035-1.146-.317-2.24-.758-3.245-1.393a.396.396 0 0 0-.318-.035c-1.64.758-3.28 1.534-4.903 2.31-.688.335-1.094.9-1.235 1.64-.212 1.094-1.04 1.906-2.064 2.047-.935.123-1.852-.512-2.046-1.447-.07-.352-.159-.687-.194-1.04-.035-.194-.123-.283-.282-.353-.388-.194-.794-.37-1.182-.6-.97-.582-1.058-1.728-.194-2.452.935-.776 2.01-.882 3.157-.546.335.105.67.229 1.006.335.44.14.864.123 1.305-.088 1.5-.724 3.016-1.447 4.533-2.152.088-.036.159-.071.23-.106zm-2.717-11.783c-.017-.106-.053-.212-.053-.318-.123-1.358.353-2.451 1.394-3.316.211-.176.44-.158.617.036.3.317.3.458.07.687-.088.089-.176.16-.246.247-.565.53-.9 1.182-.812 1.958.07.653.23 1.306.37 1.958.107.477.089.935 0 1.411-.123.67-.176 1.359-.21 2.029-.019.617.264 1.111.775 1.482.23.158.476.317.706.476.811.511 1.64.988 2.452 1.5.493.317.723.793.723 1.393 0 .14.017.3-.018.44-.053.336.106.53.353.706 1.429 1.076 3.263 1.182 4.815.3.512-.282.865-.635.741-1.288-.017-.088 0-.176 0-.264.018-.582.282-1.023.776-1.34.23-.16.477-.3.724-.46.776-.493 1.57-.952 2.328-1.463.635-.424.97-1.059.9-1.835-.071-.776-.212-1.535-.3-2.293-.018-.159-.036-.317 0-.459.123-.617.282-1.234.405-1.87.159-.775.053-1.499-.547-2.098-.176-.177-.335-.37-.493-.547l.67-.723c.952.882 1.658 1.852 1.429 3.228.282-.46.423-.953.494-1.464.052-.37-.036-.688-.283-.953-.247-.282-.494-.564-.776-.811-1.076-.97-2.17-1.94-3.28-2.91-.742-.636-1.535-1.183-2.47-1.518-1.34-.476-2.734-.511-4.11-.264-1.376.264-2.664.74-3.704 1.728-.988.953-1.993 1.87-2.999 2.823-.282.282-.564.582-.829.864-.282.3-.388.67-.335 1.076.123.705.353 1.305.723 1.852zm13.706 8.537c-.688.282-1.147.653-1.023 1.464.105.723-.336 1.217-.882 1.588-1.905 1.305-3.863 1.34-5.856.229-.83-.459-1.376-1.094-1.2-2.134a.668.668 0 0 0 0-.265c-.018-.088-.035-.194-.088-.247-.335-.264-.67-.494-1.076-.776 0 .776.018 1.464 0 2.152-.018.494.123.935.388 1.323.212.3.44.6.706.864 1.058 1.059 2.398 1.57 3.81 1.905.264.07.6.053.846-.053.776-.317 1.57-.67 2.31-1.076.689-.37 1.236-.917 1.659-1.587.176-.282.353-.6.37-.9.071-.811.036-1.64.036-2.487zm-.106 4.745c.088.035.141.07.194.088 1.605.776 3.228 1.552 4.833 2.346.97.494 1.535 1.323 1.711 2.382.106.582.459.917.97 1.11.494.195 1.094-.14 1.182-.67.141-.9.353-1.799.547-2.698.07-.37.317-.547.617-.477.3.071.441.318.37.67-.017.071-.017.142-.017.248.212-.106.37-.177.529-.283.459-.264.476-.617.035-.934-.635-.441-1.323-.512-2.046-.3-.406.123-.794.282-1.2.388-.564.159-1.128.176-1.657-.07-1.076-.495-2.135-1.006-3.21-1.518-.741-.353-1.5-.705-2.24-1.076-.23.265-.406.512-.618.794zm-10.372-.617c-1.623.776-3.245 1.517-4.85 2.293a2.725 2.725 0 0 1-2.1.14c-.423-.14-.829-.299-1.252-.405-.688-.159-1.323-.035-1.887.406-.353.282-.336.617.053.847.176.105.37.194.6.317-.018-.123-.018-.176-.036-.247-.053-.406.07-.635.388-.705.3-.053.53.14.6.529.176.9.353 1.781.529 2.68.088.424.388.689.811.706.512.036 1.217-.493 1.288-1.005.194-1.27.882-2.152 2.046-2.699a293.232 293.232 0 0 0 4.11-1.94c.106-.053.194-.106.317-.159a8.289 8.289 0 0 0-.617-.758zm11.518-2.487c.124-.071.23-.106.318-.16 1.693-.863 3.387-1.71 5.08-2.574.53-.265 1.076-.406 1.658-.389.512.018.935.23 1.393.424.318.14.653.282.988.37.318.088.547-.106.565-.423.017-.37 0-.723 0-1.094-.124.353-.335.53-.618.477-.3-.036-.44-.247-.44-.635 0-.3.035-.583.017-.882a13.224 13.224 0 0 0-.088-1.2c-.07-.44-.3-.582-.723-.511-.565.07-.988.352-1.323.793-.16.212-.3.406-.441.618-.565.793-1.253 1.428-2.17 1.834-1.34.582-2.646 1.217-3.969 1.835-.105.053-.229.158-.247.247-.017.405 0 .829 0 1.27zm-12.153-.23c0-.423-.018-.776 0-1.146 0-.177-.053-.265-.23-.353-1.304-.6-2.592-1.2-3.88-1.817-.353-.176-.688-.388-.952-.67-.459-.476-.847-1.023-1.253-1.552-.37-.494-.829-.794-1.446-.865-.37-.035-.564.089-.653.441a4.86 4.86 0 0 0-.123.865c-.018.458 0 .917.017 1.375 0 .265-.105.46-.37.53-.282.07-.476-.053-.6-.3l-.07-.141c0 .37-.018.723 0 1.076.035.352.247.511.582.423.37-.106.723-.247 1.058-.423 1.006-.53 1.993-.477 2.981.035a909.3 909.3 0 0 0 4.163 2.117c.247.158.494.264.776.405zm1.782-7.92h1.376c.105 0 .194 0 .3.018 1.11.23 1.34.74.775 1.605a8.21 8.21 0 0 1-.97 1.253c-.776.793-1.94.793-2.751.017-.565-.529-.882-1.2-1.023-1.94-.106-.547.247-.935.793-.953h1.5zm8.59 0h1.464c.547 0 .9.37.811.918-.14.864-.529 1.622-1.234 2.152-.688.529-1.659.529-2.329-.018a5.002 5.002 0 0 1-1.358-1.782c-.247-.529-.106-.864.423-1.076.23-.105.512-.158.759-.176.476-.035.97-.018 1.464-.018zm-2.928 7.638c-.212-.07-.424-.123-.618-.23-.317-.176-.652-.176-.952.018-.335.212-.688.212-1.04.142-.389-.089-.583-.406-.495-.794.036-.159.106-.318.177-.459.176-.406.352-.829.547-1.217.158-.335.317-.688.546-.952.424-.494 1.059-.477 1.447.052.282.406.44.882.652 1.323.141.283.247.6.424.865.176.264.317.494.14.811-.176.3-.458.406-.828.441z"/>
    </g>
</svg>
