<svg xmlns="http://www.w3.org/2000/svg" width="96" height="96" viewBox="0 0 96 96">
    <g fill="none" fill-rule="evenodd">
        <path d="M0 0h24v24H0z"/>
        <path fill="#FFF" fill-rule="nonzero" d="M10.851 48.328l37.477-37.476 37.476 37.476-37.476 37.477z"/>
        <path fill="#FA3C32" d="M48.02 8C61.36 21.34 74.7 34.68 88 48L48 88C34.68 74.68 21.34 61.34 8 48.02 21.32 34.68 34.66 21.34 48.02 8zM48 81.66l33.62-33.62c-11.2-11.22-22.4-22.46-33.56-33.64C36.8 25.6 25.56 36.82 14.34 48L48 81.66z"/>
        <path fill="#222" fill-rule="nonzero" d="M46.697 51.08V54.5H28V51.08c.052 0 .12-.018.173-.018h7.164c.07 0 .155.018.19.07.31.5.777.742 1.347.828.76.121 1.501.052 2.21-.293.276-.138.483-.346.742-.518.069-.035.138-.087.207-.087h6.543c.034.018.069.018.12.018zm14.26-.517h-.605c-1.277 0-2.538.017-3.815.017a.773.773 0 0 0-.345.07c-.07.034-.138.137-.121.206 0 .07.086.156.172.19.087.035.19.035.294.035.967 0 1.933 0 2.9.017h.207v.725h-.207c-1.45 0-2.9 0-4.35.017a.954.954 0 0 0-.432.121c-.155.104-.138.225-.017.363.12.12.259.19.431.19h4.575v.725h-.207c-1.001 0-2.02 0-3.02.017-.105 0-.225.017-.329.034-.173.052-.19.121-.052.242.156.138.328.19.535.19.777 0 1.571 0 2.348.017h1.191c.121 0 .208.035.294.121.19.173.38.345.587.518-.017.035-.035.052-.052.086h-.19c-.915 0-1.847.018-2.762.035-.173 0-.328.052-.5.103-.052.018-.121.07-.121.121 0 .052.069.121.12.138.156.052.311.121.467.139.535.034 1.07.069 1.622.086 1.002.017 2.003.052 3.004.034.794-.017 1.588-.069 2.348-.31.328-.104.656-.26.967-.397.656-.277 1.33-.38 2.054-.363v.622c0 .12-.086.086-.155.103-.38.052-.76.07-1.122.155-.277.052-.535.173-.794.294-.726.363-1.502.483-2.297.57-1.64.155-3.28.034-4.937-.018a8.467 8.467 0 0 1-1.157-.12c-.414-.087-.742-.328-.846-.795-.017-.103 0-.224 0-.345-.76-.069-1.398-.293-1.415-1.226-.138-.017-.276-.017-.414-.034-.57-.07-1.002-.553-.985-1.088.018-.535.501-1.001 1.07-1.018h.484c0-.138-.017-.276 0-.397.087-.484.466-.812 1.036-.846.397-.018.777-.018 1.174-.035h.207c-.052-.138-.12-.259-.138-.38-.086-.414.12-.725.552-.76.311-.034.622-.034.933-.068.241-.035.466-.104.69-.173.121-.034.19-.034.294.035.811.69 1.726.76 2.71.449.19-.052.345-.173.5-.294.104-.069.173-.086.277-.034.363.172.725.345 1.088.535.207.103.397.207.57.345.362.259.759.345 1.173.362.45.035.915.052 1.364.087.052 0 .12.017.19.017v.69c-.259 0-.5.018-.742 0a22.034 22.034 0 0 1-1.537-.155 1.388 1.388 0 0 1-.449-.155c-.518-.276-1.018-.57-1.536-.863-.104-.052-.173-.052-.276 0-.173.086-.363.155-.536.224-.051.017-.086.052-.138.086.052.035.104.07.156.087.328.069.673.12 1.001.224-.708.173-1.433.328-2.158.5-.034.346.086.64.345.881.294.277.656.415 1.036.518.225.052.449.104.69.156-.034.224-.051.466-.086.707-.207-.034-.397-.069-.587-.103-.483-.104-.95-.26-1.363-.553-.484-.362-.76-.828-.777-1.45v-.103c-.07-.087-.07-.104-.087-.121zm-2.573-1.174c.19.242.449.414.76.414.673.017 1.346 0 2.037 0-.276-.086-.553-.155-.794-.276-.207-.086-.38-.259-.587-.294-.207-.034-.432.07-.656.087-.242.052-.484.052-.76.069zm5.162-11.394c-.07.518-.155 1.036-.224 1.554-.104.742-.225 1.484-.328 2.227-.052.328 0 .638.19.95.258.413.276.897.138 1.346-.052.19-.19.38-.328.518-.104.103-.139.172-.104.31.138.466.259.95.397 1.416.155.518.138 1.018-.12 1.485-.173.31-.484.448-.795.362a.576.576 0 0 1-.414-.38c-.156-.38-.225-.76-.087-1.156.173-.536.328-1.088.484-1.64.034-.139.052-.225-.121-.311-.276-.138-.345-.414-.38-.69-.086-.484-.034-.95.242-1.365.069-.103.069-.207-.052-.258-.155-.087-.31-.173-.466-.208l-5.835-.984c-1.295-.224-2.59-.431-3.902-.656a1.978 1.978 0 0 1-1.07-.535c-.88-.829-.725-2.089.328-2.676.535-.293 1.105-.362 1.692-.259 2.883.518 5.748 1.036 8.632 1.554.241.052.5.086.742.12.345.053.621-.034.863-.293l.414-.466c.052 0 .087.018.104.035zm-.95 1.45c-.069-.017-.12-.035-.172-.035-.863-.155-1.744-.31-2.607-.466-2.02-.345-4.04-.708-6.06-1.053a9.437 9.437 0 0 0-1.38-.172 1.428 1.428 0 0 0-1.14.466c-.414.466-.276 1.14.293 1.38.208.087.45.139.674.173 1.018.104 2.02.173 3.038.26 2.21.19 4.42.38 6.612.57.19.016.38.034.57.034.052-.397.12-.76.172-1.157zm-24.79 5.749c.069.397.138.777.207 1.14.086.43.207.845.31 1.277.104.397.035.777-.155 1.14-.155.258-.362.396-.673.379-.293-.017-.466-.207-.57-.466-.155-.397-.19-.812-.069-1.209.173-.57.346-1.14.5-1.709.018-.069.035-.138.053-.224.034-.225.052-.415-.138-.622-.294-.345-.328-.794-.19-1.225.051-.156.12-.328.19-.484.293-.552.31-1.105.19-1.709-.208-1.122-.38-2.261-.57-3.384v-.103c.086.069.155.12.224.172.138.139.26.294.415.415.241.224.517.31.845.259 1.347-.242 2.676-.484 4.023-.725 1.536-.277 3.09-.553 4.644-.794.535-.087 1.07-.052 1.57.172 1.158.535 1.347 1.865.38 2.693-.38.328-.828.484-1.329.57-2.9.5-5.8.984-8.7 1.502a1.723 1.723 0 0 0-.501.173c-.207.103-.242.259-.156.466.208.431.346.897.294 1.38a2.477 2.477 0 0 1-.07.38c-.12.329-.327.536-.724.536zm.103-5.507c.052.345.104.673.156 1 .017.122.052.174.19.156.673-.069 1.346-.12 2.02-.19l3.832-.362c1.174-.104 2.365-.207 3.54-.31.293-.035.586-.104.828-.294.552-.415.466-1.209-.156-1.502a1.696 1.696 0 0 0-.966-.121c-.484.069-.967.155-1.45.242-2.038.345-4.058.707-6.095 1.053-.621.103-1.243.224-1.899.328zm3.626 5.956c.172.19.328.362.483.552l-.414.466a.926.926 0 0 0-.242.829c.017.086.017.19.017.276.035.587-.12.863-.673 1.105-.173.086-.276.173-.276.38 0 .466-.156.88-.5 1.208a.956.956 0 0 1-.726.31c0-.085-.017-.189-.017-.31-.173.156-.328.31-.5.484-.156-.208-.277-.397-.398-.57.156-.207.31-.397.432-.604a.521.521 0 0 0 .034-.363c-.155-.587 0-1.053.484-1.416.224-.155.259-.328.19-.57-.087-.293-.156-.603-.087-.949l.622.104c.034 0 .069.069.086.103.052.242.086.484.138.726.086.431 0 .776-.362 1.053-.018 0-.018.017-.035.017-.31.207-.431.466-.293.846.051.138.034.31.069.466.034-.12.086-.242.12-.363.035-.155.035-.31.052-.483.035-.328.225-.535.501-.673.414-.207.466-.121.397-.725-.069-.501.035-.933.363-1.33.155-.172.345-.362.535-.57zm-4.886 5.265c-.173.155-.345.31-.535.483-.138-.172-.276-.328-.38-.466-.103-.017-.172-.017-.207-.051a21.767 21.767 0 0 1-.656-.518c-.259-.225-.397-.501-.345-.846.034-.294-.087-.45-.346-.57-.328-.155-.587-.397-.638-.777-.018-.173 0-.362.034-.535.052-.276 0-.518-.172-.725-.173-.207-.363-.414-.553-.639.19-.155.363-.293.57-.483.259.345.535.656.76 1.001.207.31.172.673.103 1.036-.052.31.017.397.31.483.087-.414.173-.828.26-1.277.207-.018.431-.035.708-.052-.035.276-.052.535-.121.794-.121.466-.138.466.259.742.397.26.518.64.431 1.07-.103.467.087.795.363 1.106.052.086.103.155.155.224zm-1.295-1.088c.121-.397.087-.604-.138-.69.104.224-.086.483.138.69zm32.025-7.596c.19.156.38.294.57.45-.087.103-.173.19-.26.293-.12.12-.241.259-.345.38-.12.138-.155.31-.138.5.034.225.069.45.052.656-.052.415-.26.725-.69.863-.208.07-.277.242-.26.432.017.552-.242.967-.621 1.33-.138.12-.328.206-.536.327-.069-.276-.12-.5-.155-.673.173-.173.328-.31.432-.483a1.14 1.14 0 0 0 .155-.484c.035-.552.242-.967.794-1.156.156-.052.19-.208.173-.363a4.032 4.032 0 0 0-.07-.449c-.051-.31.018-.604.208-.846.224-.259.466-.5.69-.777zm-7.614 5.818c-.172-.12-.38-.19-.518-.345-.207-.242-.38-.535-.535-.811-.052-.104-.034-.26-.034-.38.034-.26-.018-.38-.26-.466-.483-.207-.759-.69-.655-1.192.086-.448-.035-.81-.328-1.139a29.345 29.345 0 0 0-.277-.328c.19-.155.363-.293.536-.466.517.518.915 1.07.811 1.864-.017.07-.017.121-.017.19-.018.19.069.328.241.415.536.241.76.638.69 1.225 0 .052 0 .121.035.156.139.19.277.362.415.535.017.034.052.069.052.104-.018.207-.052.414-.087.621-.017-.017-.052 0-.069.017zm5.076-5.265c.207.034.397.069.587.103.034.018.086.07.103.121.052.121.052.276.121.397.225.484.07 1.209-.449 1.45-.12.052-.172.173-.172.294v.414c.034.69-.26 1.226-.846 1.64-.156-.172-.311-.328-.484-.535.087-.069.156-.138.242-.19.294-.241.38-.57.38-.932 0-.207 0-.432.034-.639.035-.276.19-.5.45-.638.258-.156.31-.294.19-.57-.156-.294-.243-.57-.156-.915zm-5.611.621s.035-.017.07-.017c.206-.017.413-.052.655-.069-.034.242-.069.466-.103.69-.018.104-.052.19-.087.294-.052.155-.034.276.121.363.035.017.052.034.086.051.518.363.674.76.536 1.381-.052.208.051.38.172.536.121.155.242.276.38.431-.173.156-.328.311-.518.484-.38-.328-.708-.708-.777-1.26-.017-.139.017-.294.052-.432.052-.225.017-.38-.19-.5-.673-.398-.69-.899-.483-1.486.017-.138.052-.31.086-.466z"/>
    </g>
</svg>
