<svg xmlns="http://www.w3.org/2000/svg" width="96" height="96" viewBox="0 0 96 96">
    <g fill="none" fill-rule="evenodd">
        <path d="M0 0h24v24H0z"/>
        <path fill="#FFF" fill-rule="nonzero" d="M10.851 48.328l37.477-37.476 37.476 37.476-37.476 37.477z"/>
        <path fill="#FA3C32" d="M48.02 8C61.36 21.34 74.7 34.68 88 48L48 88C34.68 74.68 21.34 61.34 8 48.02 21.32 34.68 34.66 21.34 48.02 8zM48 81.66l33.62-33.62c-11.2-11.22-22.4-22.46-33.56-33.64C36.8 25.6 25.56 36.82 14.34 48L48 81.66z"/>
        <path fill="#222" fill-rule="nonzero" d="M49.696 42.624c-.057.096-.135.212-.192.309-.077.115-.155.25-.232.366-.077.115-.173.154-.308.154-.29.02-.56.096-.848.135-.135.039-.25.096-.386.135-.096.038-.173.096-.27.135-.019.02-.058.038-.077.058l-.405.404c-.058.078-.115.135-.173.213-.039.057-.097.096-.135.154-.058.077-.116.135-.174.212-.038.058-.096.096-.135.154-.038.058-.096.116-.134.154-.039.039-.078.097-.116.135-.039.039-.077.097-.116.135-.058.058-.115.135-.173.193a1.102 1.102 0 0 1-.135.154c-.058.058-.116.135-.174.193a1.102 1.102 0 0 1-.135.154c-.038.058-.096.096-.135.154-.019.02-.038.058-.077.077-.058.058-.115.135-.173.193-.058.077-.116.135-.174.212-.038.039-.058.077-.096.116-.058.077-.116.135-.174.212-.038.038-.057.077-.096.116-.039.077-.077.135-.116.212v1.426H54.554c.039 0 .097 0 .135-.02.077-.057.154-.096.25-.153l.232-.174c.077-.058.174-.115.25-.173l.348-.232c.058-.038.135-.077.192-.115.02 0 .02-.02.039-.02a.781.781 0 0 1 .173-.096c.058-.039.116-.058.174-.096.154-.077.29-.155.443-.232.058-.019.135-.058.193-.077.154-.058.29-.135.444-.193.462-.115.925-.27 1.407-.327.5-.058 1.021-.039 1.523-.039.115 0 .25.02.424.02-.347.655-.656 1.272-1.003 1.946 1.157-.347 2.275-.694 3.393-1.04.039.713-.096 1.387-.308 2.043-.367 1.08-.926 2.043-1.639 2.93A11.91 11.91 0 0 1 58.872 55c-.038.02-.058.058-.096.077.964.694 1.928 1.407 2.93 2.101-.983.463-1.928.926-2.892 1.388v.058c1.33.116 2.68.25 4.03.366-.386.52-.772 1.022-1.177 1.562h2.256c.02.752.058 1.484.077 2.236l-31.769-.174c-.019-.134-.058-.289-.077-.462 1.292-.29 2.564-.598 3.836-.868.444-.096.887-.135 1.33-.173.213-.02.444-.02.656.038.385.097.694-.057 1.022-.192.79-.347 1.561-.675 2.351-1.003.81-.347 1.6-.674 2.41-1.002.328-.135.655-.27 1.022-.424-.058-.039-.097-.077-.154-.097-.213-.096-.425-.192-.656-.27-.077-.038-.135-.057-.096-.173.019-.096.019-.193.038-.29.02-.115.097-.115.193-.134.54-.058 1.08-.077 1.6-.231.81-.232 1.561-.617 2.294-1.06.636-.386 1.234-.81 1.677-1.408.309-.405.598-.848.887-1.272 1.002-1.485 2.101-2.911 3.431-4.126.02-.019.02-.019.039-.057h-9.735v4.01l4.434 2.216c-.29.039-.54.077-.79.097-.791.115-1.562.23-2.353.347-.617.096-1.253.173-1.87.25-.289.039-.481.135-.636.405-.289.463-.617.906-.925 1.369-.077.115-.116.096-.212.019-.482-.424-.945-.848-1.446-1.234-.135-.096-.385-.077-.578-.058-.386.02-.79.077-1.176.116l-2.294.231h-.135c-.154.039-.231-.038-.27-.173-.038-.135-.077-.232.097-.309.694-.385 1.388-.79 2.062-1.195l1.273-.752a.162.162 0 0 0 .077-.135c.038-1.715.096-3.45.135-5.185H32v-.54h7.672v-.193c0-.925.02-1.85.02-2.776 0-.057-.058-.154-.116-.192l-2.429-1.33c-.636-.347-1.292-.714-1.928-1.06-.482-.251-.983-.27-1.503-.136-.27.078-.52.155-.79.232a7.778 7.778 0 0 1-.213-.405c.29-.231.598-.463.906-.675.501-.366 1.022-.713 1.523-1.06.328-.212.656-.27 1.022-.077.944.463 1.889.906 2.853 1.35a.69.69 0 0 0 .212.076c.02-.019.038-.038.058-.038l-.636-1.85c-.135-.386-.444-.637-.752-.888-.366-.289-.713-.578-1.08-.867-.405-.308-.81-.636-1.214-.945-.424-.327-.83-.655-1.253-.983-.058-.038-.097-.077-.154-.115-.251-.155-.367-.367-.328-.675.02-.231 0-.463 0-.713 1.523.925 3.026 1.831 4.53 2.756 0-.077.02-.135.02-.192a7.582 7.582 0 0 0-.444-2.93c-.116-.328-.309-.617-.482-.926-.27-.482-.54-.983-.81-1.465a30.796 30.796 0 0 0-.597-1.099c-.077-.135-.116-.231.058-.347.154-.096.308-.231.462-.366.713 1.08 1.407 2.159 2.14 3.296.096-.308.173-.559.27-.829a26.7 26.7 0 0 1 .366-1.156c0-.039.058-.058.077-.077.27-.077.56-.135.848-.212a6.85 6.85 0 0 0-.077.578c-.058.501-.154 1.022-.192 1.523-.039.559-.058 1.137-.078 1.696-.019.501.193.964.328 1.427.386 1.388.79 2.756 1.176 4.144.135.482.27.983.424 1.504.193-.27.366-.501.52-.733.463-.655.926-1.33 1.37-2.004a.404.404 0 0 0 .076-.212c0-.52 0-1.022-.019-1.543-.02-.347-.077-.674-.116-1.021-.019-.27-.019-.54-.019-.81-.02-.385-.058-.752-.096-1.137 0-.135.02-.29 0-.424-.02-.424-.077-.849-.077-1.273-.02-.404 0-.829 0-1.233h.79c.193 1.426.386 2.872.578 4.298.02 0 .039.02.058.02 1.215-1.408 2.43-2.815 3.682-4.26 0 .27-.02.5 0 .713.039.327-.096.54-.289.79-1.002 1.292-1.986 2.602-2.776 4.029-.096.173-.154.347-.25.501-.174.347-.097.694-.04 1.022.174.771.04 1.503-.25 2.236l-.578 1.33c-.02.02-.02.039-.039.058.02 0 .058-.02.078-.02.366-.327.732-.635 1.08-.963.385-.366.847-.444 1.348-.463.425-.02.83-.058 1.253-.115.425-.058.79-.29 1.1-.579.443-.443.905-.887 1.349-1.35.424-.443.829-.924 1.253-1.387h.038c.328.25.328.25.097.597-.424.656-.849 1.311-1.253 1.967-.077.115-.155.25-.232.366-.058.096-.135.212-.192.308-.078.116-.155.251-.232.367-.058.096-.135.212-.193.308-.057.096-.135.212-.212.347zm8.849 7.171c-.02 0-.02-.02 0 0a1.18 1.18 0 0 1 .096-.231c.366-.617.732-1.234 1.099-1.87.058-.096.096-.193.173-.328-.424.039-.81.058-1.176.116-1.195.193-2.236.713-3.2 1.407-1.253.906-2.294 2.005-3.219 3.22-.598.79-1.195 1.6-1.735 2.448a7.144 7.144 0 0 1-2.602 2.37c-.714.386-1.446.753-2.236.965-.212.057-.425.077-.675.135 1.6.713 3.161 1.387 4.723 2.081.462-.694.925-1.368 1.368-2.062.193-.309.463-.52.79-.636.463-.155.926-.309 1.37-.463.79-.27 1.619-.501 2.39-.829a14.925 14.925 0 0 0 3.528-2.12c1.253-1.041 2.255-2.256 2.891-3.779a6.343 6.343 0 0 0 .443-1.6c-.077.02-.134.02-.192.039-.83.25-1.677.52-2.506.77-.482.117-.906.232-1.33.367zm2.082 1.33c0 .29-.29.54-.637.56-.347 0-.636-.251-.636-.56 0-.308.29-.54.656-.54.327 0 .617.232.617.54z"/>
    </g>
</svg>
