<svg xmlns="http://www.w3.org/2000/svg" width="96" height="96" viewBox="0 0 96 96">
    <path fill="#222" fill-rule="nonzero" d="M34.373 14.075c1.025-1.9 3.445-1.966 6.6.006 2.261 1.467 4.64 3.535 6.328 5.483l.308.363.214.265.01-.009.013.018.027-.026c1.682-1.64 4.396-3.17 8.1-4.51l.49-.175.479-.164c7.812-2.604 10.043 2.769 3.369 8.066-2.587 2.052-5.603 3.427-9.023 4.287l1.147.01c1.084.002 2.413-.012 4.048-.04l8.56-.17c4.406-.067 6.092-.006 6.822.25.498.173.748.947.964 2.601l.098.825.538.029c.766.046 1.293.104 1.617.186l.091.025.08.026.018.01c1.539.559 1.588 7.854.154 9.049-.214.184-.661.28-1.502.353l-.43.033.032 1.028c.425 14.73.085 34.971-.758 37.083l-.026.06-.027.048-.036.042-.078.073c-.597.448-7.653.77-17.813.926l-.771.011-.016.385c-.064 1.452-2.716 2.258-6.004 2.301l-.284.002c-3.467 0-6.068-.85-6.206-2.586l-.002-.044-3.097-.026c-9.365-.11-15.067-.469-16.171-1.236l-.054-.04-.045-.042-.089-.137c-.7-1.48.002-24.906.983-38.004l.07-.923-.64-.05c-1.204-.103-1.958-.203-2.345-.332l-.077-.028-.066-.029-.043-.027-.084-.067c-1.257-1.258-.327-10.003 1.482-11.174.926-.599 3.912-.66 10.198-.434l6.475.24c1.68.052 2.5.052 3.275.015l2.359-.123c.719-.042 1.285-.082 1.812-.131-3.903-1.553-8.223-4.776-9.955-7.158-1.527-2.16-1.998-4.787-1.12-6.414zM53 80.478l.015-.327h.084c-3.148.04-6.337.059-9.387.053l-1.204-.004c.144.932 2.29 1.625 5.204 1.625 2.755 0 5.109-.654 5.279-1.286l.01-.061zM43.52 40.68l-.09 1.952c-.314 7.114-.553 16.372-.763 27.756l-.152 8.812 1.2.004c2.538.005 5.171-.007 7.797-.035l1.548-.02.06-1.357c.204-4.648.379-9.19.525-14.024l.053-1.828c.245-8.703.307-15.837.128-20.67l-.014-.344-1.656-.031-3.463-.077-1.75-.044-3.423-.094zm-19.42-.82l-.126 1.68c-.913 12.764-1.582 35.063-1.085 36.623l.016.043.028.024c.66.477 7.015.844 16.204.946l2.378.019.17-9.846c.212-11.198.453-20.292.769-27.273l.066-1.425-3.726-.118c-6.087-.205-11.346-.444-14.694-.673zm31.115 1.092l-.4-.009.043 1.305c.138 4.822.068 11.588-.16 19.72-.139 4.92-.307 9.495-.503 14.128l-.132 3.041 2.799-.047c3.202-.06 6.156-.143 8.603-.24l1.912-.084c2.215-.11 3.848-.239 4.413-.32l.122-.02.036-.009.008-.017c.628-1.784.964-21.435.593-35.645l-.053-1.83-.516.022c-2.864.113-7.53.128-13.364.055l-3.4-.05zm-10.941-9.048l-.045.187c-.058.265-.116.633-.173 1.1l-.023.179 2.703.11c3.519.158 5.898.333 6.605.51l.124.038c.734.255 1.053 1.789 1.25 4.96l.054.955 2.738.044c5.963.084 10.8.08 13.864-.019l1.091-.043-.043-1.15c-.095-2.436-.214-4.509-.354-6.148l-.046-.51-2.816-.069c-1.017-.016-2.21-.028-3.674-.037l-13.777-.039c-2.843-.011-5.072-.03-7.075-.06l-.403-.008zm-.703 7.777l1.643.047 3.503.09 1.738.04 3.311.067-.063-1.043c-.161-2.279-.413-3.747-.547-3.897l-.016-.012-.038-.013c-.539-.16-3.302-.35-7.3-.52l-1.872-.074-.056.637a136.42 136.42 0 0 0-.245 3.611l-.058 1.067zm29.46-7.52l-.036-.359.066.735c.13 1.53.243 3.427.335 5.636l.066 1.693.6-.054c.438-.045.71-.088.719-.096.883-.736.866-6.757.18-7.322l-.056-.034-.022-.01c-.18-.067-.83-.136-1.853-.189zm-46.418 1.942l-.718.024c-.285.013-.528.027-.729.043l-.249.023-.188.025-.005.017c-.098.384-.316 2.043-.519 4.359l-.024.268.995.066c3.203.2 7.774.403 13 .583l4.393.141.085-1.5c.085-1.456.173-2.693.264-3.698l.011-.123-2.313-.073c-3.136-.093-6.34-.157-9.043-.179l-1.962-.008c-1.182 0-2.193.01-2.998.032zm21.354-5.69l-.208-.044-.865.121c-1.07.14-1.922.214-3.388.297l-2.377.121c-.956.039-2.046.022-4.635-.072l-4.58-.175c-6.069-.225-9.376-.172-10.041.259-1.246.806-2.086 8.451-1.372 9.559l.011.014.025.008c.22.054.792.127 1.64.205l1.007.085.088-1.003c.246-2.698.462-4.028.775-4.342.493-.492 8.51-.463 18.24-.137l.744.025.074-.629c.178-1.398.352-1.805.896-1.805l3.174.042c1.644.016 3.491.027 5.695.034l13.12.038c2.736.019 4.479.05 5.927.103l-.07-.565a15.05 15.05 0 0 0-.22-1.31 4.032 4.032 0 0 0-.136-.482l-.04-.102v-.01h.008l-.13-.032c-.925-.194-3.492-.2-9.406-.08l-5.944.121c-4.094.066-6.166.035-7.364-.134l-.191-.029c-.15-.024-.302-.05-.457-.081zm-7.531-13.489c-2.72-1.7-4.493-1.652-5.183-.374-.672 1.246-.271 3.484 1.052 5.356 1.841 2.531 6.987 6.202 11.001 7.322l.323.085.173.039.106-.015c4.255-.653 7.94-1.948 11.01-4.147l.398-.292.374-.29c5.858-4.649 4.236-8.556-2.43-6.334-4.182 1.411-7.141 3.042-8.817 4.745l-.112-.162c.65.904 1.08 1.72 1.25 2.406.437 1.525-.175 2.648-1.365 2.866-1.079.198-2.181-.464-2.312-1.574-.13-1.176.286-2.39 1.232-3.571l.022-.024c-1.613-2.064-4.25-4.432-6.722-6.036zm7.409 6.993l-.077-.115-.019.024c-.667.906-.943 1.79-.851 2.616.057.485.588.804 1.138.704.547-.1.83-.568.624-1.454l-.044-.17c-.112-.447-.374-.993-.771-1.605z"/>
</svg>
