<svg xmlns="http://www.w3.org/2000/svg" width="96" height="96" viewBox="0 0 96 96">
    <g fill="none" fill-rule="evenodd">
        <path fill="#222" fill-rule="nonzero" d="M38.354 66.04a43.414 43.414 0 0 1-6.528-7.166c.07-8.183-1.209-18.685-7.832-27.912a15.82 15.82 0 0 1 1.43-3.244c2.311-3.947 6.216-6.636 11.293-7.778 3.73-.84 6.49.024 8.208 2.567.881 1.306 1.391 2.913 1.614 4.57-.248.274-.484.552-.703.833-2.973 3.782-3.324 6.779-2.721 8.195.24.566.658.919 1.145.968.327.03.958-.047 1.576-.944 1.214-1.76 1.966-5.297 1.618-8.723 2.87-3.012 7.387-5.322 11.365-4.366 4.187 1.003 7.171 5.42 8.631 12.775 1.881 9.478-6.788 18.567-14.391 24.522-4.081 3.197-8.352 5.872-12.032 7.868a44.084 44.084 0 0 1-2.673-2.165m-7.17 6.113c-.234-.334-.05-2.4.129-4.4.18-2.024.406-4.553.487-7.418a44.279 44.279 0 0 0 8.36 8.334c-4.738 2.495-8.33 3.78-8.975 3.484m-7.118-29.768c-1.045-3.502-1.162-7.07-.389-10.286 5.781 8.413 7.172 17.84 7.25 25.49-4.168-6.186-5.939-12.115-6.86-15.204M45.1 35.622c-.258.374-.548.584-.75.562-.153-.015-.304-.172-.413-.428-.53-1.245.058-4.06 2.6-7.294a5.84 5.84 0 0 1 .115-.145c.15 2.923-.52 5.809-1.552 7.305M91.377 78.51c-21.101 1.983-37.74-1.287-49.557-9.726 13.937-7.617 28.978-20.693 26.506-33.144-1.935-9.756-6.125-12.71-9.299-13.47-4.08-.978-8.653 1.17-11.727 4.125-.274-1.56-.799-3.052-1.635-4.29-1.337-1.978-4.01-4.093-9.144-2.939-5.325 1.198-9.43 4.033-11.868 8.2-.522.89-.958 1.834-1.308 2.819-3.42-4.488-8.161-8.642-14.692-12.036a.447.447 0 0 0-.412.794c6.638 3.45 11.387 7.708 14.764 12.306-1.016 3.558-.965 7.569.206 11.49.99 3.315 2.94 9.845 7.715 16.516-.039 3.32-.3 6.245-.504 8.518-.302 3.397-.382 4.598.123 5.102 1.23 1.23 8.575-2.552 10.4-3.52 9.777 7.124 22.824 10.71 38.944 10.71 3.696 0 7.557-.188 11.572-.566a.447.447 0 0 0 .403-.487.438.438 0 0 0-.487-.402"/>
        <path d="M0 0h96v96H0z"/>
    </g>
</svg>
