<svg xmlns="http://www.w3.org/2000/svg" width="96" height="96" viewBox="0 0 96 96">
    <g fill="none" fill-rule="evenodd">
        <path d="M0 0h96v96H0z"/>
        <path stroke="#222" d="M49.806 75.183c13.342 0 32.598-1.111 33.417-5.426 1.652-8.712-1.47-44.614-4.023-47.168-2.554-2.554-61.128-2.447-61.652 3.438-1.659 18.598 25.191 33.639 27.82 33.966 2.629.327 39.034-30.234 38.629-32.259-1.108-5.529-65.668-7.849-68.522-4.995-2.854 2.854-2.35 46.236.204 48.79 1.289 1.29 60.51 4.81 60.906 4.12.904-1.583-26.629-19.172-28.664-19.172-3.994 0-35.39 12.346-35.918 15.813-.298 1.953 24.46 2.893 37.803 2.893z"/>
    </g>
</svg>
