<svg xmlns="http://www.w3.org/2000/svg" width="134" height="132" viewBox="0 0 134 132">
    <g fill="none" fill-rule="evenodd">
        <path d="M26.153.301l107.703 26.853-26.128 104.792L.025 105.093z"/>
        <path fill="#222" fill-rule="nonzero" d="M105.19 46.784c.282.455.424 1.318.46 2.61l.01.627.28.166c1.92 1.155 2.903 2.133 2.864 3.067-.022.532-.846 1.195-2.674 2.295l-.805.475-.106 1.098-.117 1.125c-1.392 12.901-4.86 30.592-7.282 35.777-.782 1.676-3.785 2.23-8.741 1.955l.008.011-.024-.002.13.192c.701 1.05.88 1.647.487 2.048-.363.37-3.891-.551-12.159-3.046l-6.414-1.956a254.13 254.13 0 0 1-8.52-1.97c-6.844-1.706-15.536-4.118-22.52-6.272l-1.288-.4c-3.67-1.152-6.713-2.188-8.958-3.063l-.72-.286-.594-.244c-2.563-1.074-3.632-1.79-3.277-2.631.29-.686 1.377-1.277 3.259-1.89l.323-.105.016-.316c.586-10.718 8.915-43.31 12.062-45.142 1.361-.793 9.256.734 20.636 3.772l2.245.607 1.072.198c17.59 3.292 39.06 9.223 40.347 11.3zM87.729 95.888l-.327-.027c-2.086-.177-4.442-.477-7.013-.887l2.304.675 1.778.511 1.471.413c.45.125.859.235 1.225.332l.957.246.525.124c-.188-.347-.497-.814-.92-1.387zM28.8 77.445l-.202.065c-1.271.433-2.081.84-2.337 1.138.104.104.286.238.54.391.52.313 1.306.688 2.336 1.116l.699.284.79.307c1.787.682 4.042 1.46 6.687 2.31l1.771.562 2.05.634a462.009 462.009 0 0 0 14.659 4.194l-6.15-1.978c-11.767-3.823-20.097-6.78-20.527-7.475-.197-.318-.294-.826-.316-1.548zm38.236-3.457l-.04.017c-2.801 1.036-4.72 1.582-5.222 1.39-.711-.272-1.984-1.25-3.531-2.68l-1.315.11c-8.099.705-19.826 2.396-26.103 4.029l-.34.09-.651.18c.002.718.069 1.19.169 1.352.369.596 15.66 5.736 32.647 11.07l3.241 1.013 5.423 1.677c5.952 1.266 11.306 2.163 15.573 2.562l-.586-.723c-4.742-5.755-14.997-16.34-19.265-20.087zm37.173-17.233l.01-.1c-8.963 5.05-26.64 13.3-36.155 16.947l.705.633c5.144 4.685 14.628 14.572 18.838 19.823l.472.6.195.253.186.014c4.889.33 7.859-.144 8.413-1.33 2.38-5.098 5.861-22.914 7.223-35.738l.124-1.202-.01.1zM53.45 33.69l-1.566-.363c-5.853-1.332-9.786-1.935-10.454-1.547-2.72 1.585-10.962 33.848-11.561 44.278 6.265-1.739 18.872-3.566 27.397-4.272a77.255 77.255 0 0 1-7.779-8.907l-.482-.66-.499-.702C41.921 52.078 39.16 42.85 41.94 34.88c.588-1.685 4.624-1.987 11.51-1.191zm11.783 38.948c-.834-.208-2.869-.195-5.592-.02l.46.402c.895.76 1.608 1.266 2.042 1.432.348.133 1.834-.31 4.077-1.152-.477-.389-.817-.62-.987-.662zm-.173-35.949l-1.49-.41-1.626-.29c-11.198-1.955-18.498-2.266-19.02-.77-2.653 7.604.02 16.536 6.439 25.734 2.789 3.998 6.478 8.098 9.254 10.728l1.161-.077c2.749-.167 4.815-.17 5.7.052.29.072.914.518 1.778 1.245l1.103-.436c8.963-3.59 25.299-11.189 34.188-16.054l1.093-.605.696-.395c.117-1.32.199-2.512.244-3.556l.017-.438.02-.82c-6.527-3.62-22.442-9.13-38.802-13.698l-.755-.21zm40.584 14.51l-.013.376a68.675 68.675 0 0 1-.148 2.568l-.047.624a25.443 25.443 0 0 0 1.611-1.037l.327-.244c.25-.197.394-.326.392-.285.017-.4-.704-1.117-2.122-2.003zM77.688 39.233l-1.362-.313 2.124.657c11.24 3.517 21.064 7.152 26.163 9.86-.033-1.127-.145-1.871-.31-2.138-.783-1.262-13.22-4.953-26.615-8.066z"/>
    </g>
</svg>
