<svg xmlns="http://www.w3.org/2000/svg" width="64" height="64" viewBox="0 0 64 64">
    <path fill="#222" fill-rule="nonzero" d="M32.136 9.005c4.974.132 7.602 2.926 7.783 7.176l.008.248.009-.001-.003.128.192.06c2.649.842 4.554 2.44 5.487 4.904l.085.234.077.232c.952 3.013-1.107 8.852-4.964 15.39l-.188.318a66.316 66.316 0 0 1-3.533 5.337c2.097.292 3.856.615 5.298.98 3.206.81 4.834 1.822 4.591 3.234-.404 2.349-2.1 3.78-5.08 4.543-2.237.572-5.009.781-9.556.809l-1.11.003c-8.163 0-15.206-2.5-15.55-5.371-.294-2.444 3.72-4.35 9.226-4.874-3.972-6.603-7.908-16.552-7.504-21.42.605-7.288 7.609-12.12 14.732-11.93zm-6.837 33.99l-.282.024c-5.168.485-8.908 2.183-8.674 4.13.287 2.385 7.045 4.784 14.888 4.784 10.49 0 14.439-1.01 15.09-4.8.153-.891-1.23-1.751-4.097-2.476l-.251-.062c-1.455-.354-3.228-.668-5.34-.955-2.267 2.979-4.336 5-5.502 5.172-1.4.206-3.6-2.233-5.832-5.817zm6 .042a34.033 34.033 0 0 0-5.23-.098c2.098 3.302 3.993 5.356 4.965 5.214.931-.137 2.766-1.94 4.83-4.613a132.824 132.824 0 0 0-3.659-.414zM18.07 20.991c-.3 3.607 1.793 10.206 5.09 16.77l.279.547a60.976 60.976 0 0 0 2.23 3.985 34.608 34.608 0 0 1 5.695.08c1.82.175 3.475.358 4.969.554a65.523 65.523 0 0 0 3.717-5.575c3.88-6.5 5.977-12.356 5.089-15.166-.767-2.427-2.484-4-4.968-4.853l-.257-.085v.034c-.195 3.487-1.96 7.16-4.196 8.734l-.144.097c-1.297 1.734-3.41 2.49-6.014 1.955l-.224-.049c-3.501-.81-4.84-3.299-4.002-6.302.74-2.659 3.05-5.042 5.412-5.442 2.846-.482 5.877-.546 8.515.099-.1-4.001-2.465-6.579-7.142-6.703-6.8-.18-13.477 4.425-14.05 11.32zm7.808 1.3l-.017.085c-.478 2.422.698 4.316 3.625 4.994 1.756.406 3.24.186 4.37-.541-3.656.949-6.713-.632-7.724-3.52a5.563 5.563 0 0 1-.21-.767l-.044-.252zm4.956-4.629c-1.638.16-2.844.789-3.563 1.686l-.134.178c-.69.981-.837 2.246-.376 3.563.955 2.728 3.975 4.142 7.605 2.89.174-.06.349-.138.521-.23l.171-.098.052-.033.024-.033c2.42-3.47.327-8.376-4.3-7.923zm.023-.73a3.994 3.994 0 0 0-.486.115c.13-.02.263-.035.398-.049 4.542-.445 6.936 3.674 5.739 7.319l-.039.112c1.506-1.73 2.629-4.514 2.778-7.174l.009-.195-.08-.02c-2.552-.64-5.528-.58-8.319-.108z"/>
</svg>
