<svg xmlns="http://www.w3.org/2000/svg" width="96" height="96" viewBox="0 0 96 96">
    <path fill="#222" fill-rule="nonzero" d="M61.995 34.616c-3.157-.582-8.035-1.046-14.327-1.444l-2.777-.166-1.985-.105c-9.21-.458-17.554-.494-19.84-.007-.792.168-1.505.887-2.147 2.102l-.638-.127-.582-.126a18.473 18.473 0 0 1-1.202-.308c-.34-.102-.61-.2-.8-.29l-.106-.054c-.056-.031-.078-.044-.086-.014l-.003.044c.15-1.724 9.31-9.12 14.791-11.65 2.509-1.158 12.408-1.253 24.523-.442l1.502.104 1.49.112c4.196.327 8.16.734 11.288 1.16l.936.134c.908.135 1.731.273 2.443.404l.347.065c.514 2.506-5.966 7.568-12.827 10.608zm-5.625 1.958c-3.676.882-12.44.836-22.167.047l-.552-.045c-4.194-.351-8.135-.81-11.111-1.295l-.607-.102c.432-.76.88-1.21 1.34-1.307 2.368-.504 12.013-.413 22.068.16l.99.059c5.302.319 10.076.766 13.485 1.202l.42.054c-1.31.507-2.615.927-3.866 1.227zm19.46-12.362l.532.12.293.074c.402.104.628.185.643.23.696 1.97-.34 35.304-1.334 37.99-1.34 3.62-4.897 8.116-8.822 10.452 1.82-3.632 1.59-10.762.253-15.59-.175-.632-.86-1.198-1.984-1.7l.118-2.284.207-4.58c.22-5.364.388-11.007.388-12.532 0-.538-.853-1.006-2.473-1.42 6.431-3.073 12.162-7.723 12.178-10.76zM63.946 74.431c-2.854.687-13.294.53-24.374-.293l-1.057-.08c-5.426-.422-10.37-.96-14.087-1.545l-.477-.077c-3.833-.626-6.228-1.352-6.312-1.723-.37-1.64-.034-11.31.803-19.252l.124-1.128.132-1.13c.722-5.945 1.683-10.528 2.774-13.082 2.727.504 6.453.955 10.872 1.346l1.223.105c10.055.841 19.15.907 23.035-.026 1.815-.435 3.723-1.1 5.605-1.915l.682.114.452.082c1.144.217 1.782.412 1.782.565l-.006 1.066-.01.868c-.068 4.368-.331 11.126-.677 17.079-3.029-1.048-8.174-1.771-14.65-2.18l-.61-.038c-9.221-.549-17.645-.23-18.778.902-2.88 2.881-5.412 13.63-2.19 15.073 3.299 1.48 34.102.967 35.662-.592.626-.627 1.081-4.672 1.488-11.753.618.303.99.618 1.079.939 1.491 5.388 1.49 14.23-1.235 16.236l-.149.1c-.367.137-.735.25-1.101.339zm.424-18.015l-.158 2.47-.145 2.019c-.295 3.87-.615 6.662-.91 6.958-1.21 1.21-31.585 1.714-34.547.387-2.319-1.04.025-10.989 2.49-13.453.808-.809 9.303-1.13 18.01-.612l1.096.07c6.326.426 11.46 1.216 14.164 2.16zm1.113 18.581c4.986-1.895 9.758-7.543 11.417-12.023 1.074-2.898 2.117-36.472 1.34-38.672-.135-.381-1.127-.765-2.738-1.134a.5.5 0 0 0-.394-.088c-9.685-2.079-38.655-3.63-43.235-1.517-5.888 2.718-15.374 10.394-15.374 12.6 0 .639 1.44 1.228 3.982 1.762-1.308 3.1-2.294 8.426-3.033 15.431l-.163 1.631-.111 1.221c-.644 7.354-.867 15.144-.51 16.725.376 1.67 8.174 3.006 20.28 4.002l2.561.201 1.57.112c10.592.732 20.25.843 23.105.155.258-.062.517-.136.775-.22l.387-.133a.499.499 0 0 0 .141-.053z"/>
</svg>
