<svg xmlns="http://www.w3.org/2000/svg" width="56" height="57" viewBox="0 0 56 57">
    <path fill="#222" d="M32.149 6.417c1.278 0 5.663 3.126 9.884 6.948l.446.407c4.55 4.184 7.377 7.79 7.084 9.617-.518 3.227-18.931 21.065-23.17 22.414-2.247.716-6.617 1.651-10.285 2.169l-.322.044c-4.888.665-7.8.559-8-.746-.207-1.36-.197-2.516.015-3.47l.038-.163v-.006l-.032-.073c-.88-2.07 1.039-13.401 2.29-16.33l.052-.12.052-.11c.438-.882 4.554-5.35 9.002-9.793l.782-.778 1.084-1.065c5.647-5.515 9.75-8.945 11.08-8.945zm0 .59c-1.092 0-5.26 3.494-10.706 8.81l-1.038 1.021c-4.67 4.62-9.26 9.577-9.68 10.425-1.08 2.175-2.88 12.284-2.528 15.404.75-1.486 2.19-2.104 3.808-1.81 1.704.308 3.106 1.564 3.106 2.957 0 1.6-1.3 2.481-3.081 2.398-1.453-.067-2.896-.758-3.738-1.837-.112.788-.092 1.724.073 2.806.11.713 2.776.836 6.88.312l.463-.061c3.7-.503 8.23-1.466 10.509-2.191 4.044-1.287 22.29-18.963 22.768-21.946.253-1.582-2.724-5.308-7.343-9.491l-.39-.35c-3.96-3.536-8.077-6.447-9.103-6.447zM8.499 43.465l-.033.108.05.09c.636 1.087 1.99 1.835 3.38 1.95l.16.01c1.484.069 2.47-.6 2.47-1.81 0-1.063-1.171-2.113-2.625-2.376-1.551-.281-2.86.396-3.402 2.028zm21.07-28.582c.204 0 .37.132.37.295l.017 2.184.193 9.68c.1 5.863.054 8.726-.226 9.463-.06.156-.266.244-.462.197-.196-.048-.307-.212-.247-.368l.024-.074c.233-.804.266-3.904.16-9.789l-.19-9.718c-.006-.446-.009-.834-.01-1.223v-.352c0-.163.166-.295.37-.295zm-7.173 6.788c2.028 0 4.053 1.688 3.946 3.502-.132 2.246-1.86 4.254-3.972 4.163-1.946-.248-3.456-1.831-3.628-3.82-.044-2.076 1.587-3.796 3.647-3.845zm13.997-.126c2.426 0 4.41 1.873 4.294 3.853-.05 1.005-.507 1.946-1.263 2.604-.756.658-1.746.976-2.724.88l-.143-.008c-1.844-.145-3.338-1.592-3.543-3.464-.09-.969.22-1.932.858-2.664.637-.731 1.545-1.166 2.51-1.201zM22.4 22.26l-.127.005c-1.675.109-2.982 1.53-2.947 3.218.147 1.693 1.445 3.053 3.093 3.265 1.733.074 3.224-1.659 3.339-3.611.084-1.437-1.643-2.877-3.358-2.877zm13.998-.127l-.144.01c-.748.066-1.444.42-1.942.992-.531.609-.79 1.412-.716 2.215.178 1.625 1.507 2.875 3.144 2.943l.156.012c.782.035 1.55-.232 2.146-.75.635-.553 1.018-1.343 1.06-2.19.096-1.626-1.604-3.231-3.709-3.231l.005-.001z"/>
</svg>
