<svg xmlns="http://www.w3.org/2000/svg" width="64" height="64" viewBox="0 0 64 64">
    <path fill="#000" fill-rule="nonzero" d="M28.425 5.424c.77-.702 1.653-.514 2.423.398.037.044.074.09.11.137l.079.105c.19-.05.385-.09.582-.117l.148-.019c2.182-.242 3.954.937 4.545 3.58.473 2.114-.816 3.738-2.738 4.325l-.13.037.031.254c.296 2.577.3 5.337-.04 7.926l-.043.3.074.014c1.567.34 2.56 1.007 3.042 1.95l.055.115c.074.162.132.327.175.494l.041.182.123.056c.93.435 1.514.99 1.606 1.66l.01.096c.032.502-.017.936-.145 1.516l-.117.498c-.154.665-.16.828-.061 1.02l.052.07c.31.4 1.912 2.348 2.623 3.414 1.673 2.509 2.682 5.168 2.788 8.13.19 5.35-2.362 13.86-5.018 15.279-4.172 2.228-12.793 1.382-15.448-1.444-.44-.468-.68-.923-.738-1.351l-.003-.025-.137-.071a5.097 5.097 0 0 1-.508-.32l-.171-.126c-2.034-1.557-3.247-4.846-3.301-10.363-.044-4.402 2.729-10.97 4.537-12.511.095-.081.122-.344.087-1.106l-.046-.863c-.038-.829-.023-1.384.076-2.004.458-2.878 2.687-4.514 7.56-4.55.785-.007 1.491.033 2.122.117l.065.009.04-.288c.324-2.475.327-5.112.057-7.583l-.042-.357-.054.008c-.869.12-1.82.044-2.773-.267l-.159-.054c-2.395-.85-3.789-6.074-1.38-8.27zM39.49 55.041c.06-2.044-4.27-3.455-9.53-3.384a21.52 21.52 0 0 0-3.305.284l-.062.01-.039.1c-.618 1.557-1.166 2.393-1.655 2.446l-.049.002h-.078a5.749 5.749 0 0 1-1.448-.15l-.097-.026.043.082c.079.142.186.29.322.445l.086.093c2.435 2.593 10.728 3.407 14.648 1.313.376-.202.756-.581 1.128-1.098l.04-.057-.004-.06zm-2.653-29.168l-.002.068a4.589 4.589 0 0 1-.434 1.659c-.545 1.182-2.205 1.882-4.094 2.1l-.201.02-.017.095a291.433 291.433 0 0 1-2.22 10.392l-.374 1.578-.303 1.24c-.83 3.365-1.574 6.04-2.243 7.96l-.088.246.175-.025a22.633 22.633 0 0 1 2.606-.21l.308-.005c4.94-.067 9.12 1.088 10.026 3.146l.046.113.03-.054c1.667-3.034 3.024-8.533 2.946-12.383l-.006-.225c-.1-2.824-1.067-5.37-2.677-7.783l-.147-.215c-.818-1.167-2.486-3.18-2.565-3.332-.2-.388-.2-.603-.003-1.45l.072-.307c.153-.636.212-1.058.18-1.54-.025-.379-.357-.73-.918-1.037l-.097-.05zM25.81 52.112l-.087.02a7.695 7.695 0 0 0-1.509.518c-.564.274-.915.569-1.046.9l-.017.048.036.014c.438.151.887.211 1.39.22h.273c.138 0 .44-.494.824-1.391l.136-.329zm4.997-29.336h-.254c-4.567.034-6.504 1.456-6.907 3.988-.09.568-.104 1.089-.068 1.88l.055 1.033c.037.893-.016 1.174-.287 1.426l-.043.037c-1.652 1.409-4.344 7.787-4.302 11.998.052 5.33 1.193 8.427 3.039 9.84.112.085.222.163.331.233l.173.105.009-.022c.188-.449.61-.85 1.241-1.179l.13-.065c.558-.271 1.267-.495 2.084-.665l.09-.018.013-.035c.086-.236.174-.486.264-.75l.068-.202.173-.531c.673-2.1 1.434-4.915 2.23-8.22a284.037 284.037 0 0 0 2.497-11.473l.076-.39-.179.004c-2.59.051-5.296-.758-6.015-2.43l-.056-.141c-.688-1.95 1.55-3.25 5.388-3.164.468.01.928.032 1.376.064l.506.041.173-1.075.025-.172-.032-.004c-.444-.06-.934-.096-1.47-.109l-.328-.004zm-.265 1.926c-3.446-.078-5.213.949-4.744 2.274.525 1.488 3.123 2.196 5.557 2.125l.194-.008.06-.318c.223-1.166.427-2.284.609-3.326l.11-.645-.036-.003a25.223 25.223 0 0 0-1.526-.093l-.224-.006zm2.577.19l-.127-.016-.21 1.211c-.126.714-.262 1.46-.407 2.228l-.138.724.144-.016c1.539-.193 2.869-.722 3.356-1.588l.06-.115c.249-.54.397-1.137.37-1.71l-.002-.029-.094-.034c-.794-.282-1.81-.507-2.952-.655zm.236-1.873l-.06-.013-.14.882-.052.323.131.016c.978.123 1.87.304 2.63.54l.135.043-.043-.104c-.362-.793-1.195-1.38-2.6-1.687zM30.338 6.252c-.549-.65-1.01-.749-1.464-.335-2.02 1.842-.788 6.46 1.153 7.15.842.298 1.678.39 2.44.313l.236-.03-.04-.275c-.15-.99-.344-1.94-.58-2.83l-.104-.377-.079-.27-.053-.173-.108.02c-1.379.234-2.723-.069-3.074-.897l-.035-.095c-.246-.772.497-1.605 1.597-2.103l.141-.061-.03-.037zm3.909.925l.002.015c.144.906-.518 1.642-1.655 2.037l-.1.033.044.14.082.284c.28.987.51 2.053.684 3.166l.052.353.099-.031c1.528-.5 2.529-1.769 2.234-3.388l-.027-.132c-.241-1.079-.69-1.865-1.287-2.374l-.128-.103zm-3.418-.21l-.068-.114-.035.013c-.939.364-1.59.98-1.461 1.385.146.46 1.126.701 2.202.56l.169-.026-.07-.193c-.23-.63-.48-1.178-.737-1.625zm2.452-.273a3.704 3.704 0 0 0-1.44-.103c-.099.01-.196.025-.293.043l-.128.025.076.134c.238.436.464.943.676 1.512l.115.324.008-.002c1.128-.359 1.577-1.011 1.104-1.826l-.053-.086-.065-.02z"/>
</svg>
