<svg xmlns="http://www.w3.org/2000/svg" width="57" height="56" viewBox="0 0 57 56">
    <path fill="#222" fill-rule="nonzero" d="M28.52 7.323c10.653.455 18.693 9.502 19.007 19.05.403 12.25-7.582 21.071-19.335 21.02-6.13-.028-10.66-1.663-12.513-4.404l-.105-.159-.003-.003-.238-.132c-4.957-2.813-7.311-7.575-7.451-13.5l-.005-.283-.002-.29c0-4.601 1.408-9.713 3.123-12.633l.116-.194.108-.171c3.86-6 8.46-8.677 17.298-8.3zm-16.67 8.404l-.136.21-.106.168-.111.187c-1.66 2.83-3.038 7.836-3.039 12.33 0 5.782 2.09 10.434 6.644 13.258a5.072 5.072 0 0 1-.231-2.682c.67-3.848 4.187-8.536 7.88-10.793a7.28 7.28 0 0 1-2.631-6.46c.451-4.064 4.122-6.566 7.28-6.513 3.714.063 7.256 2.68 7.366 7.547.046 2.056-1.096 4.108-2.883 5.466 4.452 2.25 8.471 6.788 8.222 10.083-.298 3.959-4.566 7.014-12.307 6.953-4.384-.034-8.019-.725-10.944-2.022l-.068-.03c2.023 2.092 6.07 3.356 11.408 3.38 11.413.05 19.143-8.488 18.75-20.417-.304-9.256-8.115-18.045-18.45-18.486-8.513-.363-12.921 2.139-16.644 7.821zm11.403 13.054c-3.602 2.112-7.153 6.762-7.808 10.517-.184 1.058-.023 2.058.474 2.967l.071.124.302.159c2.878 1.458 6.557 2.263 11.084 2.344l.427.006c7.46.058 11.448-2.796 11.72-6.414.235-3.1-3.824-7.56-8.187-9.66a7.665 7.665 0 0 1-4.206 1.22 7.28 7.28 0 0 1-3.877-1.263zm3.503-1.134c-.924.01-1.918.307-2.921.816.987.611 2.126.96 3.307.997a7.053 7.053 0 0 0 3.55-.927c-1.34-.569-2.69-.9-3.936-.886zm.635-11.632h-.147c-2.851.03-6.137 2.327-6.545 5.995a6.697 6.697 0 0 0 2.596 6.083c1.176-.64 2.356-1.018 3.455-1.03 1.42-.014 2.957.385 4.467 1.063l.07.033c1.782-1.244 2.94-3.214 2.895-5.167-.1-4.51-3.36-6.918-6.79-6.977z"/>
</svg>
