<svg xmlns="http://www.w3.org/2000/svg" width="96" height="96" viewBox="0 0 96 96">
    <g fill="none" fill-rule="evenodd">
        <path d="M0 0h96v96H0z"/>
        <path d="M0 0h96v96H0z"/>
        <path stroke="#000" stroke-linecap="round" stroke-linejoin="round" d="M16 23.979s4.34-9.887 4.828-9.979c.488-.09 6.892 10.315 5.633 10.381A57.18 57.18 0 0 1 16 23.98c5.526-4.48 18.616-9.979 31.283-9.569 21.672.702 35.61 16.79 35.6 33.292-.013 18.023-16.393 31.36-35.333 33.874-14.54 1.93-24.04-9.082-26.116-15.24-1.127-3.343-2.35-26.761.245-29.829 2.307-2.726 9.115-8.91 10.85-9.632 1.966-.819 36.641-2.742 34.893 3.352 0 0 1.097 28.537-.11 29.964-1.207 1.426-8.367 8.907-9.658 9.329-3.33 1.088-3.769-28.17-.545-31.074.973-.877 8.658-9.112 9.435-9.207"/>
        <path stroke="#000" stroke-linecap="round" stroke-linejoin="round" d="M19.459 68.313c-3.459-1.318-2.305-30.732 1.28-31.5 4.205-.901 36.512.365 37.508 2.56.68 1.498.447 24-1.302 30.094-.67 2.334-34.11.131-37.486-1.154z"/>
    </g>
</svg>
