<svg xmlns="http://www.w3.org/2000/svg" width="56" height="56" viewBox="0 0 56 56">
    <path fill="#222" fill-rule="nonzero" d="M24.423 8.935c1.397-.38 7.034-.642 8.364-.353.707.153 1.54 2.584 2.47 6.626l.207.917.073-.026c3.077-1.102 6.215-1.816 7.178-1.702l.062.01.056.01c1.194.315 4.996 7.017 4.697 8.063l-.025.077c-.118.31-.438.675-1.275 1.484l-1.132 1.08c-.882.848-1.363 1.37-1.45 1.584l-.01.027-.005.023.017.13c.057.494.047.977-.015 1.605l-.023.215-.076.653c-.054.51-.056.694-.032.731l.005.005a50.466 50.466 0 0 1 1.739 1.114l.062.043c.781.552 1.36 1.073 1.694 1.581.25.379.36.75.3 1.108-.118.709-1.047 2.591-2.152 4.414l-.11.182c-1.38 2.247-2.452 3.552-3.109 3.398l-.187-.046c-.227-.063-.41-.148-1.081-.5l-.603-.318c-.428-.226-.74-.379-1.047-.507a4.227 4.227 0 0 0-1.097-.319c-.157-.031-3.287 1.903-3.692 2.358-.06.067-.106.336-.147.901l-.085 1.308-.004.05c-.123 1.483-.397 2.341-1.086 2.655-1.297.589-8.746.43-9.414-.165-.266-.235-.329-.628-.347-1.899l-.009-1.096c-.017-1.221-.096-1.881-.185-1.904-.375-.125-.845-.384-1.577-.843l-1.224-.775c-.584-.361-.794-.467-.898-.467-.283 0-.92.269-1.98.815l-1.606.844c-.155.08-.29.149-.414.21l-.09.043c-.648.312-.923.405-1.147.255-.587-.391-4.864-7.619-4.97-8.731-.052-.548.425-1.135 1.378-1.91l.133-.106c.186-.148.388-.301.617-.47l1.859-1.36c.441-.33.379-.306.391-.376.154-.847.038-2.781-.327-3.557-.12-.257-.514-.627-1.187-1.136l-.376-.278-1.35-.967c-.891-.647-.962-.748-1.063-1.027-.159-.435.697-2.33 1.844-4.298l.096-.164c1.437-2.437 2.579-3.786 3.321-3.356 1.687.976 4.421 2.006 4.786 1.675.315-.303.67-.57 1.077-.825l.142-.085c.511-.297 1.569-.842 1.71-.928.344-.212.481-.371.481-.518 0-2.041.641-4.853 1.848-5.182zm8.24.217c-1.233-.268-6.776-.011-8.086.346-.81.221-1.419 2.885-1.419 4.619 0 .378-.223.663-.656.949l-.103.066c-.182.111-1.455.766-1.848 1.011a5.96 5.96 0 0 0-.988.756c-.68.618-3.46-.43-5.476-1.597-.242-.14-1.3 1.101-2.432 2.99l-.262.446c-.97 1.689-1.79 3.504-1.727 3.679l.014.033c.07.139.3.328 1.155.944l1.039.744.092.068c.938.684 1.46 1.153 1.656 1.57.424.9.547 2.953.373 3.91-.045.25-.293.492-.825.899l-1.205.877-.272.195-.338.25c-.158.118-.303.23-.438.337-.87.69-1.32 1.22-1.293 1.503.085.892 3.866 7.32 4.62 8.21l.045.05.049-.013.04-.013c.106-.036.246-.094.42-.176l.288-.14c.063-.03.13-.065.202-.101l.395-.206 1.001-.529.487-.252c1.017-.52 1.623-.77 2.02-.792l.059-.002c.26 0 .426.065 1.267.592l1.286.815c.622.387 1.03.608 1.31.702.471.118.575.578.6 2.107l.012 1.268c.015 1.068.064 1.57.152 1.648.47.419 7.679.573 8.786.07.392-.179.62-.844.73-2.003l.037-.438.066-1.088c.053-.754.115-1.04.294-1.241.531-.598 3.817-2.628 4.221-2.546.377.047.78.167 1.23.356.244.102.488.218.782.367l1.23.645c.476.244.574.273.814.33.637.15 4.407-5.992 4.662-7.523.032-.194-.037-.425-.212-.69-.286-.434-.817-.913-1.544-1.427l-.205-.14a62.918 62.918 0 0 0-1.596-1.016l-.066-.05c-.254-.204-.251-.398-.114-1.538l.017-.142c.096-.796.124-1.337.06-1.909l-.018-.142.004.037c-.075-.408.265-.818 1.62-2.111l.92-.874c.94-.902 1.315-1.313 1.375-1.522.209-.732-3.408-7.107-4.282-7.337-.61-.153-3.588.497-6.566 1.528l-.533.19.194.923c.935 4.527 1.609 9.174 1.609 11.368 0 3.944-2.765 7.321-7.193 7.93-6.733.937-11.96-6.112-9.426-12.186l.08-.184.084-.184c1.164-2.417 3.53-3.892 6.282-4.167l.203-.018.158-.113c1.965-1.387 4.383-2.61 7.019-3.623l.312-.118-.156-.697c-.365-1.6-.731-3.008-1.07-4.106l-.073-.23c-.418-1.31-.81-2.114-.949-2.144zm2.373 7.752l-.227.087c-2.348.902-4.518 1.973-6.332 3.172 1.334.05 2.617.395 3.679.997l.197.116.16.103c4.328 2.856 4.703 9.666.969 12.514-1.797 1.332-4.471 1.709-6.717.915-2.55-.9-4.197-3.123-4.365-6.385-.138-2.767 1.331-5.286 4.084-7.524-2.147.42-3.953 1.656-4.932 3.545l-.087.174-.082.175c-2.531 5.697 2.393 12.434 8.736 11.551 4.132-.568 6.69-3.692 6.69-7.352 0-2.194-.701-6.971-1.66-11.558l-.113-.53zm-3.173 4.76c-1.12-.633-2.516-.958-3.947-.922l-.289.012-.17.126c-2.876 2.15-4.463 4.544-4.482 7.141l.001.186.007.186c.155 3.027 1.65 5.043 3.977 5.865 2.064.73 4.535.382 6.171-.832 3.404-2.595 3.06-8.91-.926-11.551l-.16-.102-.182-.108z"/>
</svg>
