<svg xmlns="http://www.w3.org/2000/svg" width="96" height="96" viewBox="0 0 96 96">
    <g fill="none" fill-rule="evenodd">
        <path d="M0 0h96v96H0z"/>
        <path stroke="#222" d="M17.814 21.82C10.62 22.936 7.5 29.6 7.5 43.499s5.063 16.267 17.56 14.59c13.4-1.8 2.928-5.506.678-5.506-8.221 0 5.456 16.378 11.677 19.422 6.221 3.044-6.547-12.122-3.502-13.71 3.044-1.588 11.33.058 15.963-2.325 4.633-2.382 5.705-28.52-1.864-32.43-5.317-2.747-20.8-3.174-30.198-1.718z"/>
        <path stroke="#222" d="M77.006 32.051c6.858 1.068 10.718 5.233 10.484 18.546-.177 10.044-2.177 15.52-14.134 16.757-9.502.983-10.092 10.116-17.156 11.793-5.272 1.252 5.591-10.739 2.689-12.26-2.902-1.522-8.297-1.377-12.45-4.194-5.633-3.821-4.725-24.455 2.49-28.202 5.07-2.632 19.117-3.835 28.077-2.44z"/>
        <path d="M0 0h96v96H0z"/>
    </g>
</svg>
