<svg xmlns="http://www.w3.org/2000/svg" width="56" height="57" viewBox="0 0 56 57">
    <path fill="#222" d="M26.736 7.42c.794-.872 1.576-.992 2.052-.116l.09.172c.218.43.48 1.047.834 1.944l.295.758c.31.808 1 2.612 1.244 3.235l.23.585c.301.756.576 1.417.838 2.016l.098.222c.928 2.085 1.7 3.323 2.242 3.54l.074.026c.452.144 1.539.226 3.862.314l3.183.117.81.036c2.132.101 3.682.233 4.865.438 1.761.305 2.649.765 2.383 1.588-.486 1.503-6.766 6.635-10.83 8.77l-.223.115.022.052c1.973 4.922 3.76 14.658 2.879 15.89l-.032.04-.034.031-.07.042c-1.201.551-3.01-.376-6.716-2.985l-1.627-1.15c-3.384-2.375-4.606-3.031-5.228-2.7-.556.297-1.136.636-1.747 1.019-.888.556-1.812 1.185-2.9 1.964l-2.098 1.531-1.211.888-.425.305c-.886.634-1.561 1.088-2.158 1.442-1.807 1.072-2.93 1.199-3.3.013-.308-.991.06-2.68 1.29-6.577l.905-2.838c1.2-3.804 1.55-5.35 1.27-5.988l-.017-.036c-.273-.54-1.031-1.109-4.217-3.17l-1.997-1.287-.683-.446c-1.52-1-2.547-1.737-3.301-2.393-1.182-1.027-1.62-1.82-.994-2.387 1.856-1.68 10.044-2.56 15.106-1.928l.397.053.008-.003.02-.217c.24-2.44 1.203-5.83 2.435-8.728l.143-.332.14-.316c.718-1.591 1.446-2.838 2.093-3.549zm1.54.162c-.237-.435-.546-.388-1.109.23-.597.657-1.297 1.857-1.992 3.397-1.34 2.971-2.417 6.634-2.669 9.187l-.024.266.09.017c.47.091.876.2 1.208.324.689.257 1.097 1.023 1.053 1.8-.047.839-.606 1.433-1.475 1.366-1.067-.081-1.526-1.149-1.49-2.914l.004-.103c-4.85-.724-13.341.14-15.087 1.72-.221.202.06.71.986 1.515l.216.184c.786.654 1.872 1.414 3.47 2.455l3.078 1.988c2.424 1.58 3.128 2.122 3.472 2.67l.062.105.037.071c.453.897.053 2.526-1.595 7.65l-.445 1.39c-1.23 3.885-1.633 5.647-1.37 6.488.193.621.883.563 2.304-.259l.14-.082c.544-.322 1.162-.734 1.958-1.3l1.018-.738c.74-.543 2.098-1.54 2.573-1.883l.598-.428c.97-.69 1.816-1.262 2.634-1.774.622-.39 1.213-.735 1.782-1.038l.096-.047c.983-.44 2.243.297 6.528 3.338l.63.448c3.508 2.481 5.356 3.463 6.26 3.121l.052-.022h.006c.68-.564-1.028-10.074-2.882-14.944l-.136-.344c-.424.197-.814.354-1.17.47-1.272.415-2.235-.15-2.479-1.25-.225-1.014.247-2.135 1.204-2.6.942-.456 1.84.527 2.745 2.585 3.924-2.006 10.293-7.192 10.724-8.526.087-.27-.534-.592-1.928-.833-1.206-.21-2.825-.342-5.087-.444l-4.303-.163c-2.147-.089-3.066-.176-3.52-.358-.726-.29-1.505-1.509-2.462-3.629l-.097-.215c-.329-.739-.671-1.567-1.059-2.548l-.716-1.85c-.342-.893-.701-1.831-.783-2.042l-.227-.578c-.359-.902-.617-1.493-.823-1.873zm7.79 21c-.701.34-1.057 1.186-.888 1.948.17.766.787 1.128 1.728.822.267-.087.556-.2.866-.336l.26-.119-.067-.151c-.745-1.653-1.428-2.393-1.899-2.164zM22.452 21.25v.022c-.031 1.481.305 2.266.95 2.316.516.039.819-.283.849-.817.03-.54-.247-1.062-.675-1.222-.257-.096-.57-.183-.932-.26l-.192-.039z"/>
</svg>
