<svg xmlns="http://www.w3.org/2000/svg" width="56" height="57" viewBox="0 0 56 57">
    <path fill="#222" d="M12.832 10.827l.216-.01c3.295-.115 30.754.207 31.25.406.28.111.525.232.839.441.47.313.917.725 1.321 1.255 1.09 1.428 1.708 3.492 1.665 6.303-.035 2.279-1.515 3.81-3.642 4.151l-.14.02.014.323c.105 3.453-.215 20.243-.49 21l-.01.02c-.39.567-2.626.664-3.095.059l-.053-.085c-.104-.197-.12-.263.055-3.712l.214-4.186.076-1.696c.142-3.5.129-5.577-.068-5.85-.528-.733-7.183-.765-8.815-.183-.199.071-.38 2.553-.443 6.373l-.03 3.664-.018 3.835c-.022 1.953-.082 1.762-.33 1.757l-.159.01c-1.58.064-18.857-.083-19.346-.232-.435-.132-.564-2.098-.638-6.888l-.034-2.827c-.024-3.058-.013-6.36.017-6.64.024-.233.538-.372 1.616-.448l.153-.01-.07-3.794-.108-.01-.17-.019-.174-.025c-3.461-.556-4.465-2.102-4.56-5.56-.047-1.732 3.683-7.536 4.902-7.45l.055.008zm5.194 8.428l-.236.638c-.21.558-.375.937-.607 1.37-.84 1.567-1.997 2.522-3.596 2.627l-.116.006.069 3.752.439-.015c.864-.024 1.94-.028 3.245-.02l2.453.025c3.924.056 7.16.207 7.699.393 1.512.52 1.63 11.01.43 11.676-.765.424-13.498.57-14.18.056l-.024-.023c-.31-.348-.447-2.772-.592-9.474l-.041-2.003-.107.005c-.167.009-.32.018-.457.028l-.254.02-.212.022-.088.012-.091.014-.01.74c-.01 1.092-.012 3.005 0 4.921l.02 2.267.02 1.403c.027 1.463.062 2.736.109 3.757l.031.63c.032.574.068 1.036.108 1.377l.025.195c.013.089.025.165.038.227l.014.063.245.015c2.41.11 16.37.226 18.572.189l.095-.003.012-.118.013-.187c.006-.103.011-.221.016-.355l.022-.875c.008-.45.012-.983.016-1.793l.022-4.205.015-1.295c.065-4.596.243-6.574.83-6.783 1.855-.662 8.75-.628 9.484.391.344.477.343 2.758.127 7.382l-.076 1.554-.25 5.036c-.051 1.148-.052 1.507-.024 1.561.136.26 1.97.195 2.141-.053.172-.25.502-18.286.406-20.82l-.007-.147-.086.001c-1.774-.001-3.468-.741-4.68-2.048l-.133-.147c-.151-.185-.32-.408-.492-.652l-.045-.064-.06.148-.097.221-.102.224c-.835 1.618-2.446 2.69-4.264 2.836-2.177.15-3.583-.81-4.505-2.564-.165-.313-.397-.886-.59-1.376l-.284-.726-.21.6c-.174.479-.408 1.095-.585 1.459l-.034.07c-.864 1.672-2.238 2.63-4.403 2.607-2.057-.022-3.434-1.018-4.338-2.7-.257-.477-.573-1.318-.772-1.879l-.068-.193zm.255 8.95c-1.595-.013-3.069-.006-4.222.022l-.507.013.08 3.575c.016.643.032 1.237.049 1.795l.044 1.336c.042 1.202.088 2.172.137 2.903l.023.32c.026.35.054.631.082.84l.013.085c.008.052.015.097.023.137l.02.087.016.006c1.046.324 12.608.188 13.455-.115l.028-.012c.781-.434.67-10.268-.336-10.615l-.066-.018c-.656-.152-3.936-.296-7.695-.347l-1.144-.012zm25.801-16.44c-.357-.143-25.022-.438-30.246-.39l-.72.012.024.182c.113.96.165 3.179.26 8.36l.06 3.382h.032c1.36-.073 2.344-.848 3.094-2.175l.083-.15c.218-.406.375-.767.578-1.305l.277-.75c.2-.528.243-.544.47-.576.123-.017.23.028.311.108.12.118.722 1.933 1.075 2.588.81 1.508 2.007 2.373 3.83 2.393 1.928.02 3.11-.804 3.878-2.292.293-.567.834-2.16.85-2.194.12-.254.252-.403.478-.414.198-.01.338.103.452.287.092.15.67 1.742.959 2.29.822 1.565 2.025 2.386 3.945 2.255 1.614-.13 3.046-1.083 3.783-2.512.132-.28.248-.556.349-.822l.04-.11-.07-.114c-.123-.2-.238-.402-.34-.597l-.097-.193c-.27-.555-.408-1.025-.382-1.406.036-.519.38-.843.972-.884.656-.044.963.536.92 1.419-.022.474-.14 1.041-.346 1.662l-.013.037.025.039c.203.308.413.6.6.837l.108.136c1.142 1.309 2.81 2.038 4.54 1.986 2.144-.116 3.645-1.48 3.679-3.64.041-2.686-.538-4.622-1.545-5.942-.364-.476-.764-.844-1.182-1.123-.275-.183-.486-.287-.73-.385zm-31.56-.331c-.348.255-1.26 1.328-2.129 2.667l-.223.35c-1.018 1.626-1.729 3.173-1.712 3.802l.013.342c.14 2.956 1.027 4.17 4.057 4.658l.169.024.18.02-.104-5.572c-.028-1.35-.054-2.407-.081-3.309l-.045-1.296c-.019-.471-.038-.858-.059-1.162l-.025-.337-.021-.202-.02.015zm25.545 5.886c-.309.021-.415.122-.43.342-.018.255.096.64.324 1.11.058.12.123.243.192.368l.028.05.026-.097c.076-.297.126-.573.148-.82l.01-.144c.026-.547-.083-.791-.262-.808h-.036z"/>
</svg>
