<svg xmlns="http://www.w3.org/2000/svg" width="96" height="96" viewBox="0 0 96 96">
    <g fill="none" fill-rule="evenodd">
        <path d="M0 0h96v96H0z"/>
        <path d="M0 0h96v96H0z"/>
        <path stroke="#000" d="M87.8 56.424c-.659-2.018-4.727-5.76-14.8-9.106-4.59-1.526-7.924-17.334-21.357-17.334-7.09 0-13.29-.247-7.067 9.521 2.697 4.233-2.255 9.549 14.004 8.744 10.757-.532-.523-19.277-5.456-21.554-4.932-2.277-37.44-2.594-41.85 1.138-4.409 3.732-3.362 39.028-2.54 39.724.822.696 9.59 4.18 13.989 2.548 4.743-1.76 2.46-5.606-4.863-3.708-7.324 1.898-2.889 11.154 5.182 9.795 8.071-1.36 9.712-13.74-.6-13.74-10.314 0-7.794 7.62-1.85 9.183 3.362.884 28.361-1.02 36.623-1.02 12.217 0 18.175-1.215 13.422-4.082-5.535-3.338-5.496 10.323.482 9.659 5.979-.665 6.847-13.017.992-14.437-8.627-2.093-14.853 7.403-8.769 10.04 6.084 2.638 21.992-2.717 23.113-3.666 1.12-.948 1.419-9.023.455-10.952-1.927-3.856-9.684-3.882-7.613-.273 2.07 3.609 10.062 4.3 8.503-.48z"/>
    </g>
</svg>
