<svg xmlns="http://www.w3.org/2000/svg" width="64" height="64" viewBox="0 0 64 64">
    <path fill="#222" d="M30.348 7.76c2.13-.562 4.492.06 6.474 2.113 1.876 1.942 2.584 3.9 2.265 5.49 2.753.352 6.169.797 6.621.84l.097.005c1.45.132 2.207 5.861 2.6 15.496l.034.885.05 1.497c.205 6.783.11 13.327-.236 14.116-.402.915-2.253 2.537-3.923 3.402-.977.505-1.849.743-2.546.638-.52-.079-.92-.343-1.18-.781-.386 1.245-1.028 1.741-2.105 1.689-.655-.032-3.893-1.07-5.26-1.522l-.606-.204-.495-.145c-2.18-.62-4.38-1.061-6.854-1.317l-.33-.036c-4.921-.548-7.818-1.742-9.29-3.66-1.105-1.44-1.348-2.773-1.325-5.837l.014-1.085.004-.767c.028-4.818 1.104-15.03 2.068-19.542-.14-.289-.227-.645-.26-1.053-.1-1.211.294-2.677.928-3.333.505-.523 1.818-.76 3.937-.802l-.004.008.052-.123c.63-1.462 1.355-2.531 2.388-3.349 2.788-2.205 5.031-3.022 6.801-2.602zm-9.942 9.652l-.046.114c-.53 1.226-1.047 1.854-1.874 2.187-.635.255-1.156.218-1.544-.045-.871 4.593-1.919 14.646-1.919 19.097v.187l-.018 1.477c-.021 2.916.203 4.148 1.187 5.43 1.371 1.787 4.204 2.926 9.161 3.44l.575.063c2.473.289 4.689.766 6.903 1.424-.157-.046 4.95 1.661 5.7 1.698.94.046 1.39-.487 1.67-2.253l.045-.309c-.056-1.222.079-3.274.522-8.06l.664-6.92.377-3.985.26-2.953c.485-5.78.57-8.704.222-9.064-.34-.352-.884-.296-2.3.21l-1.08.397-.358.123c-1.507.495-2.403.496-3.095-.22-.161-.168-.296-.414-.425-.772-.974.186-2.11.233-3.399.11-.331-.033-.65-.065-1-.105l-.922-.108-6.176-.802c-1.24-.155-2.281-.276-3.13-.36zm18.484-1.4l-.016.041c-.482 1.138-1.566 2.02-3.186 2.471.086.226.169.378.25.462.49.508 1.272.458 2.751-.067l.181-.065.927-.343.35-.122c1.454-.495 2.06-.496 2.623.088.625.647.486 4.138-.326 12.878l-1.028 10.748-.27 3.056c-.208 2.5-.272 3.837-.235 4.705.008.032.008.065.004.1v-.02c.007.13.016.25.027.362l.017.14c.104.716.416 1.06.925 1.137.528.08 1.276-.125 2.14-.571 1.546-.801 3.29-2.328 3.619-3.078.314-.716.391-8.437.118-15.636l-.063-1.518-.047-.975c-.153-3.052-.363-5.751-.624-7.888l-.08-.627-.064-.453c-.354-2.432-.803-3.878-1.103-3.961l-.34-.035c-.99-.114-4.08-.514-6.55-.83zm-19.183 1.335c-1.302-.114-1.998-.117-2.103-.009-.148.153-.32.708-.503 1.55.23.343.605.42 1.136.206.577-.232.985-.698 1.409-1.608zm2.086-2.84l-.312.001-.128.334-.158.432-.359 1.017-.17.468c.794.082 1.752.197 2.905.343l4.961.651c.475.062.878.113 1.234.157l1.097.128 1.038.104c1.113.092 2.094.052 2.936-.098-.023-.086-.047-.176-.07-.27l-.062-.252-.463-2.076-.723-.082-1.445-.156c-4.248-.448-7.726-.698-10.28-.701zm13.151 1.02l.409 1.838.1.4.037.133c1.358-.37 2.275-1.067 2.711-1.974l-.121-.015-3.136-.382zM20.761 14.52c-1.76.054-2.874.265-3.189.591-.422.437-.736 1.463-.755 2.404.107-.32.21-.54.307-.64.274-.284 1.043-.344 2.854-.183.044-.114.09-.235.136-.362l.462-1.307.185-.503zm15.582-4.185c-1.522-1.576-3.28-2.228-4.948-2.082.153.096.303.203.448.322 1.345 1.106 2.145 2.94 2.859 5.887l.087.374 2.186.261c.423.052.915.114 1.448.182.306-1.397-.352-3.154-2.08-4.944zm-6.068-1.86l-.039.011c-2.11.675-3.93 2.673-4.724 5.708l.06-.22c2.17.134 4.7.363 7.555.676l.96.106c-.69-2.89-1.45-4.665-2.667-5.666-.348-.285-.728-.492-1.145-.615zm-1.419-.107l-.14.017c-1.322.191-2.916 1.001-4.836 2.52-.897.71-1.549 1.646-2.121 2.934.927 0 1.974.033 3.132.096.713-2.645 2.184-4.561 3.965-5.567z"/>
</svg>
