<svg xmlns="http://www.w3.org/2000/svg" width="24" height="24" viewBox="0 0 24 24">
    <g fill="none" fill-rule="evenodd">
        <path fill="#222" fill-rule="nonzero" d="M4 11.991c0-.259.096-.483.289-.671L5.698 9.94a.97.97 0 0 1 .704-.283.97.97 0 0 1 .704.283l3.034 2.97 6.754-6.628A.97.97 0 0 1 17.598 6a.97.97 0 0 1 .704.283l1.41 1.378a.928.928 0 0 1 .288.69c0 .259-.096.483-.289.671l-8.885 8.695a.948.948 0 0 1-.686.283.97.97 0 0 1-.704-.283L4.289 12.68A.928.928 0 0 1 4 11.991z"/>
        <path d="M0 0h24v24H0z"/>
    </g>
</svg>
