<svg xmlns="http://www.w3.org/2000/svg" width="24" height="24" viewBox="0 0 24 24">
    <path fill="#222" d="M19.313 2.937c.966 0 1.75.784 1.75 1.75v14.625c0 .966-.784 1.75-1.75 1.75H4.688c-.967 0-1.75-.784-1.75-1.75V4.687c0-.966.783-1.75 1.75-1.75h14.625zm0 1.25H4.688c-.276 0-.5.224-.5.5v14.625c0 .276.224.5.5.5h14.625c.275 0 .5-.224.5-.5V4.687c0-.276-.225-.5-.5-.5zM16.01 7.733c.214-.27.607-.316.878-.102.27.214.316.607.102.878l-5.875 7.433c-.093.123-.207.23-.339.318-.647.434-1.524.26-1.95-.375L6.99 13.277c-.199-.282-.131-.672.151-.87.282-.2.672-.132.87.15l1.847 2.62c.05.074.15.094.221.046.018-.011.032-.025.05-.047z"/>
</svg>
