<svg xmlns="http://www.w3.org/2000/svg" width="24" height="24" viewBox="0 0 24 24">
    <g fill="none" fill-rule="evenodd">
        <path fill="#222" fill-rule="nonzero" d="M10.202 2.147c2.175-.894 4.65-.046 5.815 1.9.347-.111.71-.17 1.083-.172 1.985 0 3.6 1.583 3.6 3.542 0 1.748-1.287 3.197-2.975 3.488v10.678c0 .346-.28.625-.625.625H6.9a.625.625 0 0 1-.625-.625V10.905C4.587 10.615 3.3 9.165 3.3 7.417c0-1.96 1.615-3.542 3.604-3.542.368.003.732.061 1.08.172a4.639 4.639 0 0 1 2.218-1.9zm6.272 16.727h-8.95l.001 2.084h8.95l-.001-2.084zM15.149 5.091c-.727-1.7-2.73-2.504-4.472-1.788A3.372 3.372 0 0 0 8.85 5.091a.625.625 0 0 1-.867.307A2.356 2.356 0 0 0 6.9 5.125c-1.3 0-2.35 1.029-2.35 2.292S5.6 9.708 6.9 9.708c.345 0 .625.28.625.625l-.001 7.291h1.3l.001-2.707c0-.314.231-.574.533-.619l.092-.006c.314 0 .574.23.618.532l.007.093-.001 2.707h1.3l.001-3.54c0-.314.231-.574.533-.619l.092-.007c.314 0 .574.232.618.533l.007.092-.001 3.541h1.301v-2.707c0-.314.231-.574.533-.619l.092-.006c.314 0 .574.23.618.532l.007.093v2.707h1.299l.001-7.29c0-.314.231-.574.533-.619l.092-.007c1.3 0 2.35-1.028 2.35-2.291 0-1.262-1.048-2.29-2.348-2.292a2.36 2.36 0 0 0-1.086.273.625.625 0 0 1-.867-.307z"/>
        <path d="M0 0h24v24H0z"/>
    </g>
</svg>
