<svg xmlns="http://www.w3.org/2000/svg" width="24" height="24" viewBox="0 0 24 24">
    <g fill="none" fill-rule="evenodd">
        <path fill="#222" fill-rule="nonzero" d="M16.446 14.737L11.987 10.5 7.53 14.737a.835.835 0 0 1-.625.263.92.92 0 0 1-.65-.263.892.892 0 0 1-.254-.645c0-.254.085-.478.255-.67l5.095-5.159A.92.92 0 0 1 12 8c.246 0 .454.088.624.263l5.096 5.158c.187.193.28.417.28.671a.85.85 0 0 1-.28.645.835.835 0 0 1-.624.263.92.92 0 0 1-.65-.263z"/>
        <path d="M0 0h24v24H0z"/>
    </g>
</svg>
