<svg xmlns="http://www.w3.org/2000/svg" width="24" height="24" viewBox="0 0 24 24">
    <g fill="none" fill-rule="evenodd">
        <path fill="#222" fill-rule="nonzero" d="M15.237 7.554L11 12.013l4.237 4.458c.175.17.263.378.263.625a.92.92 0 0 1-.263.65.892.892 0 0 1-.645.254.985.985 0 0 1-.67-.255L8.762 12.65A.92.92 0 0 1 8.5 12c0-.246.088-.454.263-.624l5.158-5.096a.936.936 0 0 1 .671-.28.85.85 0 0 1 .645.28c.175.17.263.378.263.624a.92.92 0 0 1-.263.65z"/>
        <path d="M0 0h24v24H0z"/>
    </g>
</svg>
