<svg xmlns="http://www.w3.org/2000/svg" width="24" height="24" viewBox="0 0 24 24">
    <g fill="none" fill-rule="evenodd">
        <path fill="#222" fill-rule="nonzero" d="M8.763 16.446L13 11.987 8.763 7.53a.835.835 0 0 1-.263-.625.92.92 0 0 1 .263-.65A.892.892 0 0 1 9.408 6c.254 0 .478.085.67.255l5.159 5.095a.92.92 0 0 1 .263.65.835.835 0 0 1-.263.624l-5.158 5.096a.936.936 0 0 1-.671.28.85.85 0 0 1-.645-.28.835.835 0 0 1-.263-.624.92.92 0 0 1 .263-.65z"/>
        <path d="M0 0h24v24H0z"/>
    </g>
</svg>
