<svg xmlns="http://www.w3.org/2000/svg" width="24" height="24" viewBox="0 0 24 24">
    <g fill="none" fill-rule="evenodd">
        <path fill="#222" fill-rule="nonzero" d="M12 21c-1.23 0-2.39-.24-3.48-.72a9.09 9.09 0 0 1-2.866-1.934 9.09 9.09 0 0 1-1.933-2.866A8.532 8.532 0 0 1 3 12c0-1.23.24-2.39.72-3.48a9.09 9.09 0 0 1 1.934-2.866A9.09 9.09 0 0 1 8.52 3.721C9.61 3.24 10.77 3 12 3s2.39.24 3.48.72a9.09 9.09 0 0 1 2.866 1.934 9.09 9.09 0 0 1 1.933 2.866C20.76 9.61 21 10.77 21 12s-.24 2.39-.72 3.48a9.09 9.09 0 0 1-1.934 2.866 9.09 9.09 0 0 1-2.866 1.933c-1.09.48-2.25.721-3.48.721zm0-16.805a7.584 7.584 0 0 0-3.041.616c-.95.41-1.775.966-2.479 1.67a7.896 7.896 0 0 0-1.67 2.478A7.584 7.584 0 0 0 4.196 12c0 1.078.205 2.092.616 3.041.41.95.966 1.775 1.67 2.479a7.896 7.896 0 0 0 2.478 1.67c.95.41 1.963.615 3.041.615a7.584 7.584 0 0 0 3.041-.616 7.896 7.896 0 0 0 2.479-1.67 7.896 7.896 0 0 0 1.67-2.478c.41-.95.615-1.963.615-3.041a7.584 7.584 0 0 0-.616-3.041 7.896 7.896 0 0 0-1.67-2.479 7.896 7.896 0 0 0-2.478-1.67A7.584 7.584 0 0 0 12 4.196zm-.475 1.442h1.073v6.96h-1.073v-6.96zm-4.798 6.011h5.748v1.073H6.727v-1.073z"/>
        <path d="M0 0h24v24H0z"/>
    </g>
</svg>
