<svg xmlns="http://www.w3.org/2000/svg" width="24" height="24" viewBox="0 0 24 24">
    <g fill="none" fill-rule="evenodd">
        <path d="M0 0h24v24H0z"/>
        <path fill="#222" fill-rule="nonzero" d="M6.295 6.295a1.008 1.008 0 0 1 1.427 0L12 10.574l4.278-4.279a1.009 1.009 0 0 1 1.332-.084l.095.084a1.008 1.008 0 0 1 0 1.427L13.426 12l4.279 4.278c.363.364.391.936.084 1.332l-.084.095a1.008 1.008 0 0 1-1.427 0L12 13.426l-4.278 4.279a1.009 1.009 0 0 1-1.332.084l-.095-.084a1.008 1.008 0 0 1 0-1.427L10.574 12 6.295 7.722a1.009 1.009 0 0 1-.084-1.332z"/>
    </g>
</svg>
