<?xml version="1.0" encoding="UTF-8"?>
<svg xmlns="http://www.w3.org/2000/svg" xmlns:xlink="http://www.w3.org/1999/xlink" width="154pt" height="29pt" viewBox="0 0 154 29" version="1.1">
<g id="surface1">
<path style=" stroke:none;fill-rule:nonzero;fill:rgb(0%,0%,0%);fill-opacity:1;" d="M 19.550781 11.742188 C 19.25 9.738281 17.746094 8.734375 15.539062 8.734375 C 12.230469 8.734375 10.929688 11.644531 10.929688 14.550781 C 10.929688 17.457031 12.230469 20.367188 15.539062 20.367188 C 17.945312 20.367188 19.351562 18.960938 19.550781 16.757812 L 24.664062 16.757812 C 24.363281 21.871094 20.652344 24.777344 15.640625 24.777344 C 9.625 24.777344 5.816406 20.265625 5.816406 14.550781 C 5.816406 8.835938 9.726562 4.324219 15.640625 4.324219 C 19.851562 4.324219 24.464844 7.03125 24.664062 11.742188 Z M 19.550781 11.742188 "/>
<path style=" stroke:none;fill-rule:nonzero;fill:rgb(81.568627%,45.098039%,14.509804%);fill-opacity:1;" d="M 65.871094 24.375 L 65.871094 13.046875 L 60.957031 24.375 L 58.25 24.375 L 53.539062 13.046875 L 53.539062 24.375 L 48.425781 24.375 L 48.425781 4.726562 L 55.242188 4.726562 L 59.855469 15.851562 L 64.667969 4.726562 L 70.882812 4.726562 L 70.882812 24.375 Z M 65.871094 24.375 "/>
<path style=" stroke:none;fill-rule:nonzero;fill:rgb(0%,0%,0%);fill-opacity:1;" d="M 139.460938 24.878906 C 136.152344 24.878906 133.046875 23.675781 131.640625 22.773438 L 133.847656 18.761719 C 135.152344 19.5625 137.558594 20.664062 139.761719 20.664062 C 141.066406 20.664062 142.671875 20.464844 142.671875 18.960938 C 142.671875 17.65625 140.867188 17.257812 138.460938 16.554688 C 135.652344 15.753906 132.242188 14.652344 132.242188 10.742188 C 132.242188 6.628906 135.953125 4.324219 140.664062 4.324219 C 143.875 4.324219 146.28125 5.425781 147.484375 6.628906 L 144.777344 9.738281 C 143.371094 8.9375 142.070312 8.335938 140.464844 8.335938 C 138.558594 8.335938 137.558594 9.035156 137.558594 10.039062 C 137.558594 11.042969 138.960938 11.542969 140.664062 12.144531 C 143.671875 13.046875 147.785156 14.050781 147.785156 17.960938 C 147.882812 22.070312 144.675781 24.878906 139.460938 24.878906 "/>
<path style=" stroke:none;fill-rule:nonzero;fill:rgb(0%,0%,0%);fill-opacity:1;" d="M 86.726562 4.726562 L 86.726562 16.554688 C 86.726562 19.0625 85.824219 20.367188 83.316406 20.367188 C 80.808594 20.367188 79.90625 19.0625 79.90625 16.554688 L 79.90625 5.527344 C 79.90625 5.125 79.507812 4.726562 79.105469 4.726562 L 74.695312 4.726562 L 74.695312 16.253906 C 74.695312 21.96875 77.300781 24.777344 83.316406 24.777344 C 89.332031 24.777344 91.9375 21.96875 91.9375 16.253906 L 91.9375 4.726562 Z M 86.726562 4.726562 "/>
<path style=" stroke:none;fill-rule:nonzero;fill:rgb(0%,0%,0%);fill-opacity:1;" d="M 123.921875 4.726562 L 123.921875 16.554688 C 123.921875 19.0625 123.019531 20.367188 120.511719 20.367188 C 118.007812 20.367188 117.105469 19.0625 117.105469 16.554688 L 117.105469 5.527344 C 117.105469 5.125 116.703125 4.726562 116.300781 4.726562 L 111.890625 4.726562 L 111.890625 16.253906 C 111.890625 21.96875 114.496094 24.777344 120.511719 24.777344 C 126.429688 24.777344 129.136719 21.96875 129.136719 16.253906 L 129.136719 4.726562 Z M 123.921875 4.726562 "/>
<path style=" stroke:none;fill-rule:nonzero;fill:rgb(0%,0%,0%);fill-opacity:1;" d="M 39.601562 4.726562 L 39.601562 16.554688 C 39.601562 19.0625 38.699219 20.367188 36.195312 20.367188 C 33.6875 20.367188 32.785156 19.0625 32.785156 16.554688 L 32.785156 5.527344 C 32.785156 5.125 32.382812 4.726562 31.984375 4.726562 L 27.570312 4.726562 L 27.570312 16.253906 C 27.570312 21.96875 30.179688 24.777344 36.195312 24.777344 C 42.210938 24.777344 44.816406 21.96875 44.816406 16.253906 L 44.816406 4.726562 Z M 39.601562 4.726562 "/>
<path style=" stroke:none;fill-rule:nonzero;fill:rgb(0%,0%,0%);fill-opacity:1;" d="M 109.082031 19.964844 L 100.660156 19.964844 L 100.660156 5.527344 C 100.660156 5.125 100.261719 4.726562 99.859375 4.726562 L 95.449219 4.726562 L 95.449219 22.46875 C 95.449219 23.574219 96.351562 24.476562 97.453125 24.476562 L 109.785156 24.476562 L 109.785156 20.867188 C 109.886719 20.367188 109.484375 19.964844 109.082031 19.964844 "/>
</g>
</svg>
