<svg xmlns="http://www.w3.org/2000/svg" width="24" height="24" viewBox="0 0 24 24">
    <g fill="none" fill-rule="evenodd">
        <path fill="#222" fill-rule="nonzero" d="M9.84 15.459c.014.071.018.622.01 1.653a623.99 623.99 0 0 1-.054 4.486.286.286 0 0 1-.087.215c-.015 0-.24.115-.676.344-.435.229-1.176.343-2.222.343-1.031 0-1.74-.118-2.125-.354s-.599-.376-.642-.419A.416.416 0 0 1 4 21.555v-6.01c0-.029.04-.154.12-.376.08-.222.272-.461.577-.72.16-.128.334-.239.523-.332.19-.093.29-.147.305-.16h.022l-.196-3.242h.784L4.37 2.557a.253.253 0 0 1 .033-.193.239.239 0 0 1 .164-.107.299.299 0 0 1 .207.032c.065.036.105.09.12.16l1.786 8.266v-1.76c.015-.587.022-1.178.022-1.772V5.391c0-.601.007-1.202.022-1.803 0-.072.025-.136.076-.194a.239.239 0 0 1 .185-.085c.073 0 .135.028.185.085.051.058.077.122.077.194v3.51c0 .58-.008 1.155-.022 1.728v1.717L9.099 1.72a.274.274 0 0 1 .109-.172.239.239 0 0 1 .196-.043c.073.015.13.054.174.118a.26.26 0 0 1 .044.204l-1.874 8.888h.806v.021l-.196 3.22h.044c.014 0 .029.007.043.022l.262.16c.174.108.341.233.5.376.219.2.371.38.458.537.088.157.146.293.175.408zm-.589 6.01c.015-.572.03-1.18.044-1.824 0-.658.004-1.274.01-1.846.008-.573.012-1.066.012-1.481v-.73a1.184 1.184 0 0 0-.12-.258 2.192 2.192 0 0 0-.36-.43 3.132 3.132 0 0 0-.337-.246 5.227 5.227 0 0 1-.273-.183h-.719l1.133 5.238a.287.287 0 0 1-.032.204.23.23 0 0 1-.164.118H8.38a.279.279 0 0 1-.164-.053.248.248 0 0 1-.098-.161l-.915-4.165c0 .959-.004 1.921-.01 2.887-.008.966-.012 1.943-.012 2.93 0 .086-.029.154-.087.205a.293.293 0 0 1-.196.075.254.254 0 0 1-.185-.075.273.273 0 0 1-.076-.204c0-.945.003-1.886.01-2.823.008-.938.011-1.872.011-2.802l-.98 4.616a.248.248 0 0 1-.098.16.279.279 0 0 1-.164.054h-.065a.23.23 0 0 1-.163-.118.287.287 0 0 1-.033-.204l1.242-5.882H5.7a6.422 6.422 0 0 0-.295.161 2.397 2.397 0 0 0-.36.247c-.202.158-.337.308-.402.451l-.12.258v5.86c.044.029.098.06.163.097.066.036.157.082.273.14.16.057.392.117.697.182.305.064.69.096 1.155.096.48 0 .882-.028 1.21-.086a4.42 4.42 0 0 0 .773-.193c.101-.043.192-.082.272-.118.08-.036.142-.068.185-.096zm7.43-13.588a.793.793 0 0 1-.054-.665c.08-.23.222-.401.425-.516a.919.919 0 0 1 .676-.043.862.862 0 0 1 .523.43.88.88 0 0 1 .043.665.781.781 0 0 1-.436.494.826.826 0 0 1-.675.054.835.835 0 0 1-.501-.419zm.524-.258a.23.23 0 0 0 .163.14c.08.021.156.018.229-.01a.298.298 0 0 0 .142-.183.342.342 0 0 0-.011-.226.301.301 0 0 0-.186-.14.23.23 0 0 0-.207.033.26.26 0 0 0-.152.161.248.248 0 0 0 .022.225zm2.462-.3a.97.97 0 0 1 .283.44.93.93 0 0 1 .022.526 1.067 1.067 0 0 1-.327.43.901.901 0 0 1-.501.192.903.903 0 0 1-.48.88.9.9 0 0 1-.544.086.92.92 0 0 1-.48-.214.853.853 0 0 1-.446.29c-.182.05-.367.053-.556.01a1 1 0 0 1-.425-.322.915.915 0 0 1-.185-.493l-.458.386c-.29.272-.475.54-.555.805a1.78 1.78 0 0 0-.076.74h2.418c.044 0 .091.011.142.033.05.021.09.053.12.096.029.043.043.09.043.14 0 .05-.007.104-.022.16l-.588 1.482a1.24 1.24 0 0 0-.054.709c.05.243.163.458.337.644.407.4.723.89.948 1.47.225.58.338 1.191.338 1.835 0 .444-.054.873-.163 1.288a4.675 4.675 0 0 1-.49 1.181c-.19.315-.411.601-.665.859a3.305 3.305 0 0 1-.84.622v.43a.307.307 0 0 1-.097.225.316.316 0 0 1-.229.097h-2.31a.281.281 0 0 1-.218-.097.326.326 0 0 1-.087-.225v-.43a3.305 3.305 0 0 1-.839-.622 4.547 4.547 0 0 1-.664-.859 4.675 4.675 0 0 1-.49-1.18 5.052 5.052 0 0 1-.164-1.289c0-.644.113-1.255.338-1.835.225-.58.54-1.07.948-1.47.174-.186.286-.401.337-.644.051-.244.026-.48-.076-.709l-.588-1.481a.412.412 0 0 1-.011-.161.33.33 0 0 1 .054-.14.28.28 0 0 1 .11-.096.341.341 0 0 1 .152-.032h1.7v-.108c0-.343.076-.68.228-1.009.153-.329.36-.615.621-.858l.175-.15-.131-.13a.573.573 0 0 1-.11-.15.864.864 0 0 1-.086-.536.893.893 0 0 1 .218-.473.97.97 0 0 1-.284-.44 1 1 0 0 1-.021-.547.959.959 0 0 1 .337-.419.98.98 0 0 1 .49-.182.945.945 0 0 1 .11-.526.861.861 0 0 1 .392-.376.817.817 0 0 1 .523-.086.845.845 0 0 1 .479.236c.13-.143.283-.243.458-.3a.885.885 0 0 1 .98.311c.116.15.174.319.174.505a.858.858 0 0 1 .534.086.86.86 0 0 1 .382.386c.087.157.116.33.087.515-.03.186-.102.35-.218.494zm-2.79 7.427a1.765 1.765 0 0 1-.5-.933 1.778 1.778 0 0 1 .109-1.063l.414-1.052h-3.814l.436 1.052c.087.229.13.469.13.72 0 .25-.05.49-.152.718h-.021c0 .015-.04.09-.12.226-.08.136-.17.254-.273.354a3.465 3.465 0 0 0-.806 1.266c-.189.501-.283 1.03-.283 1.589 0 .773.178 1.478.534 2.115.356.636.824 1.09 1.405 1.363l.033.01c.022.008.04.018.054.033.03.014.051.035.066.064a.25.25 0 0 0 .043.064.188.188 0 0 1 .022.086v.365h1.656v-.386l.022-.022v-.021c0-.014.004-.022.01-.022.008 0 .012-.007.012-.021l.021-.022v-.021h.022v-.021h.022v-.022l.065-.064h.044c.581-.272 1.053-.727 1.416-1.363a4.193 4.193 0 0 0 .545-2.115c0-.558-.098-1.088-.294-1.589-.196-.5-.469-.93-.817-1.288zm2.528-6.633a.43.43 0 0 0-.076-.311.45.45 0 0 0-.25-.183.328.328 0 0 1-.131-.107.539.539 0 0 1-.066-.129.345.345 0 0 1 .153-.28.704.704 0 0 0 .229-.256c.05-.1.054-.194.01-.28-.028-.085-.101-.139-.217-.16a.629.629 0 0 0-.37.053.35.35 0 0 1-.153.011.22.22 0 0 1-.13-.054.322.322 0 0 1-.088-.14.576.576 0 0 1-.022-.16.419.419 0 0 0 .011-.312.436.436 0 0 0-.207-.246.598.598 0 0 0-.316.085.404.404 0 0 0-.185.258.557.557 0 0 1-.11.118.206.206 0 0 1-.13.054.416.416 0 0 1-.163-.032.266.266 0 0 1-.12-.097.657.657 0 0 0-.262-.247c-.101-.05-.196-.054-.283-.01-.087.042-.141.121-.163.236a.525.525 0 0 0 .054.343c.015.057.018.11.011.161a.33.33 0 0 1-.054.14.329.329 0 0 1-.142.085.239.239 0 0 1-.142 0 .459.459 0 0 0-.337 0 .488.488 0 0 0-.25.215c0 .1.028.2.086.3a.4.4 0 0 0 .262.194.268.268 0 0 1 .12.086.226.226 0 0 1 .054.15c0 .057-.01.107-.033.15a.278.278 0 0 1-.098.108.635.635 0 0 0-.25.268c-.051.107-.055.197-.011.268.029.057.069.1.12.129.05.029.105.043.163.043.058 0 .113-.004.163-.01a.82.82 0 0 0 .142-.033.28.28 0 0 1 .164-.032.25.25 0 0 1 .141.075.206.206 0 0 1 .087.118.303.303 0 0 1 0 .161c-.029.1-.025.204.011.311.037.108.106.19.207.247a.444.444 0 0 0 .305-.075.434.434 0 0 0 .196-.268.207.207 0 0 1 .088-.108.488.488 0 0 1 .152-.064c.058 0 .109.014.153.043.043.029.08.064.109.107.072.1.163.176.272.226.109.05.2.053.272.01.087-.028.142-.1.164-.214a.712.712 0 0 0-.033-.365.212.212 0 0 1-.033-.15.171.171 0 0 1 .077-.13.266.266 0 0 1 .283-.107.437.437 0 0 0 .316.011.44.44 0 0 0 .25-.204z"/>
        <path d="M0 0h24v24H0z"/>
    </g>
</svg>
