<svg xmlns="http://www.w3.org/2000/svg" width="52" height="21" viewBox="0 0 52 21">
    <g fill="none" fill-rule="evenodd">
        <path fill="#FECC00" d="M0 0H52V20H0z"/>
        <g fill-rule="nonzero">
            <path fill="#FECC00" d="M45.934 0L45.934 10.137 0 10.137 0 0 45.934 0z" transform="translate(3 4)"/>
            <path fill="#D50029" d="M14.81 4.236c-.2.271-.536.744-.74 1.02-.105.14-.292.395.33.395h3.27l.97-1.317c.6-.816.051-2.514-2.098-2.514H8.078L6.611 3.814h7.998c.404 0 .399.154.201.422zm-2.403 1.907c-.621 0-.434-.255-.33-.396l.747-1.015c.197-.268.202-.421-.202-.421H8.964L6.017 8.316h7.187c2.374 0 3.696-1.614 4.104-2.173h-4.9zm4.676 2.173H21.3l1.598-2.173h-4.216l-1.599 2.173zm10.88-6.496l-1.618 2.197h-1.882L26.08 1.82h-4.216l-2.82 3.831h10.314l2.819-3.83h-4.215zM23.18 8.316h4.215l1.6-2.173H24.78c-.002 0-1.6 2.173-1.6 2.173zM0 7v.462h5.872L6.212 7H0zm6.843-.857H0v.461h6.503l.34-.46zM0 8.316h5.243l.338-.459H0v.46zm39.746-.854h6.188V7h-5.848l-.34.462zm-.628.854h6.816v-.459h-6.48l-.336.46zm1.598-2.173l-.339.462h5.557v-.462h-5.218zm-5.521-.492l2.82-3.83H33.55L30.73 5.65h4.466zm-4.828.492l-.458.624c-.53.715-.061 1.55 1.667 1.55h6.77l1.598-2.174h-9.577z" transform="translate(3 4)"/>
        </g>
    </g>
</svg>
