<svg xmlns="http://www.w3.org/2000/svg" width="24" height="24" viewBox="0 0 24 24">
    <g fill="none" fill-rule="evenodd">
        <path fill="#222" fill-rule="nonzero" d="M12 2c5.523 0 10 4.477 10 10s-4.477 10-10 10S2 17.523 2 12 6.477 2 12 2zm5.967 8.043c-.021-.052-.097-.047-.227.013l-.924.495c-.53.269-1.096.562-1.699.879l-1.672.878c-.504.26-.786.408-.846.443a1.377 1.377 0 0 1-.3.104 1.538 1.538 0 0 1-.299.026c-.113 0-.213-.009-.3-.026a1.377 1.377 0 0 1-.299-.104c-.06-.035-.342-.183-.846-.443l-1.672-.878c-.603-.317-1.17-.61-1.699-.879l-.924-.495c-.13-.06-.206-.065-.227-.013a.436.436 0 0 0-.033.17v4.88c0 .14.074.28.221.423.148.143.295.215.443.215h10.672c.148 0 .295-.072.443-.215.147-.143.221-.284.221-.423v-4.88c0-.061-.01-.118-.033-.17zM17.636 8H6.364c-.303 0-.414.1-.331.3.082.199.206.342.37.429l.886.481 1.672.892c.594.317 1.139.61 1.633.878.495.27.764.413.807.43.078.043.17.078.274.104a1.337 1.337 0 0 0 .65 0c.105-.026.196-.06.274-.104.043-.017.312-.16.807-.43.494-.269 1.039-.561 1.633-.878l1.672-.892.886-.481a.813.813 0 0 0 .37-.43C18.05 8.1 17.94 8 17.636 8z"/>
        <path d="M0 0h24v24H0z"/>
    </g>
</svg>
