<svg xmlns="http://www.w3.org/2000/svg" width="24" height="24" viewBox="0 0 24 24">
    <path fill="#222" fill-rule="nonzero" d="M20.045 4.5c1.08 0 1.955.868 1.955 1.937v10.626c0 1.07-.876 1.937-1.955 1.937H3.955A1.947 1.947 0 0 1 2 17.063V6.437C2 5.367 2.876 4.5 3.955 4.5zm.725 2.101l-6.592 5.024a3.598 3.598 0 0 1-4.185.122l-.17-.122-6.594-5.024v10.462c0 .364.274.665.628.713l.098.006h16.09c.4 0 .726-.322.726-.719L20.77 6.601zm-.856-.884H4.085l6.487 4.943a2.36 2.36 0 0 0 2.704.107l.152-.107 6.486-4.943z"/>
</svg>
