<svg xmlns="http://www.w3.org/2000/svg" width="24" height="24" viewBox="0 0 24 24">
    <g fill="none" fill-rule="evenodd">
        <path fill="#222" fill-rule="nonzero" d="M3.601 7.093c-.247-.13-.432-.345-.556-.644-.124-.3.042-.449.498-.449h16.906c.456 0 .622.15.498.449-.123.3-.309.514-.556.644-.117.065-.56.306-1.328.723l-2.508 1.337c-.892.475-1.709.914-2.45 1.318-.742.403-1.146.618-1.21.644a1.682 1.682 0 0 1-.41.156 2.005 2.005 0 0 1-.489.059c-.17 0-.332-.02-.488-.059a1.682 1.682 0 0 1-.41-.156c-.065-.026-.468-.24-1.21-.644s-1.559-.843-2.45-1.318l-2.51-1.337c-.767-.417-1.21-.658-1.327-.723zm17.005 1.992c.195-.092.309-.098.341-.02a.653.653 0 0 1 .05.254v7.321c0 .208-.112.42-.333.634-.221.215-.442.323-.664.323H3.992c-.222 0-.443-.108-.664-.323-.221-.214-.332-.426-.332-.634v-1.113-2.489-2.509-1.21c0-.091.016-.176.049-.254.032-.078.146-.072.342.02.143.078.605.325 1.386.741.794.404 1.643.843 2.547 1.318l2.51 1.318c.754.39 1.177.612 1.268.664.17.078.319.13.45.156.13.026.279.039.448.039.17 0 .319-.013.45-.039.13-.026.279-.078.448-.156.091-.052.514-.274 1.27-.664l2.508-1.318a214.74 214.74 0 0 1 2.548-1.318l1.386-.741z"/>
        <path d="M0 0h24v24H0z"/>
    </g>
</svg>
