<svg xmlns="http://www.w3.org/2000/svg" width="24" height="24" viewBox="0 0 24 24">
    <g fill="none" fill-rule="evenodd">
        <path fill="#222" fill-rule="nonzero" d="M22.533 11.126l-.276-.291-.448-.446a23.244 23.244 0 0 0-2.226-1.749 14.824 14.824 0 0 0-2.347-1.32 10.497 10.497 0 0 0-1.742-.703 55.642 55.642 0 0 0-1.64-.463c-.276 0-.534-.014-.774-.043l-.235-.034a5.437 5.437 0 0 0-1.508-.043l-.304.043a6.088 6.088 0 0 1-1.009.077 22.66 22.66 0 0 0-1.691.463c-.54.172-1.104.406-1.69.703-.403.183-.806.383-1.209.6-.414.217-.816.454-1.207.711-.392.258-.783.535-1.174.832-.38.286-.753.594-1.121.926-.06.111-.132.208-.215.29l-.087.078c-.121.097-.216.22-.285.369-.23.285-.345.577-.345.874 0 .297.115.589.345.874.219.297.53.623.932.977.402.355.828.715 1.277 1.08a20.86 20.86 0 0 0 1.535 1.012c.518.308 1.036.586 1.553.831.518.246 1.03.46 1.536.643a11.23 11.23 0 0 0 1.553.429c.368.08.736.125 1.104.137a35.58 35.58 0 0 0 2.208 0 6.078 6.078 0 0 0 1.105-.137 12.99 12.99 0 0 0 1.553-.412 16.787 16.787 0 0 0 1.535-.608 13.697 13.697 0 0 0 1.553-.832c.518-.308 1.03-.663 1.536-1.063.517-.365.966-.725 1.346-1.08l.436-.411c.208-.199.402-.387.582-.566.218-.285.322-.577.31-.874-.011-.297-.167-.589-.466-.874zm-.88 1.028c-.287.286-.615.58-.983.883l-1.225 1.003a17.63 17.63 0 0 1-1.432.909c-.472.274-.944.517-1.415.728-.472.212-.938.386-1.398.523-.46.149-.908.263-1.346.343a6.98 6.98 0 0 1-1.009.12 24.177 24.177 0 0 1-1.812 0 6.98 6.98 0 0 1-1.009-.12c-.437-.08-.886-.194-1.346-.343a9.88 9.88 0 0 1-1.397-.54 15.574 15.574 0 0 1-1.415-.763 16.12 16.12 0 0 1-1.432-.994 13.837 13.837 0 0 1-1.2-.883 6.62 6.62 0 0 1-.726-.694l-.145-.172c-.069-.08-.103-.131-.103-.154 0-.023.034-.074.103-.154 0-.069.032-.115.095-.137a.507.507 0 0 0 .198-.155c.054-.045.103-.09.146-.133l.148-.158A13.046 13.046 0 0 1 5.037 9.59 23.474 23.474 0 0 1 7.23 8.35a10.438 10.438 0 0 1 1.604-.558 21.322 21.322 0 0 1 1.484-.334c.3-.068.57-.108.811-.12.242-.011.512-.017.811-.017l.427.004c.135.003.263.007.384.013.242.012.512.052.811.12l.248.066c.279.072.654.161 1.124.268.627.143 1.199.329 1.717.558.736.365 1.449.774 2.14 1.225.69.452 1.402.969 2.139 1.552.103.111.203.205.3.281l.096.07c.127.086.19.163.19.232l.093.205.028.069a.598.598 0 0 1 .017.171zm-9.714-3.96c-.586 0-1.133.103-1.639.309a3.944 3.944 0 0 0-1.311.857c-.437.366-.765.769-.984 1.209-.218.44-.328.917-.328 1.431s.104.997.311 1.449c.207.451.495.894.863 1.328.437.366.888.652 1.354.857.466.206.992.309 1.579.309.598 0 1.147-.103 1.648-.309.5-.205.934-.491 1.302-.857.449-.366.757-.774.923-1.226.167-.451.25-.968.25-1.551 0-.514-.103-.997-.31-1.449a5.813 5.813 0 0 0-.863-1.328c-.287-.366-.678-.629-1.173-.789a5.245 5.245 0 0 0-1.622-.24zm2.053 5.709a3.94 3.94 0 0 1-.966.531 3.006 3.006 0 0 1-1.087.206c-.368 0-.73-.069-1.087-.206a3.94 3.94 0 0 1-.966-.531 3.43 3.43 0 0 1-.673-.9A2.234 2.234 0 0 1 8.989 12c0-.366.074-.7.224-1.003a3.43 3.43 0 0 1 .673-.9 3.94 3.94 0 0 1 .966-.531 3.006 3.006 0 0 1 1.087-.206c.368 0 .73.069 1.087.206.357.137.679.314.966.531.3.297.524.597.673.9.15.303.225.637.225 1.003 0 .366-.075.7-.225 1.003a3.43 3.43 0 0 1-.673.9z"/>
        <path d="M0 0h24v24H0z"/>
    </g>
</svg>
