<svg xmlns="http://www.w3.org/2000/svg" width="20" height="20" viewBox="0 0 20 20">
    <g fill="none" fill-rule="evenodd">
        <path fill="#7DDCB4" d="M13.967 3.75c.87 0 1.631.199 2.282.596.65.406 1.153.934 1.507 1.581.354.648.545 1.379.574 2.192.029.813-.139 1.631-.502 2.454-.144.368-.433.782-.869 1.24-.435.46-.997.972-1.686 1.54l-.596.468c-.205.16-.418.321-.638.482-.402.312-.818.62-1.249.922-.43.303-.861.6-1.292.894-.153.104-.301.2-.445.29-.143.09-.277.178-.402.263-.076.047-.14.09-.193.128l-.122.085-.316.198-1.32-.808c-.69-.435-1.225-.78-1.608-1.036-.383-.255-.79-.534-1.22-.837-.737-.539-1.378-1.063-1.923-1.574-.546-.51-.981-1.017-1.306-1.518-.086-.132-.168-.267-.244-.404-.077-.137-.14-.267-.187-.39-.364-.823-.545-1.636-.545-2.44.01-.804.177-1.527.502-2.17s.804-1.163 1.435-1.56c.622-.397 1.369-.596 2.24-.596.784 0 1.48.147 2.088.44.607.293 1.126.695 1.557 1.205.076.085.143.168.2.249l.173.234c.201-.293.435-.568.703-.823.278-.255.589-.48.933-.674.345-.194.723-.347 1.134-.46.412-.114.857-.171 1.335-.171z"/>
        <path d="M0 0L20 0 20 20 0 20z"/>
    </g>
</svg>
