<?xml version="1.0" encoding="UTF-8"?>
<svg width="20px" height="20px" viewBox="0 0 20 20" version="1.1" xmlns="http://www.w3.org/2000/svg" xmlns:xlink="http://www.w3.org/1999/xlink">
    <!-- Generator: sketchtool 58 (101010) - https://sketch.com -->
    <title>50F53D3A-A833-46E9-80B2-05E4A910DCC2</title>
    <desc>Created with sketchtool.</desc>
    <g id="symbols" stroke="none" stroke-width="1" fill="none" fill-rule="evenodd">
        <g id="article-/-web-/-tile-/-vertical-/-276" transform="translate(-238.000000, -18.000000)">
            <g id="button-/-web-/-circle" transform="translate(228.000000, 8.000000)">
                <g id="icon-/-web-/-heart-/-off" transform="translate(10.000000, 10.000000)">
                    <path d="M10.8380592,15.1684397 C11.2686432,14.8847504 11.6944365,14.5939731 12.1154519,14.2960993 C12.5364673,13.9982255 12.9431239,13.6979921 13.3354337,13.3953901 C13.5555099,13.2346328 13.7636224,13.0762419 13.9597773,12.9202128 C14.1559322,12.7641836 14.3449079,12.6105209 14.52671,12.4592199 C15.1390961,11.9580353 15.6390444,11.5088672 16.02657,11.1117021 C16.4140956,10.714537 16.6556974,10.3882991 16.7513827,10.1329787 C17.0384387,9.48049319 17.1771803,8.8422017 17.1676118,8.21808511 C17.1580433,7.5845122 17.0240858,7.02187007 16.7657354,6.53014184 C16.5073851,6.03841362 16.1390021,5.64125447 15.6605755,5.33865248 C15.1725803,5.04550681 14.6080454,4.89893617 13.9669537,4.89893617 C13.4311159,4.89893617 12.9455201,4.99113383 12.5101519,5.17553191 C12.0747837,5.35993 11.6848718,5.62233872 11.3404046,5.96276596 C11.1011913,6.19917376 10.9002552,6.44503418 10.7375901,6.70035461 C10.5749251,6.95567504 10.4648886,7.16371078 10.4074774,7.32446809 L9.91948468,8.81382979 L9.33102287,7.36702128 C9.22576901,7.12115716 9.12051673,6.90602929 9.01526288,6.72163121 C8.91000902,6.53723312 8.77126738,6.34101759 8.59903379,6.13297872 C8.27370369,5.74526993 7.88379184,5.44267248 7.42928655,5.2251773 C6.97478125,5.00768213 6.44612776,4.89893617 5.84331022,4.89893617 C5.21178707,4.89893617 4.6663889,5.04550681 4.20709934,5.33865248 C3.74780978,5.63179816 3.40095568,6.01950113 3.16652664,6.50177305 C2.93209759,6.98404496 2.81966902,7.53723092 2.82923755,8.16134752 C2.83880608,8.78546411 2.99190031,9.4237556 3.28852481,10.0762411 C3.32679894,10.1708043 3.37224879,10.270094 3.42487572,10.3741135 C3.47750265,10.4781329 3.54208927,10.5821508 3.61863753,10.6861702 C3.89612498,11.1117043 4.28603683,11.5585083 4.78838478,12.0265957 C5.29073274,12.4946832 5.88158076,12.9745838 6.56094656,13.4663121 C6.97239346,13.768914 7.36469741,14.043143 7.73787018,14.2890071 C8.11104294,14.5348712 8.63730434,14.8705652 9.31667014,15.2960993 L10.005601,15.7216312 C10.129992,15.6365244 10.2615573,15.5490548 10.400301,15.4592199 C10.5390447,15.3693849 10.6849627,15.2724591 10.8380592,15.1684397 Z M13.9669537,3.75 C14.8376901,3.75 15.5983771,3.94857957 16.2490373,4.34574468 C16.8996975,4.7523661 17.4020379,5.27954759 17.7560736,5.92730496 C18.1101093,6.57506234 18.3014771,7.30555149 18.3301827,8.11879433 C18.3588883,8.93203716 18.1914415,9.75 17.8278372,10.572695 C17.6843092,10.9414912 17.3948655,11.3551987 16.9594973,11.8138298 C16.524129,12.2724609 15.9619862,12.7854582 15.2730518,13.3528369 C15.0816812,13.5041379 14.8831371,13.6601647 14.6774137,13.820922 C14.4716902,13.9816793 14.2587936,14.1424342 14.0387173,14.3031915 C13.636839,14.6152498 13.220614,14.9225753 12.7900301,15.2251773 C12.3594461,15.5277793 11.9288686,15.8256487 11.4982846,16.1187943 C11.3451881,16.2228138 11.1968781,16.3197395 11.0533501,16.4095745 C10.9098221,16.4994094 10.7758647,16.586879 10.6514738,16.6719858 C10.5749255,16.7192674 10.5103389,16.7618201 10.4577119,16.7996454 C10.405085,16.8374706 10.3644194,16.8658391 10.3357138,16.8847518 L10.0199538,17.0833333 L8.69950288,16.2748227 C8.01056854,15.8398323 7.47473876,15.4946821 7.09199746,15.2393617 C6.70925616,14.9840413 6.30259963,14.7050843 5.87201567,14.4024823 C5.13523867,13.8634725 4.49415661,13.338655 3.94875026,12.8280142 C3.4033439,12.3173733 2.96798221,11.8114682 2.6426521,11.3102837 C2.55653531,11.1778953 2.475204,11.0431449 2.39865574,10.9060284 C2.32210748,10.7689118 2.25991295,10.6388895 2.21207029,10.5159574 C1.84846606,9.6932583 1.66666667,8.88002766 1.66666667,8.07624113 C1.6762352,7.27245461 1.84368201,6.54905759 2.16901211,5.90602837 C2.49434222,5.26299915 2.97276166,4.74290979 3.60428481,4.34574468 C4.22623942,3.94857957 4.97257376,3.75 5.84331022,3.75 C6.62792988,3.75 7.32403018,3.89657064 7.93163199,4.18971631 C8.5392338,4.48286199 9.0583189,4.88474922 9.48890287,5.39539007 C9.56545113,5.48049688 9.63242985,5.56323837 9.68984104,5.64361702 C9.74725224,5.72399567 9.80466257,5.80200908 9.86207377,5.87765957 C10.0630129,5.5845139 10.2974385,5.31028496 10.5653574,5.05496454 C10.8428448,4.79964411 11.1538175,4.57506007 11.4982846,4.38120567 C11.8427518,4.18735128 12.2207032,4.03368851 12.6321501,3.92021277 C13.043597,3.80673702 13.4885271,3.75 13.9669537,3.75 Z" id="icon" fill="#A5A5A5" fill-rule="nonzero"></path>
                    <polygon id="bound" points="0 0 20 0 20 20 0 20"></polygon>
                </g>
            </g>
        </g>
    </g>
</svg>