<svg xmlns="http://www.w3.org/2000/svg" width="96" height="96" viewBox="0 0 96 96">
    <path fill="#222" fill-rule="nonzero" d="M46.6 12.5c18.394 0 36.78 15.48 35.9 31.73-1.224 20.785-17.02 39.32-35.82 38.47-15.841-.647-32.017-16.921-33.079-34.967C12.421 29.936 27.876 12.5 46.6 12.5zm0 1c-18.133 0-33.143 16.935-32 34.17C15.63 65.213 31.397 81.076 46.722 81.7c18.19.823 33.584-17.24 34.778-37.527C82.347 28.556 64.465 13.5 46.6 13.5zm1.095 21.176l.193.3.012-.014.017.031.146-.162c2.67-2.899 6.545-4.662 10.226-4.482l.344.022.324.032c5.781.664 8.205 6.666 7.34 14.454-1.308 11.487-14.091 27.385-19.284 25.407C37.84 66.569 26.876 51.48 27.501 39.87l.05-.745c.547-7.094 2.94-11.023 9.2-11.624 3.342-.334 8.146 2.91 10.944 7.174zm-10.847-6.178c-5.849.56-7.937 4.299-8.349 11.429-.315 5.852 2.15 12.372 6.543 18.417 3.796 5.224 8.695 9.522 12.336 10.989 1.757.669 5.87-2.269 9.782-7.134 4.358-5.42 7.511-11.901 8.143-17.454.812-7.312-1.39-12.766-6.46-13.348-3.629-.417-7.616 1.347-10.24 4.33l-.167.193.111.208c1.176 2.272 1.64 4.567 1.245 6.663-.379 2.054-1.688 2.82-3.026 1.954-1.14-.739-1.871-2.434-1.66-4.118.24-1.624.961-3.248 2.067-4.726l.06-.079c-2.537-4.267-7.326-7.63-10.385-7.324zm10.913 8.294l-.195.289c-.78 1.188-1.287 2.446-1.47 3.681-.163 1.303.405 2.62 1.213 3.143.68.441 1.24.114 1.5-1.298.33-1.756-.027-3.708-.978-5.677l-.07-.138z"/>
</svg>
