<svg xmlns="http://www.w3.org/2000/svg" width="24" height="24" viewBox="0 0 24 24">
    <g fill="none" fill-rule="evenodd">
        <path fill="#222" fill-rule="nonzero" d="M13.006 18.202c.516-.34 1.027-.69 1.533-1.047a44.11 44.11 0 0 0 1.464-1.08c.264-.193.513-.384.749-.57.235-.188.462-.372.68-.554a22.15 22.15 0 0 0 1.8-1.617c.465-.477.755-.868.87-1.174.344-.783.51-1.55.5-2.298-.012-.76-.173-1.436-.483-2.026a3.708 3.708 0 0 0-1.326-1.43c-.586-.351-1.263-.527-2.033-.527a4.44 4.44 0 0 0-1.748.332c-.522.22-.99.536-1.404.944a5.107 5.107 0 0 0-.723.885 4.014 4.014 0 0 0-.396.75l-.586 1.787-.706-1.737a7.625 7.625 0 0 0-.379-.774 5.057 5.057 0 0 0-.5-.706 4.152 4.152 0 0 0-1.403-1.09c-.545-.26-1.18-.391-1.903-.391-.758 0-1.412.176-1.963.527a3.383 3.383 0 0 0-1.25 1.396c-.28.579-.415 1.243-.404 1.992.012.749.195 1.515.551 2.297.046.114.1.233.164.358.063.125.14.25.232.374.333.511.801 1.047 1.404 1.609a22.333 22.333 0 0 0 2.127 1.728c.494.363.965.692 1.412.987.448.295 1.08.698 1.895 1.208l.827.511c.149-.102.307-.207.473-.315.167-.108.342-.224.526-.349zM16.76 4.5c1.045 0 1.958.238 2.739.715a5.095 5.095 0 0 1 1.808 1.898c.425.777.655 1.654.69 2.63.034.975-.167 1.957-.604 2.944-.172.443-.52.94-1.042 1.49s-1.197 1.166-2.023 1.846c-.23.182-.468.37-.715.562-.247.193-.502.386-.767.579-.482.374-.981.743-1.498 1.106-.517.363-1.033.72-1.55 1.073-.184.124-.362.24-.534.348-.172.108-.333.213-.482.315-.092.057-.17.108-.233.154l-.146.102-.38.238-1.584-.97a97.145 97.145 0 0 1-1.929-1.243c-.459-.306-.947-.64-1.464-1.004a24.853 24.853 0 0 1-2.307-1.89c-.655-.612-1.177-1.22-1.568-1.82-.103-.16-.2-.321-.293-.486a3.78 3.78 0 0 1-.224-.468C2.218 11.632 2 10.656 2 9.691c.011-.964.212-1.832.603-2.604a4.676 4.676 0 0 1 1.722-1.872c.746-.477 1.642-.715 2.687-.715.942 0 1.777.176 2.506.528.73.351 1.352.834 1.869 1.446.092.103.172.202.24.298.07.097.139.19.207.281.242-.352.523-.68.844-.987A5.968 5.968 0 0 1 16.76 4.5z"/>
        <path d="M0 0h24v24H0z"/>
    </g>
</svg>
