<svg xmlns="http://www.w3.org/2000/svg" width="52" height="20" viewBox="0 0 52 20">
    <g fill="none" fill-rule="evenodd">
        <path fill="#FFF" fill-rule="nonzero" d="M0 0H52V20H0z"/>
        <path fill="#56B1DC" d="M0 0H52V20H0z"/>
        <g fill="#FFF">
            <path d="M7.933 1.462L8.372 0 0 0 1.447 1.462 7.933 1.462z" transform="translate(6.5 7.5)"/>
            <path d="M0 .377L1.469 1.462 1.595 1.462 0 0zM3.475 3.29L1.993 1.828 7.973 1.828 7.533 3.29 3.476 3.29z" transform="translate(6.5 7.5)"/>
            <path d="M3.474 3.29L1.993 2.195 1.993 1.828 3.588 3.29 3.474 3.29zM5.79 5.484L4.385 4.022 7.176 4.022 6.745 5.484 5.789 5.484z" transform="translate(6.5 7.5)"/>
            <path d="M4.386 4.387L5.886 5.484 5.98 5.484 4.385 4.022 4.385 4.387zM7.176 5.484L7.958 5.484 8.372 4.022 7.59 4.022 7.176 5.484zM7.973 3.29L8.751 3.29 9.169 1.828 8.38 1.828zM8.372 1.462L9.164 1.462 9.568 0 8.777 0 8.372 1.462z" transform="translate(6.5 7.5)"/>
            <path fill-rule="nonzero" d="M16.105 5.432c-.393-.081-.603-.233-.765-.552-.088-.174-.093-.205-.09-.597.002-.303.022-.499.077-.734.17-.744.54-1.567.847-1.888.343-.36.798-.54 1.49-.593.668-.05 1.227.03 1.5.213.28.187.375.405.375.867 0 .337-.095.834-.204 1.068-.116.245-.103.242-1.518.242h-1.226l-.033.116c-.156.539-.13.768.102.91.17.1.763.14 1.24.079.355-.046.593-.135.776-.291.255-.22.271-.193.142.254-.209.728-.245.786-.587.887-.238.07-1.822.092-2.13.028l.004-.009zm2.369-2.794c.096-.344.073-.52-.086-.657-.235-.205-.849-.194-1.15.02-.136.095-.262.29-.368.557l-.076.196h1.654l.03-.113-.004-.003zm12.704 2.776c-.341-.083-.52-.21-.666-.471l-.116-.21V4.27c0-.373.016-.525.08-.784.198-.816.533-1.518.888-1.867.41-.402.901-.555 1.786-.558.878-.003 1.273.157 1.465.593.09.202.08.808-.017 1.172-.092.346-.175.524-.275.576-.06.03-.371.046-1.335.058l-1.26.015-.06.214c-.08.285-.082.527-.013.65.037.06.116.125.216.168.145.067.198.073.672.073.703 0 1.021-.077 1.303-.318.13-.11.222-.153.222-.107 0 .06-.272.951-.311 1.022-.133.239-.491.309-1.552.306-.647 0-.805-.01-1.01-.061l-.017-.009zM33.62 2.58c.119-.547-.087-.762-.71-.731-.487.024-.722.208-.911.72-.033.094-.063.174-.063.18 0 .006.371.012.825.012h.825l.04-.171-.006-.01zM9.605 5.41c-.063-.058-.047-.217.06-.584C10.157 3.096 10.896.394 10.9.31c.002-.072-.018-.12-.07-.158-.039-.03-.072-.076-.072-.103 0-.043.083-.049.71-.049.62 0 .717.006.765.052.077.07.062.153-.21 1.117-.127.45-.222.825-.212.834.01.01.404.017.875.017h.857l.031-.068c.042-.092.424-1.454.45-1.606.017-.1.007-.129-.066-.19-.172-.15-.146-.157.636-.157s.802.004.802.164c0 .073-.407 1.585-.81 3.002-.474 1.66-.554 1.98-.514 2.066.02.05.06.095.083.104.026.01.046.037.046.065 0 .04-.096.046-.722.046-.78 0-.802-.007-.802-.163 0-.049.142-.593.314-1.209.173-.615.315-1.138.315-1.16 0-.033-.165-.04-.885-.04h-.888L11.225 4c-.17.618-.308 1.148-.308 1.178 0 .03.033.086.076.126.043.036.07.085.063.104-.02.052-1.405.049-1.462-.003l.01.006zm10.089-.009c-.027-.024-.05-.064-.05-.085 0-.022.245-.925.547-2.008.507-1.833.543-1.974.497-2.038-.027-.037-.063-.07-.083-.07-.02 0-.03-.02-.03-.047 0-.04.093-.046.643-.046.839 0 .809-.021.663.52-.013.05.043.004.156-.137.096-.116.212-.251.258-.297l.087-.083h.583c.324 0 .59.01.59.022 0 .067-.184.649-.222.704-.075.107-.196.128-.723.14-.426.01-.516.019-.63.074-.237.113-.278.214-.69 1.68-.21.74-.389 1.384-.4 1.43-.016.06 0 .107.062.174.046.049.083.099.083.109 0 .009-.29.018-.644.018-.54 0-.652-.008-.696-.049l-.001-.01zm3.38 0c-.026-.024-.05-.064-.05-.082 0-.019.243-.903.534-1.965.295-1.06.534-1.962.534-2.002 0-.04-.03-.098-.07-.125-.146-.107-.093-.12.574-.12.805 0 .822.01.696.395-.027.092-.047.168-.037.175.01.006.063-.052.126-.132.345-.444.401-.465 1.144-.468.553 0 .57.003.745.082.19.09.289.22.355.46l.026.1.183-.254c.275-.38.305-.388 1.06-.388.577 0 .627.006.78.073.092.04.191.098.221.132.096.098.16.275.16.437 0 .095-.17.79-.448 1.815-.255.943-.44 1.693-.43 1.73.009.04.049.082.085.1.153.077.05.092-.59.092-.699 0-.736-.006-.736-.147 0-.04.18-.722.398-1.518.219-.795.398-1.493.398-1.548 0-.224-.209-.328-.58-.288-.351.037-.504.14-.626.429-.055.126-.76 2.577-.8 2.775-.02.098-.01.124.064.187.046.04.076.083.063.093-.014.01-.309.02-.657.02-.676 0-.715-.006-.715-.15 0-.04.179-.72.397-1.507.219-.786.398-1.487.398-1.555 0-.24-.243-.346-.644-.277-.266.046-.384.117-.487.295-.094.162-.857 2.794-.857 2.954 0 .057.025.104.066.129.036.021.066.055.066.076 0 .03-.147.04-.643.04-.54 0-.65-.008-.696-.048l-.007-.015zm11.8-.024c-.05-.07-.044-.104.089-.59.113-.399.156-.518.202-.524.037-.006.073.021.096.07.06.123.17.168.468.205.374.046 1.299.022 1.455-.043.145-.055.248-.183.291-.358.037-.153.007-.254-.103-.318-.043-.025-.374-.122-.735-.214-.726-.187-.918-.27-1.038-.462-.07-.11-.073-.15-.06-.426.03-.646.365-1.27.783-1.466.265-.122.444-.138 1.624-.138h1.123l-.082.285c-.1.336-.153.436-.252.49-.051.027-.309.042-.855.054-.67.012-.793.022-.869.068-.116.07-.179.166-.207.302-.04.2.043.248.763.444.891.245 1.06.338 1.143.624.083.284-.053 1.012-.262 1.414-.142.278-.301.434-.56.551l-.22.101-1.366.01-1.365.009-.053-.077-.01-.011z" transform="translate(6.5 7.5)"/>
        </g>
    </g>
</svg>
