<svg xmlns="http://www.w3.org/2000/svg" width="24" height="24" viewBox="0 0 24 24">
    <g fill="none" fill-rule="evenodd">
        <path fill="#222" fill-rule="nonzero" d="M19.262 3C20.222 3 21 3.778 21 4.738v14.524c0 .96-.778 1.738-1.738 1.738H4.738C3.778 21 3 20.222 3 19.262V4.738C3 3.778 3.778 3 4.738 3h14.524zM4.241 16.531v2.731c0 .274.223.497.497.497h14.524a.497.497 0 0 0 .497-.497l-.001-2.731H4.241zm15.021-12.29H4.738a.497.497 0 0 0-.497.497v10.551h2.42l2.393-3.19a1.738 1.738 0 0 1 2.435-.346l.098.079.087.081.259.26 2.028-2.705a1.737 1.737 0 0 1 2.677-.127l.104.127 1.989 2.651a.62.62 0 0 1-.926.82l-.067-.075-1.99-2.653a.497.497 0 0 0-.733-.065l-.06.066-2.458 3.278a.62.62 0 0 1-.859.132l-.077-.066-.77-.77-.048-.041a.497.497 0 0 0-.635.033l-.06.067-1.835 2.444h11.545V4.738a.497.497 0 0 0-.496-.497zM7.81 5.793a2.017 2.017 0 1 1 .001 4.034 2.017 2.017 0 0 1 0-4.034zm0 1.241a.775.775 0 1 0 0 1.551.775.775 0 0 0 0-1.55z"/>
        <path d="M0 0h24v24H0z"/>
    </g>
</svg>
