<svg xmlns="http://www.w3.org/2000/svg" width="24" height="25" viewBox="0 0 24 25">
    <g fill="none" fill-rule="evenodd">
        <path d="M0 0L24 0 24 24 0 24z"/>
        <path fill="#222" fill-rule="nonzero" d="M12 21c4.97 0 9-4.03 9-9s-4.03-9-9-9-9 4.03-9 9 4.03 9 9 9zm0-1.25c-4.28 0-7.75-3.47-7.75-7.75 0-4.28 3.47-7.75 7.75-7.75 4.28 0 7.75 3.47 7.75 7.75 0 4.28-3.47 7.75-7.75 7.75zm-.225-12.549c-.246 0-.44.059-.58.176-.14.117-.21.299-.21.545 0 .27.07.457.21.562.14.106.334.159.58.159.235 0 .422-.053.563-.159.14-.105.21-.293.21-.562 0-.27-.07-.457-.21-.563-.14-.105-.328-.158-.563-.158zm-.668 2.707h1.266v5.15c0 .247.032.408.097.484.064.076.173.114.325.114.117 0 .223-.023.316-.07.094-.047.188-.1.282-.158l.052 1.02c-.082.081-.222.16-.422.237-.199.076-.416.114-.65.114-.422 0-.738-.109-.95-.325-.21-.217-.316-.566-.316-1.046v-5.52z"/>
    </g>
</svg>
