<svg xmlns="http://www.w3.org/2000/svg" width="24" height="24" viewBox="0 0 24 24">
    <g fill="none" fill-rule="evenodd">
        <path fill="#222" fill-rule="nonzero" d="M12.009 4.617c-1.208 0-1.997.003-2.367.009-.37.006-.794.02-1.275.044-.434.023-.78.067-1.039.132-.258.064-.469.126-.633.184a2.878 2.878 0 0 0-.554.282 3.88 3.88 0 0 0-.484.386 3.878 3.878 0 0 0-.387.484c-.106.158-.2.342-.282.553-.058.164-.12.375-.184.633-.065.258-.103.604-.115 1.037-.023.47-.038.891-.044 1.266-.006.375-.009 1.166-.009 2.373a193 193 0 0 0 .01 2.355c.005.375.02.803.043 1.284.012.433.05.779.115 1.037.064.258.126.469.184.633.082.199.176.38.282.545.105.164.24.322.404.474.153.164.311.299.476.404.164.106.346.2.545.282.164.058.375.12.633.184.259.065.605.103 1.039.114.48.024.909.039 1.284.044.375.006 1.161.01 2.358.01 1.208 0 1.997-.004 2.366-.01.37-.005.795-.02 1.276-.044.434-.011.78-.05 1.038-.114s.47-.126.634-.184c.21-.082.395-.176.554-.282.158-.105.32-.24.484-.404.152-.152.281-.31.387-.474.105-.165.2-.352.281-.563a5.49 5.49 0 0 0 .185-.615 5.8 5.8 0 0 0 .132-1.055l.035-1.266c.012-.375.018-1.16.018-2.355 0-1.207-.006-1.998-.018-2.373l-.035-1.266a5.8 5.8 0 0 0-.132-1.054 5.49 5.49 0 0 0-.185-.616 3.147 3.147 0 0 0-.281-.562 2.863 2.863 0 0 0-.387-.475 3.88 3.88 0 0 0-.484-.386 2.878 2.878 0 0 0-.554-.282 6.962 6.962 0 0 0-.634-.184 5.734 5.734 0 0 0-1.038-.132c-.48-.024-.906-.038-1.276-.044-.37-.006-1.158-.009-2.366-.009zm0-1.617c1.22 0 2.023.003 2.41.009.387.006.821.02 1.302.044.481.023.895.073 1.24.15.347.075.66.166.942.272.305.117.587.257.845.421.258.165.51.37.756.616.247.246.452.5.616.764.164.264.305.542.423.835.105.282.196.595.272.94.076.346.12.76.132 1.24.024.48.038.914.044 1.3.006.388.009 1.19.009 2.409 0 1.219-.003 2.021-.009 2.408-.006.387-.02.82-.044 1.301-.012.48-.056.894-.132 1.24-.076.345-.167.658-.272.94a4.725 4.725 0 0 1-.423.843c-.164.258-.37.51-.616.756a5.08 5.08 0 0 1-.774.616 4.985 4.985 0 0 1-.827.421 6.944 6.944 0 0 1-.941.273c-.346.076-.76.126-1.24.15-.482.023-.916.037-1.303.043-.387.006-1.19.009-2.41.009-1.22 0-2.024-.003-2.41-.009-.388-.006-.822-.02-1.303-.044a7.566 7.566 0 0 1-1.24-.15 6.944 6.944 0 0 1-.942-.272 4.734 4.734 0 0 1-.844-.421 4.47 4.47 0 0 1-.757-.616 4.468 4.468 0 0 1-.616-.756 4.725 4.725 0 0 1-.422-.843 5.069 5.069 0 0 1-.281-.94 8.348 8.348 0 0 1-.141-1.24c-.024-.48-.038-.914-.044-1.3C3.003 14.02 3 13.218 3 12c0-1.219.003-2.021.009-2.408.006-.387.02-.82.044-1.301.023-.48.07-.894.14-1.24.07-.345.165-.658.282-.94.117-.304.258-.586.422-.843.165-.258.37-.51.616-.756a4.47 4.47 0 0 1 .757-.616c.258-.164.54-.304.844-.421.282-.118.596-.211.942-.282.346-.07.76-.117 1.24-.14.481-.024.915-.038 1.302-.044.387-.006 1.19-.009 2.41-.009zm0 4.377c.633 0 1.231.123 1.795.37a4.534 4.534 0 0 1 2.463 2.46c.246.563.37 1.16.37 1.793a4.42 4.42 0 0 1-.37 1.793 4.53 4.53 0 0 1-2.463 2.46 4.432 4.432 0 0 1-1.795.37 4.432 4.432 0 0 1-1.795-.37 4.534 4.534 0 0 1-2.463-2.46A4.42 4.42 0 0 1 7.38 12c0-.633.123-1.23.37-1.793a4.53 4.53 0 0 1 2.463-2.46 4.432 4.432 0 0 1 1.795-.37zm0 7.629c.833 0 1.542-.293 2.129-.879.586-.586.88-1.295.88-2.127 0-.832-.294-1.541-.88-2.127a2.901 2.901 0 0 0-2.13-.879c-.832 0-1.542.293-2.128.879A2.896 2.896 0 0 0 9 12c0 .832.293 1.541.88 2.127a2.901 2.901 0 0 0 2.129.879zM17.903 7.2c0 .293-.105.545-.316.756-.212.211-.47.316-.775.316-.293 0-.545-.105-.756-.316a1.031 1.031 0 0 1-.317-.756c0-.305.106-.562.317-.773.21-.211.463-.317.756-.317.305 0 .563.106.775.317.21.21.316.468.316.773z"/>
        <path d="M0 0h24v24H0z"/>
    </g>
</svg>
