<svg xmlns="http://www.w3.org/2000/svg" width="63" height="24" viewBox="0 0 63 24">
    <g fill="none" fill-rule="evenodd">
        <path fill="#C32341" d="M52.143 19.387c.786-.383 1.598-.27 2.394-.406.47-.08.92-.206 1.463-.465-1.077-.249-2.044-.586-3.055-.639-.765-.04-1.516-.55-2.285-.698-.81-.157-1.633-.173-2.45-.18-1.117-.007-2.22-.224-3.325-.419-.057-.01-.107-.128-.158-.193.014-.471.254-.411.42-.44 2.092-.368 4.181-.777 6.285-.907.425-.027.817-.305 1.256-.262.209.02.38-.395.33-.894-.32-.012-.661.337-.935-.131.3-.58.3-.58.075-1.162l2.481-.352-.025-.468c-2.224.193-4.446.137-6.674.036 1.393-.356 2.812-.398 4.188-.865l-.008-.312h-3.792c1.302-.65 2.665-.65 3.954-1.305-.552-.585-1.188-.191-1.936-.574.803-.83 1.685-.167 2.431-.99-.889-.586-1.76-.037-2.612-.261.043-.641.353-.817.603-.77.843.157 1.596-.526 2.382-.57.668-.037 1.125-.347 1.531-1.066.057-.1.085-.242.175-.507-2.728-.39-5.376.596-8.032.113 1.11-.526 2.256-.552 3.39-.77 1.136-.218 2.289-.362 3.49-.685-.617-.707-1.248-.52-1.865-.386-.406.088-.77.122-.926-.69-.221.282-.39.531-.58.726-.12.123-.345.15-.358-.105-.062-1.236-.618-.81-1.03-.758-.296.037-.559.208-.654-.46-.05-.358-.215-.361-.445-.226-.431.254-1.121.195-1.28-.091-.495-.899-1-.37-1.5-.366-.592.005-1.185.021-1.777.066-1.232.095-2.463.227-3.695.343-.017-.016-.034-.027-.05-.044 0 .007.002.01.003.015L39.478.95l-.165.3C39.183.35 36.324.075 34.935.812c-.477-1.187-2.067-1.057-3.305.286-.354-.897-.797-.458-1.242-.13-.092-.514-.273-.867-.697-.792-.318.056-.399.315-.292.711l-1.247.14c.344.375.256.652.118.91a24.58 24.58 0 0 0-.67.021c.052-.113.113-.231.147-.362-.918-.038-1.814-.348-2.723-.262-2.94.094-5.885-.104-8.903.477-.091.01-.183.018-.275.034-1.58.282-3.181.134-4.753.61-1.284.39-2.969 1.028-3.165 2.852-.03.276.446.705.685.623.78-.308 1.132.004 1.768.363-2.515.662-4.933.682-7.463 1.075.744.14 1.488.285 2.233.414.145.025.331-.069.336.255.006.353-.205.187-.33.245-.847.396-1.755-.254-2.579.35.086.398.381-.116.55.215-.673.511-1.385.112-2.148.25.425.38.827.49 1.253.581-.671.555-1.448-.208-2.11.39.189.155.577-.027.65.512-.198.29-.57-.11-.773.439l1.121.126c-.13.1-.505-.01-.456.136.156.461-.268.147-.198.448 1.476.13 2.98.195 4.43.917H3.284c.639.175 1.255.454 1.896.545.79.112 1.578.237 2.366.355.16.024.325.067.29.36-.04.345-.234.133-.356.136-.195.005-.411-.13-.58-.049-.698.332-1.395-.12-2.128.028.393.285.8.19 1.17.41-.934.143-1.862.377-2.875.137.485.364.969.198 1.457.363-.5.246-.977.284-1.456.367 1.415.337 2.845.213 4.357.292-.858.58-1.673.042-2.466.239-.368.091-.742.021-1.103.3-.314.244-.651.501-1.052.41-.158-.035-.24.13-.223.34.014.182.101.208.233.199.932-.068 1.726.618 2.595.948-.534.093-1.05.295-1.598.138l-.012.245 1.196.32c-.033.043-.045.072-.062.08-.24.093-.672-.067-.672.283 0 .294.136.797.466 1.021.372.252-.268.338.013.742 1.529.02 3.128.393 4.662 1.205.144.128-.18.09-.072.2.248.257.52.332.067.831-.14.155-.43.391-.695.909.706-.362 1.362.391 1.855-.527.023-.042.123-.018.185-.003 2.069.523 4.127-.233 6.196-.125.541.028 1.11-.186 1.672-.11.257.034.39-.07.451-.295a6.917 6.917 0 0 0 2.096.031c1.583-.206 2.275 1.421 3.868.936l.432-.032c.397-.027.843.059 1.177-.165.37-.249 1.132.624 1.147-.836.008-.703.75-.362.951-.513.428-1.19 3.776.256 4.317.28 1.52.065 3.004-.41 4.51-.42 3.635-.126 7.272-.073 10.908-.062 1.096.004 2.17-.07 3.177-.845.268-.207.566-.14.84-.055.291.09.51.153.539-.47.026-.54-.185-.674-.453-.823-.277-.154-.474.324-.77.157-.041-.435.053-.594.344-.736"/>
        <text fill="#FFF" font-family="Montserrat-Regular, Montserrat" font-size="14">
            <tspan x="12" y="16">Sale</tspan>
        </text>
    </g>
</svg>
