<svg xmlns="http://www.w3.org/2000/svg" width="63" height="24" viewBox="0 0 63 24">
    <g fill="none" fill-rule="evenodd">
        <path fill="#7DDCB4" d="M54.936 19.387c.829-.383 1.684-.27 2.523-.406.494-.08.97-.206 1.541-.465-1.135-.249-2.153-.586-3.219-.639-.806-.04-1.597-.55-2.407-.698-.853-.157-1.72-.173-2.582-.18-1.176-.007-2.338-.224-3.502-.419-.06-.01-.113-.128-.167-.193.015-.471.268-.411.444-.44 2.203-.368 4.403-.777 6.62-.907.448-.027.861-.305 1.324-.262.22.02.399-.395.347-.894-.337-.012-.696.337-.984-.131.316-.58.316-.58.078-1.162l2.614-.352-.026-.468c-2.344.193-4.684.137-7.032.036 1.468-.356 2.962-.398 4.413-.865l-.008-.312h-3.996c1.372-.65 2.808-.65 4.166-1.305-.581-.585-1.252-.191-2.04-.574.846-.83 1.775-.167 2.562-.99-.937-.585-1.856-.037-2.753-.261.045-.641.372-.817.636-.77.887.157 1.681-.526 2.51-.57.703-.037 1.184-.347 1.613-1.066.06-.1.09-.242.184-.507-2.875-.39-5.665.596-8.462.113 1.169-.526 2.376-.552 3.571-.77 1.196-.218 2.411-.362 3.678-.685-.65-.707-1.316-.52-1.966-.386-.428.088-.812.122-.975-.69-.234.282-.41.531-.61.726-.127.123-.366.15-.379-.105-.065-1.236-.65-.81-1.085-.758-.312.037-.59.208-.689-.46-.053-.358-.227-.361-.47-.226-.453.254-1.18.195-1.347-.091-.522-.899-1.053-.37-1.58-.366-.624.005-1.25.021-1.873.066-1.297.095-2.595.227-3.892.343-.019-.016-.037-.027-.054-.044l.003.015-.072-.318-.174.3C41.283.35 38.27.075 36.806.812c-.502-1.187-2.178-1.057-3.481.286-.374-.897-.84-.458-1.309-.13-.096-.514-.288-.867-.734-.792-.335.056-.42.315-.309.711l-1.313.14c.363.375.27.652.124.91-.235.004-.47.01-.706.021.056-.113.12-.231.156-.362-.968-.038-1.912-.348-2.87-.262-3.097.094-6.2-.104-9.379.477-.097.01-.194.018-.29.034-1.664.282-3.352.134-5.008.61-1.352.39-3.128 1.028-3.334 2.852-.031.276.47.705.72.623.824-.308 1.194.004 1.864.363-2.65.662-5.197.682-7.862 1.075.783.14 1.567.285 2.352.415.153.024.349-.07.354.254.006.353-.216.187-.348.245-.892.397-1.848-.254-2.717.35.091.398.401-.116.58.215-.71.511-1.46.112-2.263.25.447.38.871.49 1.32.581-.708.555-1.526-.208-2.223.39.199.155.608-.027.683.512-.207.29-.599-.11-.813.439l1.181.126c-.137.1-.532-.01-.48.136.163.462-.283.147-.21.449 1.556.128 3.142.194 4.669.916H3.459c.673.175 1.322.454 1.997.545.832.112 1.662.237 2.493.355.168.024.343.067.306.36-.043.345-.248.133-.375.136-.205.005-.434-.13-.612-.049-.735.332-1.468-.12-2.24.028.412.285.841.19 1.232.41-.985.143-1.962.377-3.03.137.511.364 1.021.198 1.536.363-.528.246-1.03.284-1.535.367 1.491.337 2.998.213 4.59.292-.904.58-1.762.042-2.598.24-.387.09-.78.02-1.161.3-.332.243-.687.5-1.109.41-.166-.036-.252.128-.235.34.015.181.107.207.246.198.982-.068 1.818.618 2.734.948-.563.093-1.107.295-1.684.138l-.012.245 1.26.32c-.035.043-.048.072-.066.08-.252.093-.708-.067-.708.283 0 .294.143.797.491 1.021.392.252-.283.338.014.742 1.61.02 3.295.393 4.912 1.205.151.128-.19.09-.076.2.262.257.547.332.071.831-.148.155-.455.391-.732.909.743-.362 1.435.391 1.954-.527.023-.042.13-.018.194-.003 2.18.523 4.348-.233 6.529-.125.57.028 1.168-.186 1.76-.11.271.034.412-.07.476-.295a7.672 7.672 0 0 0 2.208.031c1.668-.206 2.397 1.421 4.076.936l.455-.032c.418-.027.888.059 1.24-.165.39-.249 1.192.624 1.208-.836.008-.703.791-.362 1.002-.513.451-1.19 3.979.256 4.548.28 1.602.065 3.165-.41 4.753-.42 3.829-.126 7.66-.073 11.491-.062 1.155.004 2.287-.07 3.348-.845.283-.207.596-.14.885-.055.307.09.536.153.567-.47.027-.54-.194-.674-.477-.823-.291-.154-.5.324-.81.157-.045-.435.055-.594.361-.736"/>
        <text fill="#222" font-family="Montserrat-Regular, Montserrat" font-size="14">
            <tspan x="15" y="16">Neu</tspan>
        </text>
    </g>
</svg>
