<svg xmlns="http://www.w3.org/2000/svg" width="64" height="64" viewBox="0 0 64 64">
    <g fill="none" fill-rule="evenodd">
        <path d="M0 0L64 0 64 64 0 64z"/>
        <path fill="#222" fill-rule="nonzero" d="M50.7 15.396c.222.222.422.697.623 1.435l.093.359.18.056c1.234.389 1.92.81 2.03 1.352.061.31-.307.809-1.177 1.703l-.384.389.094.646.092.664c1.02 7.618 1.548 18.287.916 21.616-.204 1.075-1.806 1.825-4.617 2.377l.006.005-.014.002.1.092c.538.503.722.82.558 1.108-.152.264-2.254.24-7.227-.009l-3.862-.205c-1.665.06-3.375.089-5.04.089-4.068 0-9.267-.14-13.474-.378l-.777-.046c-2.214-.135-4.06-.295-5.439-.476l-.442-.061-.367-.056c-1.584-.25-2.282-.508-2.2-1.043.066-.436.592-.931 1.56-1.553l.165-.107-.035-.184c-1.167-6.247-1.053-26.18.452-27.686.65-.65 5.28-.904 12.07-.79l1.342.028.627-.04c10.3-.629 23.138-.296 24.148.713zm-2.918 30.738l-.187.031c-1.192.198-2.551.363-4.047.495l1.383.058 1.066.04.88.026c.27.007.514.012.732.016l.57.004.311-.004c-.153-.173-.392-.397-.708-.666zm-35.54-2.157l-.104.067c-.65.431-1.047.781-1.149.99.073.044.194.095.357.147.335.105.827.208 1.462.306l.431.063.485.064c1.095.135 2.465.26 4.063.37l1.07.068 1.235.071c2.738.148 5.855.255 8.786.31l-3.716-.255c-7.117-.512-12.19-1.018-12.528-1.356-.154-.154-.28-.433-.392-.845zm20.909-7.469l-.02.016c-1.423.997-2.42 1.586-2.728 1.547-.435-.054-1.284-.434-2.349-1.034l-.72.25c-4.433 1.568-10.758 4.221-14.041 6.06l-.178.1-.34.198c.102.412.205.674.284.753.29.29 9.561 1.053 19.808 1.684l1.955.118 3.268.187c3.506-.125 6.626-.377 9.07-.76l-.43-.33c-3.455-2.63-10.668-7.246-13.58-8.789zM51.544 21.27l-.008-.059c-4.31 4.189-13.05 11.467-17.864 14.928l.483.263c3.531 1.956 10.216 6.281 13.304 8.697l.348.277.144.118.106-.019c2.781-.51 4.376-1.21 4.52-1.971.621-3.272.084-14.015-.943-21.584l-.098-.709.008.06zm-31.616-5.986l-.926.016c-3.46.073-5.745.29-6.064.61-1.301 1.3-1.412 21.033-.292 27.116 3.263-1.898 10.06-4.756 14.731-6.384-1.691-1.013-3.767-2.46-5.594-4.006l-.362-.31-.377-.333c-5-4.482-7.833-9.392-7.389-14.374.094-1.053 2.31-1.805 6.273-2.335zM31.953 35.99c-.496 0-1.632.299-3.131.79l.314.165c.606.31 1.075.498 1.341.531.214.027.984-.44 2.12-1.247-.32-.155-.543-.24-.644-.24zm-5.111-20.646l-.89-.022-.95.066c-6.538.482-10.666 1.35-10.75 2.285-.423 4.752 2.319 9.505 7.193 13.874 2.118 1.898 4.753 3.727 6.674 4.841l.638-.21c1.515-.49 2.67-.788 3.196-.788.173 0 .584.167 1.169.461l.556-.409c4.514-3.349 12.593-10.06 16.887-14.132l.527-.505.335-.327c-.12-.775-.24-1.472-.36-2.079l-.052-.254-.103-.475c-4.156-1.146-13.828-2.033-23.618-2.313l-.452-.013zM51.57 17.87l.045.218c.092.45.184.95.275 1.498l.06.366c.319-.327.572-.604.758-.827l.148-.188c.113-.15.175-.244.18-.22-.046-.232-.55-.541-1.466-.847zm-17.31-2.871l-.805.015 1.28.074c6.779.41 12.782 1.092 16.012 1.919-.175-.644-.342-1.056-.471-1.186-.614-.613-8.087-.952-16.015-.822z"/>
    </g>
</svg>
