<svg xmlns="http://www.w3.org/2000/svg" width="24" height="24" viewBox="0 0 24 24">
    <g fill="none" fill-rule="evenodd">
        <path fill="#000" fill-rule="nonzero" d="M11.988 12.137c-.849 0-1.56-.293-2.135-.88-.574-.585-.861-1.334-.861-2.245 0-.847.303-1.58.91-2.198.607-.618 1.302-.927 2.086-.927.835 0 1.563.309 2.183.927.62.619.93 1.351.93 2.198 0 .911-.294 1.66-.881 2.246-.588.586-1.332.879-2.232.879zm0-4.942c-.457 0-.855.19-1.195.567-.34.377-.509.794-.509 1.25 0 .455.137.872.411 1.25.274.377.705.566 1.293.566.522 0 .956-.172 1.302-.517.345-.346.518-.778.518-1.3 0-.585-.189-1.034-.567-1.347a1.923 1.923 0 0 0-1.253-.469zm0 14.805a.558.558 0 0 1-.314-.078 1.408 1.408 0 0 1-.215-.176l-3.78-5.332-1.428-2.207a6.75 6.75 0 0 1-1.175-2.422 8.399 8.399 0 0 1-.255-2.734 8.81 8.81 0 0 1 .627-2.696A7.26 7.26 0 0 1 6.897 4.07a7.185 7.185 0 0 1 2.35-1.513A7.237 7.237 0 0 1 11.986 2c.966 0 1.89.189 2.771.566a6.596 6.596 0 0 1 2.3 1.641 6.825 6.825 0 0 1 1.508 2.266c.353.846.558 1.725.617 2.636a8.013 8.013 0 0 1-.284 2.696 6.596 6.596 0 0 1-1.194 2.402l-5.208 7.54a1.728 1.728 0 0 1-.206.175.51.51 0 0 1-.303.078zm0-18.71c-.718 0-1.443.159-2.174.478a5.354 5.354 0 0 0-1.88 1.357 5.218 5.218 0 0 0-1.272 1.836 6.8 6.8 0 0 0-.558 2.217c-.059.761.01 1.513.205 2.256.196.742.522 1.406.98 1.992l1.429 2.207 3.27 4.55 4.68-6.757c.456-.586.782-1.25.978-1.992a6.748 6.748 0 0 0 .206-2.256 7.114 7.114 0 0 0-.539-2.217 5.442 5.442 0 0 0-1.292-1.836 4.489 4.489 0 0 0-1.782-1.357 5.576 5.576 0 0 0-2.251-.479z"/>
        <path d="M0 0h24v24H0z"/>
    </g>
</svg>
