<svg xmlns="http://www.w3.org/2000/svg" width="24" height="24" viewBox="0 0 24 24">
    <g fill="none" fill-rule="evenodd">
        <path d="M0 0L24 0 24 24 0 24z"/>
        <path fill="#A5A5A5" fill-rule="nonzero" d="M12 16c1.38 0 2.5 1.12 2.5 2.5S13.38 21 12 21s-2.5-1.12-2.5-2.5S10.62 16 12 16zm0 1.19c-.723 0-1.31.587-1.31 1.31 0 .723.587 1.31 1.31 1.31.723 0 1.31-.587 1.31-1.31 0-.723-.587-1.31-1.31-1.31zm0-7.69c1.38 0 2.5 1.12 2.5 2.5s-1.12 2.5-2.5 2.5-2.5-1.12-2.5-2.5 1.12-2.5 2.5-2.5zm0 1.19c-.723 0-1.31.587-1.31 1.31 0 .723.587 1.31 1.31 1.31.723 0 1.31-.587 1.31-1.31 0-.723-.587-1.31-1.31-1.31zM12 3c1.38 0 2.5 1.12 2.5 2.5S13.38 8 12 8 9.5 6.88 9.5 5.5 10.62 3 12 3zm0 1.19c-.723 0-1.31.587-1.31 1.31 0 .723.587 1.31 1.31 1.31.723 0 1.31-.587 1.31-1.31 0-.723-.587-1.31-1.31-1.31z"/>
    </g>
</svg>
