<svg xmlns="http://www.w3.org/2000/svg" width="24" height="24" viewBox="0 0 24 24">
    <g fill="none" fill-rule="evenodd">
        <path fill="#222" fill-rule="nonzero" d="M2.879 12.865a.84.84 0 0 1-.625-.26A.84.84 0 0 1 2 12a.84.84 0 0 1 .254-.606.84.84 0 0 1 .625-.26H21.12a.84.84 0 0 1 .625.26A.84.84 0 0 1 22 12a.84.84 0 0 1-.254.606.84.84 0 0 1-.625.26H2.88zm0 5.135a.856.856 0 0 1-.625-.25.83.83 0 0 1-.254-.615c0-.231.085-.43.254-.597a.856.856 0 0 1 .625-.25H21.12c.247 0 .456.084.625.25.17.167.254.366.254.597a.83.83 0 0 1-.254.615.856.856 0 0 1-.625.25H2.88zm0-10.288a.856.856 0 0 1-.625-.25A.808.808 0 0 1 2 6.865a.83.83 0 0 1 .254-.615.856.856 0 0 1 .625-.25H21.12c.247 0 .456.083.625.25a.83.83 0 0 1 .254.615c0 .231-.085.43-.254.597a.856.856 0 0 1-.625.25H2.88z"/>
        <path d="M0 0h24v24H0z"/>
    </g>
</svg>
