<?xml version="1.0" encoding="UTF-8"?>
<svg xmlns="http://www.w3.org/2000/svg" xmlns:xlink="http://www.w3.org/1999/xlink" width="158pt" height="158pt" viewBox="0 0 158 158" version="1.1">
<g id="surface1">
<rect x="0" y="0" width="158" height="158" style="fill:rgb(100%,100%,100%);fill-opacity:1;stroke:none;"/>
<path style=" stroke:none;fill-rule:nonzero;fill:rgb(29.411765%,46.27451%,39.607843%);fill-opacity:1;" d="M 143.359375 108.515625 L 143.359375 45.144531 C 143.359375 45.144531 143.359375 14.816406 113.03125 14.816406 L 44.332031 14.816406 C 44.332031 14.816406 14.007812 14.816406 14.007812 45.144531 L 14.007812 108.574219 L 143.359375 108.574219 Z M 143.359375 108.515625 "/>
<path style=" stroke:none;fill-rule:nonzero;fill:rgb(62.352941%,74.901961%,60.392157%);fill-opacity:1;" d="M 78.941406 139.539062 C 112.453125 139.539062 139.652344 112.453125 139.652344 79 C 139.652344 45.546875 112.453125 18.460938 78.941406 18.460938 C 45.433594 18.460938 18.230469 45.546875 18.230469 79 C 18.230469 112.453125 45.375 139.539062 78.941406 139.539062 "/>
<path style=" stroke:none;fill-rule:nonzero;fill:rgb(18.431373%,27.058824%,23.529412%);fill-opacity:1;" d="M 143.359375 108.402344 L 143.359375 113.089844 C 143.359375 113.089844 143.359375 143.414062 113.03125 143.414062 L 44.332031 143.414062 C 44.332031 143.414062 14.007812 143.414062 14.007812 113.089844 L 14.007812 108.402344 Z M 143.359375 108.402344 "/>
<path style=" stroke:none;fill-rule:nonzero;fill:rgb(100%,100%,100%);fill-opacity:1;" d="M 31.195312 128.253906 L 31.195312 118.585938 L 37.734375 118.585938 C 41.265625 118.585938 43.058594 120.035156 43.058594 123.21875 C 43.058594 127.152344 40.746094 128.253906 36 128.253906 Z M 27.433594 131.144531 L 36.75 131.144531 C 43.464844 131.144531 46.820312 128.597656 46.820312 123.449219 C 46.820312 118.703125 43.695312 115.867188 37.675781 115.867188 L 27.375 115.867188 L 27.375 131.144531 Z M 27.433594 131.144531 "/>
<path style=" stroke:none;fill-rule:nonzero;fill:rgb(100%,100%,100%);fill-opacity:1;" d="M 50.410156 131.144531 L 66.960938 131.144531 L 66.960938 128.253906 L 54.171875 128.253906 L 54.171875 124.546875 L 61.523438 124.546875 L 61.523438 121.886719 L 54.171875 121.886719 L 54.171875 118.585938 L 66.789062 118.585938 L 66.789062 115.867188 L 50.410156 115.867188 Z M 50.410156 131.144531 "/>
<path style=" stroke:none;fill-rule:nonzero;fill:rgb(100%,100%,100%);fill-opacity:1;" d="M 71.070312 131.144531 L 74.773438 131.144531 L 74.773438 125.183594 L 84.84375 125.183594 C 87.277344 125.183594 88.433594 124.375 88.433594 122.234375 L 88.433594 118.816406 C 88.433594 116.675781 87.335938 115.867188 84.84375 115.867188 L 71.128906 115.867188 L 71.128906 131.144531 Z M 83.226562 118.527344 C 84.324219 118.527344 84.902344 118.761719 84.902344 119.746094 L 84.902344 121.308594 C 84.902344 122.289062 84.324219 122.523438 83.226562 122.523438 L 74.773438 122.523438 L 74.773438 118.472656 L 83.226562 118.472656 Z M 83.226562 118.527344 "/>
<path style=" stroke:none;fill-rule:nonzero;fill:rgb(100%,100%,100%);fill-opacity:1;" d="M 95.726562 118.703125 L 107.996094 118.703125 L 107.996094 128.195312 L 95.726562 128.195312 Z M 92.023438 119.453125 L 92.023438 127.5 C 92.023438 130.394531 92.949219 131.089844 96.015625 131.089844 L 107.820312 131.089844 C 110.832031 131.089844 111.816406 130.394531 111.816406 127.5 L 111.816406 119.453125 C 111.816406 116.5625 110.832031 115.867188 107.820312 115.867188 L 96.015625 115.867188 C 93.007812 115.867188 92.023438 116.5625 92.023438 119.453125 "/>
<path style=" stroke:none;fill-rule:nonzero;fill:rgb(100%,100%,100%);fill-opacity:1;" d="M 126.167969 118.585938 L 133.578125 118.585938 L 133.578125 115.867188 L 115.113281 115.867188 L 115.113281 118.585938 L 122.464844 118.585938 L 122.464844 131.144531 L 126.167969 131.144531 Z M 126.167969 118.585938 "/>
<path style="fill-rule:nonzero;fill:rgb(100%,100%,100%);fill-opacity:1;stroke-width:1.701;stroke-linecap:round;stroke-linejoin:round;stroke:rgb(100%,100%,100%);stroke-opacity:1;stroke-miterlimit:4;" d="M 97.598645 86.502423 C 100.399649 88.500247 104.901503 90.201098 109.997305 90.201098 C 121.700776 90.201098 126.897819 83.201963 130.900218 71.498492 L 155.603046 1.500396 L 143.50136 1.500396 L 127.100302 52.701394 L 109.403357 1.500396 L 96.397251 1.500396 L 121.903259 64.701839 L 120.499382 69.102453 C 118.002101 76.398561 115.201098 80.002744 109.200875 80.002744 C 105.299718 80.002744 102.100499 78.902591 99.400737 77.302982 Z M 12.00267 65.903234 L 12.00267 23.699194 C 14.000494 16.902542 18.002893 11.597508 25.501483 11.597508 C 33.297048 11.597508 37.900143 16.403085 37.900143 27.100895 L 37.900143 65.903234 L 49.698106 65.903234 L 49.698106 24.900588 C 49.698106 24.299891 49.596865 23.699194 49.596865 23.098497 C 51.797172 16.301844 55.597088 11.698749 62.40049 11.698749 C 70.897992 11.698749 74.79915 16.497577 74.79915 27.202136 L 74.79915 53.99728 C 74.79915 63.196722 78.599065 67.19912 86.597112 67.19912 C 90.997725 67.19912 94.797641 65.801993 97.301671 64.101142 L 96.599733 54.597978 C 94.797641 56.001854 93.002299 56.798284 90.801993 56.798284 C 88.000989 56.798284 86.597112 55.198675 86.597112 50.899303 L 86.597112 24.900588 C 86.597112 8.897745 80.698131 0.400242 66.200405 0.400242 C 57.196697 0.400242 51.297716 4.699614 47.599041 12.002472 C 44.798037 4.40264 38.899056 0.400242 30.003338 0.400242 C 21.397844 0.400242 15.600104 3.599461 11.901429 9.599684 L 11.901429 1.500396 L 0.0967168 1.500396 L 0.0967168 65.801993 L 12.00267 65.801993 Z M 12.00267 65.903234 " transform="matrix(0.578755,0,0,0.578755,34.725275,49.194139)"/>
</g>
</svg>
