<?xml version="1.0" encoding="UTF-8"?>
<svg xmlns="http://www.w3.org/2000/svg" xmlns:xlink="http://www.w3.org/1999/xlink" width="157pt" height="64pt" viewBox="0 0 157 64" version="1.1">
<g id="surface1">
<path style=" stroke:none;fill-rule:nonzero;fill:rgb(100%,99.607843%,100%);fill-opacity:1;" d="M 13.296875 6.582031 L 143.671875 6.582031 C 147.394531 6.582031 150.410156 9.617188 150.410156 13.347656 L 150.410156 50.640625 C 150.410156 54.378906 147.394531 57.40625 143.671875 57.40625 L 13.296875 57.40625 C 9.574219 57.40625 6.558594 54.378906 6.558594 50.640625 L 6.558594 13.347656 C 6.558594 9.617188 9.574219 6.582031 13.296875 6.582031 "/>
<path style="fill:none;stroke-width:38.599995;stroke-linecap:butt;stroke-linejoin:miter;stroke:rgb(100%,99.607843%,100%);stroke-opacity:1;stroke-miterlimit:3.864;" d="M 12.076908 454.994126 L 747.823723 454.994126 C 768.831834 454.994126 785.849947 472.019455 785.849947 492.945053 L 785.849947 702.1353 C 785.849947 723.104721 768.831834 740.086228 747.823723 740.086228 L 12.076908 740.086228 C -8.931203 740.086228 -25.949317 723.104721 -25.949317 702.1353 L -25.949317 492.945053 C -25.949317 472.019455 -8.931203 454.994126 12.076908 454.994126 Z M 12.076908 454.994126 " transform="matrix(0.177201,0,0,0.178273,11.156836,-74.531128)"/>
<path style=" stroke:none;fill-rule:nonzero;fill:rgb(5.882353%,36.078431%,65.490196%);fill-opacity:1;" d="M 13.296875 6.582031 L 143.671875 6.582031 C 147.394531 6.582031 150.410156 9.617188 150.410156 13.347656 L 150.410156 50.640625 C 150.410156 54.378906 147.394531 57.40625 143.671875 57.40625 L 13.296875 57.40625 C 9.574219 57.40625 6.558594 54.378906 6.558594 50.640625 L 6.558594 13.347656 C 6.558594 9.617188 9.574219 6.582031 13.296875 6.582031 "/>
<path style=" stroke:none;fill-rule:evenodd;fill:rgb(100%,99.607843%,100%);fill-opacity:1;" d="M 35.039062 25.304688 C 35.039062 22.890625 33.472656 21.988281 31.121094 21.988281 L 26.8125 21.988281 L 26.8125 31.992188 L 29.515625 31.992188 L 29.515625 28.753906 L 30.925781 28.753906 C 33.316406 28.753906 35.039062 27.851562 35.039062 25.304688 Z M 32.257812 25.347656 C 32.257812 26.105469 31.90625 26.492188 31.003906 26.492188 L 29.515625 26.492188 L 29.515625 24.25 L 31.042969 24.25 C 31.945312 24.25 32.257812 24.691406 32.257812 25.347656 "/>
<path style=" stroke:none;fill-rule:evenodd;fill:rgb(100%,99.607843%,100%);fill-opacity:1;" d="M 44.910156 31.992188 L 41.269531 21.988281 L 38.449219 21.988281 L 34.804688 31.992188 L 37.820312 31.992188 L 38.332031 30.234375 L 41.347656 30.234375 L 41.894531 31.992188 Z M 40.679688 28.035156 L 39.035156 28.035156 L 39.191406 27.378906 C 39.542969 26.105469 39.742188 25.546875 39.859375 24.878906 C 39.976562 25.546875 40.132812 26.089844 40.484375 27.378906 L 40.679688 28.035156 "/>
<path style=" stroke:none;fill-rule:nonzero;fill:rgb(100%,99.607843%,100%);fill-opacity:1;" d="M 54.078125 21.988281 L 50.90625 21.988281 L 50.121094 23.507812 C 49.574219 24.546875 49.140625 25.503906 48.984375 26.089844 C 48.789062 25.503906 48.359375 24.546875 47.851562 23.507812 L 47.066406 21.988281 L 43.855469 21.988281 L 47.574219 28.308594 L 47.574219 31.992188 L 50.355469 31.992188 L 50.355469 28.265625 L 54.078125 21.988281 "/>
<path style=" stroke:none;fill-rule:evenodd;fill:rgb(100%,99.607843%,100%);fill-opacity:1;" d="M 63.871094 28.765625 C 63.871094 27.636719 63.324219 26.9375 62.421875 26.550781 C 63.089844 26.164062 63.636719 25.679688 63.636719 24.59375 C 63.636719 22.917969 62.617188 21.988281 60.113281 21.988281 L 55.292969 21.988281 L 55.292969 31.992188 L 60.113281 31.992188 C 62.617188 31.992188 63.871094 30.808594 63.871094 28.765625 Z M 60.894531 24.964844 C 60.894531 25.433594 60.660156 25.75 60.035156 25.75 L 57.957031 25.75 L 57.957031 24.175781 L 60.035156 24.175781 C 60.699219 24.175781 60.894531 24.519531 60.894531 24.964844 Z M 61.128906 28.824219 C 61.128906 29.390625 60.816406 29.808594 60.152344 29.808594 L 57.957031 29.808594 L 57.957031 27.867188 L 60.152344 27.867188 C 60.816406 27.867188 61.128906 28.238281 61.128906 28.824219 "/>
<path style=" stroke:none;fill-rule:evenodd;fill:rgb(100%,99.607843%,100%);fill-opacity:1;" d="M 74.644531 31.992188 L 71.003906 21.988281 L 68.179688 21.988281 L 64.539062 31.992188 L 67.554688 31.992188 L 68.0625 30.234375 L 71.082031 30.234375 L 71.628906 31.992188 Z M 70.414062 28.035156 L 68.769531 28.035156 L 68.925781 27.378906 C 69.316406 26.105469 69.472656 25.546875 69.59375 24.878906 C 69.710938 25.546875 69.867188 26.089844 70.21875 27.378906 L 70.414062 28.035156 "/>
<path style=" stroke:none;fill-rule:nonzero;fill:rgb(100%,99.607843%,100%);fill-opacity:1;" d="M 83.96875 29.566406 L 81.617188 28.320312 C 81.070312 29.265625 80.679688 29.738281 79.816406 29.738281 C 78.601562 29.738281 78.132812 28.519531 78.132812 26.996094 C 78.132812 25.40625 78.640625 24.25 79.777344 24.25 C 80.71875 24.25 81.070312 24.835938 81.421875 25.765625 L 83.929688 24.78125 C 83.226562 22.890625 82.285156 21.835938 79.816406 21.835938 C 77.113281 21.835938 75.234375 23.777344 75.234375 26.996094 C 75.234375 29.949219 76.800781 32.148438 79.777344 32.148438 C 82.167969 32.148438 83.304688 30.878906 83.96875 29.566406 "/>
<path style=" stroke:none;fill-rule:nonzero;fill:rgb(100%,99.607843%,100%);fill-opacity:1;" d="M 94.664062 31.992188 L 91.292969 25.519531 L 94.3125 21.988281 L 90.941406 21.988281 L 90.160156 23.007812 C 89.492188 23.820312 88.632812 24.976562 88.199219 25.636719 C 88.238281 24.90625 88.238281 24.007812 88.238281 23.164062 L 88.238281 21.988281 L 85.417969 21.988281 L 85.417969 31.992188 L 88.238281 31.992188 L 88.238281 28.976562 L 89.296875 27.734375 L 91.375 31.992188 L 94.664062 31.992188 "/>
<path style=" stroke:none;fill-rule:nonzero;fill:rgb(100%,99.607843%,100%);fill-opacity:1;" d="M 22.109375 21.507812 C 20.484375 21.507812 19.160156 22.832031 19.160156 24.464844 C 19.160156 26.09375 20.484375 27.417969 22.109375 27.417969 C 23.703125 27.417969 25.023438 26.09375 25.023438 24.464844 C 25.023438 22.832031 23.699219 21.507812 22.109375 21.507812 Z M 22.109375 22.164062 C 23.339844 22.164062 24.371094 23.191406 24.371094 24.464844 C 24.371094 25.734375 23.339844 26.761719 22.109375 26.761719 C 20.835938 26.761719 19.8125 25.734375 19.8125 24.464844 C 19.8125 23.191406 20.835938 22.164062 22.109375 22.164062 Z M 22.109375 22.164062 "/>
<path style=" stroke:none;fill-rule:nonzero;fill:rgb(100%,99.607843%,100%);fill-opacity:1;" d="M 107.160156 14.085938 C 104.125 14.085938 101.625 16.542969 101.625 19.570312 C 101.625 22.601562 104.125 25.054688 107.160156 25.054688 C 110.234375 25.054688 112.738281 22.601562 112.738281 19.570312 C 112.738281 16.542969 110.234375 14.085938 107.160156 14.085938 Z M 107.160156 14.746094 C 109.886719 14.746094 112.082031 16.90625 112.082031 19.570312 C 112.082031 22.238281 109.886719 24.398438 107.160156 24.398438 C 104.476562 24.398438 102.277344 22.238281 102.277344 19.570312 C 102.277344 16.90625 104.476562 14.746094 107.160156 14.746094 Z M 107.160156 14.746094 "/>
<path style=" stroke:none;fill-rule:nonzero;fill:rgb(100%,99.607843%,100%);fill-opacity:1;" d="M 119.699219 14.085938 C 116.664062 14.085938 114.160156 16.542969 114.160156 19.570312 C 114.160156 22.601562 116.664062 25.054688 119.699219 25.054688 C 122.769531 25.054688 125.273438 22.601562 125.273438 19.570312 C 125.273438 16.542969 122.769531 14.085938 119.699219 14.085938 Z M 119.699219 14.746094 C 122.425781 14.746094 124.621094 16.90625 124.621094 19.570312 C 124.621094 22.238281 122.425781 24.398438 119.699219 24.398438 C 117.011719 24.398438 114.8125 22.238281 114.8125 19.570312 C 114.8125 16.90625 117.011719 14.746094 119.699219 14.746094 Z M 119.699219 14.746094 "/>
<path style=" stroke:none;fill-rule:nonzero;fill:rgb(100%,99.607843%,100%);fill-opacity:1;" d="M 132.273438 14.203125 C 129.253906 14.203125 126.835938 16.613281 126.835938 19.589844 C 126.835938 22.5625 129.253906 24.972656 132.273438 24.972656 C 135.253906 24.972656 137.710938 22.5625 137.710938 19.589844 C 137.710938 16.613281 135.253906 14.203125 132.273438 14.203125 Z M 132.273438 14.203125 "/>
<path style=" stroke:none;fill-rule:nonzero;fill:rgb(100%,99.607843%,100%);fill-opacity:1;" d="M 132.273438 26.601562 C 129.253906 26.601562 126.835938 29.011719 126.835938 31.988281 C 126.835938 34.957031 129.253906 37.375 132.273438 37.375 C 135.253906 37.375 137.710938 34.960938 137.710938 31.988281 C 137.710938 29.011719 135.253906 26.601562 132.273438 26.601562 Z M 132.273438 26.601562 "/>
<path style=" stroke:none;fill-rule:nonzero;fill:rgb(100%,99.607843%,100%);fill-opacity:1;" d="M 132.273438 39.027344 C 129.253906 39.027344 126.835938 41.453125 126.835938 44.421875 C 126.835938 47.394531 129.253906 49.808594 132.273438 49.808594 C 135.253906 49.808594 137.710938 47.398438 137.710938 44.421875 C 137.710938 41.449219 135.253906 39.027344 132.273438 39.027344 Z M 132.273438 39.027344 "/>
<path style=" stroke:none;fill-rule:nonzero;fill:rgb(100%,99.607843%,100%);fill-opacity:1;" d="M 107.160156 26.5 C 104.125 26.5 101.625 28.957031 101.625 31.988281 C 101.625 35.015625 104.125 37.472656 107.160156 37.472656 C 110.234375 37.472656 112.738281 35.015625 112.738281 31.988281 C 112.738281 28.957031 110.234375 26.5 107.160156 26.5 Z M 107.160156 27.15625 C 109.886719 27.15625 112.082031 29.320312 112.082031 31.988281 C 112.082031 34.648438 109.886719 36.816406 107.160156 36.816406 C 104.476562 36.816406 102.277344 34.648438 102.277344 31.988281 C 102.277344 29.320312 104.476562 27.15625 107.160156 27.15625 Z M 107.160156 27.15625 "/>
<path style=" stroke:none;fill-rule:nonzero;fill:rgb(100%,99.607843%,100%);fill-opacity:1;" d="M 119.699219 26.601562 C 116.714844 26.601562 114.261719 29.011719 114.261719 31.988281 C 114.261719 34.960938 116.714844 37.375 119.699219 37.375 C 122.71875 37.375 125.175781 34.960938 125.175781 31.988281 C 125.175781 29.011719 122.71875 26.601562 119.699219 26.601562 Z M 119.699219 26.601562 "/>
<path style=" stroke:none;fill-rule:nonzero;fill:rgb(100%,99.607843%,100%);fill-opacity:1;" d="M 107.160156 38.917969 C 104.125 38.917969 101.625 41.375 101.625 44.40625 C 101.625 47.4375 104.125 49.886719 107.160156 49.886719 C 110.230469 49.886719 112.738281 47.4375 112.738281 44.40625 C 112.738281 41.375 110.234375 38.917969 107.160156 38.917969 Z M 107.160156 39.574219 C 109.886719 39.574219 112.082031 41.738281 112.082031 44.40625 C 112.082031 47.070312 109.886719 49.230469 107.160156 49.230469 C 104.476562 49.230469 102.277344 47.070312 102.277344 44.40625 C 102.277344 41.738281 104.476562 39.574219 107.160156 39.574219 Z M 107.160156 39.574219 "/>
<path style=" stroke:none;fill-rule:nonzero;fill:rgb(100%,99.607843%,100%);fill-opacity:1;" d="M 119.699219 38.917969 C 116.664062 38.917969 114.160156 41.375 114.160156 44.40625 C 114.160156 47.4375 116.664062 49.886719 119.699219 49.886719 C 122.769531 49.886719 125.273438 47.4375 125.273438 44.40625 C 125.273438 41.375 122.769531 38.917969 119.699219 38.917969 Z M 119.699219 39.574219 C 122.425781 39.574219 124.621094 41.738281 124.621094 44.40625 C 124.621094 47.070312 122.425781 49.230469 119.699219 49.230469 C 117.011719 49.230469 114.8125 47.070312 114.8125 44.40625 C 114.8125 41.738281 117.011719 39.574219 119.699219 39.574219 Z M 119.699219 39.574219 "/>
</g>
</svg>
