<svg xmlns="http://www.w3.org/2000/svg" width="16" height="16" viewBox="0 0 16 16">
    <path fill="#A5A5A5" fill-rule="nonzero" d="M13.352 2.648l.104.11a2.22 2.22 0 0 1-.121 3.041l-7.2 7.2a.414.414 0 0 1-.19.108l-3.428.88a.414.414 0 0 1-.504-.504l.88-3.429.007-.026a.412.412 0 0 1 .015-.038l-.022.064A.414.414 0 0 1 3 9.864l-.05.062A.414.414 0 0 1 3 9.864l7.21-7.21a2.22 2.22 0 0 1 3.141-.006zM3.514 10.96l-.525 2.05 2.051-.527-1.526-1.523zm5.733-6.173l-5.369 5.369 1.967 1.961 5.366-5.366-1.964-1.964zm1.04-1.039l-.455.454 1.964 1.964.454-.455-1.963-1.963zm.589-.584l1.956 1.959.018-.018a1.392 1.392 0 0 0-.071-1.861l-.096-.089a1.393 1.393 0 0 0-1.807.01z"/>
</svg>
