<svg xmlns="http://www.w3.org/2000/svg" width="24" height="24" viewBox="0 0 24 24">
    <path fill="#222" fill-rule="nonzero" d="M19.034 3.583l.578.577a4.741 4.741 0 0 1 .765 5.7l-.131.216a37.831 37.831 0 0 1-10.166 10.17l-.044.027c-1.854 1.18-4.305.912-5.876-.66l-.577-.576a1.992 1.992 0 0 1 0-2.816l2.43-2.429a1.992 1.992 0 0 1 2.665-.136l.128.115c.29.288.712.315 1.009.096l.086-.075 3.888-3.889a.759.759 0 0 0 .053-1.015l-.074-.08c-.716-.714-.755-1.882-.096-2.665l.117-.128 2.43-2.432a1.992 1.992 0 0 1 2.815 0zm-1.944.872l-2.43 2.434a.757.757 0 0 0 0 1.07l.117.127a1.998 1.998 0 0 1-.116 2.688l-3.89 3.892a1.99 1.99 0 0 1-2.688.114l-.207-.189c-.276-.223-.715-.202-.991.073l-2.43 2.429a.759.759 0 0 0 0 1.072l.576.577a3.507 3.507 0 0 0 4.188.583l.205-.122a36.568 36.568 0 0 0 9.44-9.293l.362-.526a3.505 3.505 0 0 0-.486-4.353l-.577-.576a.759.759 0 0 0-1.073 0z"/>
</svg>
