<svg xmlns="http://www.w3.org/2000/svg" width="24" height="24" viewBox="0 0 24 24">
    <g fill="none" fill-rule="evenodd">
        <path fill="#222" fill-rule="nonzero" d="M12 2C6.477 2 2 6.477 2 12s4.477 10 10 10 10-4.477 10-10S17.523 2 12 2zm.92 13.028c-.74 0-1.435-.408-1.674-.872 0 0-.397 1.611-.481 1.922-.142.526-.416 1.05-.67 1.466-.361.472-.779.121-.829-.31-.016-.48.001-1.048.12-1.565l.881-3.81s-.219-.446-.219-1.106c0-1.037.588-1.81 1.321-1.81.623 0 .924.478.924 1.05 0 .639-.4 1.595-.605 2.48-.172.742.365 1.347 1.081 1.347 1.297 0 2.172-1.702 2.172-3.717 0-1.533-1.011-2.68-2.85-2.68-2.077 0-3.372 1.582-3.372 3.349 0 .609.176 1.039.452 1.37.126.153.144.215.098.39l-.139.562c-.045.177-.186.24-.343.174-.957-.399-1.402-1.469-1.402-2.67 0-1.987 1.64-4.369 4.894-4.369 2.615 0 4.336 1.932 4.336 4.006 0 2.744-1.493 4.793-3.695 4.793z"/>
        <path d="M0 0h24v24H0z"/>
    </g>
</svg>
