<svg xmlns="http://www.w3.org/2000/svg" width="24" height="24" viewBox="0 0 24 24">
    <g fill="none" fill-rule="evenodd">
        <path fill="#222" fill-rule="nonzero" d="M12 4.5c.518 0 .938.42.938.938l-.001 5.624h5.626c.48 0 .877.362.93.829L19.5 12c0 .518-.42.938-.938.938l-5.625-.001v5.626c0 .48-.361.877-.828.93L12 19.5a.937.937 0 0 1-.938-.938v-5.625H5.438a.938.938 0 0 1-.932-.828L4.5 12c0-.518.42-.938.938-.938h5.624V5.438c0-.481.362-.878.829-.932z"/>
        <path d="M0 0h24v24H0z"/>
    </g>
</svg>
