<svg xmlns="http://www.w3.org/2000/svg" width="24" height="24" viewBox="0 0 24 24">
    <g fill="none" fill-rule="evenodd">
        <path fill="#222" fill-rule="nonzero" d="M19.47 19.604c-.17-.978-.45-1.825-.838-2.54a5.554 5.554 0 0 0-1.503-1.78c-.614-.472-1.346-.82-2.196-1.047-.862-.239-1.84-.358-2.933-.358-1.093 0-2.07.125-2.933.375-.85.239-1.582.597-2.196 1.074a5.652 5.652 0 0 0-1.503 1.79c-.388.715-.668 1.544-.838 2.486h14.94zm-16.36.645c.109-1.241.382-2.332.82-3.275a6.788 6.788 0 0 1 1.775-2.362c.747-.632 1.65-1.109 2.706-1.431 1.044-.322 2.24-.483 3.589-.483 1.348-.024 2.545.12 3.59.43 1.056.297 1.958.766 2.705 1.404a6.836 6.836 0 0 1 1.776 2.388c.437.955.71 2.064.82 3.329L21 21H3l.11-.751zm8.89-8.41c-.632 0-1.22-.113-1.767-.34a4.452 4.452 0 0 1-1.43-.94A4.362 4.362 0 0 1 7.5 7.42a4.347 4.347 0 0 1 1.303-3.14c.407-.4.883-.712 1.43-.939A4.567 4.567 0 0 1 12 3c.632 0 1.22.113 1.767.34.547.227 1.023.54 1.43.94A4.362 4.362 0 0 1 16.5 7.42a4.347 4.347 0 0 1-1.303 3.14c-.407.4-.883.712-1.43.939a4.567 4.567 0 0 1-1.767.34zm0-1.288c.874 0 1.624-.307 2.25-.922.626-.614.938-1.35.938-2.21 0-.858-.312-1.595-.938-2.21A3.097 3.097 0 0 0 12 4.29c-.874 0-1.624.306-2.25.92-.626.615-.938 1.352-.938 2.21 0 .86.312 1.596.938 2.21a3.097 3.097 0 0 0 2.25.922z"/>
        <path d="M0 0h24v24H0z"/>
    </g>
</svg>
