<svg xmlns="http://www.w3.org/2000/svg" width="24" height="24" viewBox="0 0 24 24">
    <g fill="none" fill-rule="evenodd">
        <path fill="#222" fill-rule="nonzero" d="M20.248 10.2l.064.08 2.553 3.806a.625.625 0 0 1-.975.776l-.064-.08-1.384-2.066a8.532 8.532 0 0 1-6.507 7.472 8.412 8.412 0 0 1-7.853-2.202.625.625 0 1 1 .878-.89 7.161 7.161 0 0 0 6.686 1.876 7.28 7.28 0 0 0 5.575-6.683l-1.889 2.259a.625.625 0 0 1-1.018-.719l.06-.083 2.868-3.436.048-.062.048-.049.006-.006.04-.039a.626.626 0 0 1 .864.046zM10.062 3.807a8.41 8.41 0 0 1 8.243 2.617.625.625 0 0 1-.937.827 7.16 7.16 0 0 0-7.02-2.227l-.029.007-.043.011a7.492 7.492 0 0 0-5.662 7.79l2.053-2.456a.625.625 0 0 1 1.019.718l-.06.083-2.937 3.518a.625.625 0 0 1-.935.028l-.064-.08-2.554-3.804a.625.625 0 0 1 .974-.777l.063.08L3.354 11.9a8.748 8.748 0 0 1 6.628-8.073l.03-.007z"/>
        <path d="M0 0h24v24H0z"/>
    </g>
</svg>
