<svg xmlns="http://www.w3.org/2000/svg" width="24" height="24" viewBox="0 0 24 24">
    <g fill="none" fill-rule="evenodd">
        <path fill="#222" fill-rule="nonzero" d="M10.748 3c.94 0 1.817.18 2.632.538.816.358 1.53.84 2.142 1.446a6.538 6.538 0 0 1 1.436 2.152c.359.816.538 1.688.538 2.615 0 .94-.18 1.818-.538 2.634a6.696 6.696 0 0 1-1.688 2.381l4.525 4.982a.673.673 0 0 1 .204.538.736.736 0 0 1-.241.519.784.784 0 0 1-.547.195.727.727 0 0 1-.529-.25l-4.64-5.108a7.01 7.01 0 0 1-.662.322 6.468 6.468 0 0 1-2.632.538c-.927 0-1.798-.18-2.614-.538a6.535 6.535 0 0 1-2.15-1.437 7.039 7.039 0 0 1-1.446-2.142A6.476 6.476 0 0 1 4 9.75c0-.927.18-1.799.538-2.615a6.862 6.862 0 0 1 1.446-2.152 6.859 6.859 0 0 1 2.15-1.446A6.423 6.423 0 0 1 10.748 3zm0 1.502c-.717 0-1.397.142-2.04.427a5.281 5.281 0 0 0-2.78 2.782 4.99 4.99 0 0 0-.426 2.04c0 .73.142 1.41.426 2.04a5.228 5.228 0 0 0 2.78 2.8 5.178 5.178 0 0 0 2.04.409 5.09 5.09 0 0 0 2.04-.408 5.225 5.225 0 0 0 1.677-1.122 5.228 5.228 0 0 0 1.121-1.679c.272-.63.408-1.31.408-2.04a5.184 5.184 0 0 0-1.53-3.7 5.225 5.225 0 0 0-1.677-1.122 4.9 4.9 0 0 0-2.039-.427z"/>
        <path d="M0 0h24v24H0z"/>
    </g>
</svg>
