<svg xmlns="http://www.w3.org/2000/svg" width="24" height="24" viewBox="0 0 24 24">
    <g fill="none" fill-rule="evenodd">
        <path fill="#222" fill-rule="nonzero" d="M21 20.5H3v-8.573c0-.181.057-.33.17-.445a.59.59 0 0 1 .44-.172c.179 0 .325.072.439.218.113.145.17.278.17.4v7.192h15.544v-7.193c0-.181.057-.33.17-.445a.59.59 0 0 1 .44-.172c.19 0 .343.057.457.172.113.115.17.264.17.445V20.5zM15.478 6.969a.64.64 0 0 1 .197.463.915.915 0 0 1-.197.536.36.36 0 0 1-.18.109.9.9 0 0 1-.178.018.462.462 0 0 1-.287-.082 1.844 1.844 0 0 1-.198-.172l-2.097-2.234v10.17c0 .182-.054.33-.162.446-.107.115-.256.172-.448.172a.59.59 0 0 1-.439-.172.606.606 0 0 1-.17-.445V5.607L9.114 7.84a.573.573 0 0 1-.422.181.573.573 0 0 1-.421-.181.563.563 0 0 1-.197-.427.62.62 0 0 1 .197-.445l3.299-3.342c.06 0 .12-.021.179-.063a.309.309 0 0 1 .18-.064c.13 0 .232.027.304.082.072.054.138.112.197.172l3.048 3.215z"/>
        <path d="M0 0h24v24H0z"/>
    </g>
</svg>
