<svg xmlns="http://www.w3.org/2000/svg" width="24" height="24" viewBox="0 0 24 24">
    <g fill="none" fill-rule="evenodd">
        <path d="M0 0h24v24H0z"/>
        <path fill="#222" fill-rule="nonzero" d="M15.926 15.006c.838 0 1.56.287 2.166.861.605.574.908 1.283.908 2.127 0 .856-.285 1.57-.856 2.145-.57.574-1.28.861-2.13.861-.84 0-1.544-.287-2.114-.861-.571-.575-.856-1.29-.856-2.145 0-.293.029-.568.087-.826.058-.258.157-.516.297-.773l-4.856-2.9a3.68 3.68 0 0 1-1.11 1.098 2.709 2.709 0 0 1-1.475.413c-.85 0-1.56-.287-2.131-.861C3.286 13.57 3 12.855 3 12s.285-1.57.856-2.145c.57-.574 1.28-.86 2.13-.86a2.77 2.77 0 0 1 1.974.809l5.084-3.007a1.342 1.342 0 0 1-.096-.404 7.84 7.84 0 0 1-.01-.387c0-.856.286-1.57.857-2.145.57-.574 1.28-.861 2.13-.861.84 0 1.544.287 2.114.861.57.575.856 1.29.856 2.145 0 .844-.285 1.553-.856 2.127-.57.574-1.275.861-2.113.861-.501 0-.967-.114-1.398-.343a3.25 3.25 0 0 1-1.1-.958l-4.856 2.9c.14.2.239.423.297.669.058.246.087.492.087.738 0 .105-.003.208-.008.308a.744.744 0 0 1-.079.29l5.153 3.093c.256-.199.55-.363.882-.492a2.8 2.8 0 0 1 1.022-.193z"/>
    </g>
</svg>
