<svg xmlns="http://www.w3.org/2000/svg" width="64" height="64" viewBox="0 0 64 64">
    <path fill="#222" d="M14.665 12.373l.247-.012c3.766-.13 35.148.238 35.715.465.32.127.599.265.958.504.537.358 1.048.829 1.51 1.434 1.247 1.633 1.952 3.991 1.903 7.204-.04 2.604-1.732 4.354-4.163 4.744l-.16.023.016.369c.12 3.946-.245 23.135-.56 24l-.01.022c-.447.649-3.002.76-3.539.068l-.06-.097c-.119-.225-.136-.3.064-4.243l.243-4.783.087-1.938c.163-4.001.148-6.374-.077-6.686-.604-.837-8.21-.874-10.075-.209-.227.081-.434 2.917-.506 7.283l-.033 4.188-.022 4.382c-.025 2.233-.093 2.014-.376 2.009l-.182.01c-1.805.074-21.551-.094-22.11-.264-.497-.15-.645-2.398-.73-7.872l-.038-3.23c-.027-3.496-.015-7.27.02-7.59.027-.266.614-.425 1.846-.512l.175-.011-.08-4.336-.124-.01-.194-.023-.198-.029c-3.956-.636-5.103-2.402-5.212-6.354-.053-1.98 4.21-8.613 5.602-8.515l.063.01zm5.936 9.633l-.27.73c-.24.636-.428 1.07-.693 1.564-.961 1.791-2.282 2.882-4.11 3.003l-.133.006.079 4.288.502-.016c.987-.027 2.217-.033 3.709-.024l2.803.029c4.485.065 8.182.237 8.798.449 1.728.595 1.863 12.583.492 13.344-.874.485-15.426.652-16.205.064l-.028-.026c-.355-.398-.51-3.168-.676-10.827l-.048-2.29-.121.007-.523.03-.29.024-.243.025-.1.014-.104.016-.012.846c-.011 1.248-.013 3.435 0 5.624l.023 2.591.024 1.603c.03 1.672.07 3.127.123 4.294l.036.72c.037.656.078 1.184.123 1.573l.03.223c.014.102.028.189.043.26l.016.072.28.017c2.754.125 18.708.258 21.225.215l.108-.003.014-.135.015-.213c.007-.118.013-.253.019-.406l.025-1c.008-.513.014-1.124.018-2.05l.025-4.805.017-1.48c.074-5.253.278-7.513.949-7.752 2.12-.756 9.999-.718 10.839.447.393.545.39 3.153.144 8.436l-.087 1.777-.286 5.756c-.057 1.311-.059 1.722-.026 1.784.155.296 2.251.222 2.447-.062.196-.284.573-20.897.464-23.794l-.009-.168-.098.002c-2.027-.002-3.964-.847-5.349-2.34l-.151-.17c-.173-.21-.366-.466-.563-.744l-.05-.074-.07.17-.11.253-.118.256c-.953 1.849-2.794 3.074-4.872 3.24-2.488.171-4.095-.926-5.149-2.93-.188-.357-.454-1.012-.674-1.573l-.324-.829-.241.685c-.199.548-.465 1.252-.668 1.667l-.04.08c-.986 1.911-2.557 3.007-5.03 2.98-2.352-.025-3.926-1.163-4.959-3.085-.294-.546-.654-1.506-.882-2.147l-.078-.221zm.292 10.228c-1.823-.014-3.507-.006-4.825.025l-.58.016.091 4.085c.018.734.037 1.414.056 2.051l.05 1.527c.049 1.374.1 2.482.157 3.318l.026.366c.03.4.062.72.095.96l.014.096c.009.06.018.112.027.157l.022.1.019.007c1.196.37 14.408.214 15.377-.132l.032-.014c.893-.495.766-11.734-.385-12.13l-.075-.022c-.75-.173-4.498-.337-8.794-.395l-1.307-.015zM50.38 13.445c-.409-.163-28.597-.5-34.568-.445l-.823.014.028.207c.13 1.098.188 3.634.297 9.555l.07 3.865h.036c1.554-.084 2.678-.968 3.536-2.485l.094-.171c.25-.465.429-.877.66-1.492l.318-.859c.227-.602.278-.62.537-.657.14-.02.262.032.355.124.138.135.826 2.21 1.228 2.958.927 1.723 2.294 2.711 4.379 2.734 2.202.024 3.553-.919 4.43-2.62.335-.648.954-2.467.972-2.507.136-.29.289-.46.546-.473.227-.011.386.118.516.328.106.17.766 1.99 1.096 2.618.94 1.787 2.315 2.726 4.51 2.576 1.844-.148 3.48-1.238 4.323-2.87.15-.32.284-.635.399-.94l.046-.126-.081-.13c-.14-.229-.271-.46-.388-.682l-.111-.221c-.308-.634-.467-1.171-.437-1.607.041-.593.435-.963 1.111-1.01.75-.05 1.101.613 1.052 1.622-.026.541-.16 1.19-.395 1.9l-.015.042.028.044c.233.352.472.685.685.957l.124.155c1.305 1.496 3.212 2.329 5.189 2.27 2.45-.133 4.166-1.692 4.204-4.161.047-3.07-.614-5.281-1.766-6.79-.415-.544-.873-.965-1.35-1.283-.314-.21-.555-.328-.835-.44zm-36.07-.378c-.397.292-1.44 1.518-2.432 3.048l-.255.4c-1.163 1.859-1.976 3.627-1.956 4.346l.014.39c.16 3.379 1.174 4.767 4.636 5.324l.193.028.206.022-.118-6.368c-.033-1.543-.062-2.75-.093-3.782l-.051-1.48c-.022-.54-.044-.982-.067-1.328l-.03-.386-.024-.23-.023.016zm29.195 6.728c-.353.024-.474.138-.492.39-.02.292.11.732.372 1.27.066.136.14.277.219.42l.031.056.03-.11c.087-.34.144-.655.17-.937l.01-.165c.03-.625-.094-.904-.298-.924h-.042z"/>
</svg>
