<svg viewBox="0 0 867.9 300" xmlns="http://www.w3.org/2000/svg">
  <path d="M0 0h867.9v300H0z" fill="#fc0" fill-rule="evenodd"/>
  <path d="M618.5 225l9.4-43.8h-531L87.4 225z" fill="#fff" fill-rule="evenodd"/>
  <path d="M232.4 104.5h-19.7L193 195.8h19.8zM301.6 104.5h-55.2L227 195.8h55.8l3.6-16.6h-36l4.8-22.7h31.3l3.6-16.4h-31.3l4-19h35.4zM171.8 151.8c-2.3 10.8-8.8 23.9-23 26.7-3 .5-5.7.6-8 .6h-9.3l12.3-57.6h8.4c2.1 0 5 0 7.1.5 13 2.2 15.7 15.4 12.6 29.8m-7.7-46.7c-3.8-.5-8.8-.6-12-.6h-24.8l-19.5 91.3h32.9c3 0 6.6-.1 9.2-.5 25.7-3.2 38.2-21.8 42-40.9 5-26.5-4.2-45.8-27.8-49.3M629.7 104.5h-69.2l-3.7 17h24.8l-16 74.3h19.8l16-74.4H626zM463.4 150.3c-3.2 14.7-9.2 30-25.9 30-16 0-18.3-15-15-30 3.2-14.7 9.2-30 26-30 16 0 18.2 15 14.9 30m-13.5-46.8c-31.7 0-43.7 21.5-48.8 46.7-5.1 25.1 5.6 46.6 34.4 46.6 31.6 0 43.7-21.5 48.7-46.6 5.1-25.2-5.5-46.7-34.3-46.7M494.3 131.4c0 10.8 6.6 16 12.8 20.8l10.5 7.8c2 1.6 4 3 5.5 4.6 1.3 1.5 2.4 3 2.4 5.3 0 3.3-1.6 5.4-3.8 6.9-4.1 2.7-10.6 2.7-14.6 2.7-6.2 0-15.9-1.9-19.6-3.3l-5.9 16.7a90.6 90.6 0 0026.8 3.6c10 0 17-1.3 23-3.9 10.8-4.5 16.2-13 16.2-23 0-5.8-2-9.8-4.6-13.3a55.5 55.5 0 00-9.8-9l-9.5-7c-4.8-3.6-8.3-6.3-8.3-10.5 0-4 2.7-7.4 7.7-8 3-.4 5.9-.4 10.5-.4h15l3.7-16.9h-16.7c-4.8 0-11 0-16.4.6-13 1.5-25 10.7-25 26.3M377 136.7a16.5 16.5 0 01-13 13.8c-1.6.4-4.6.6-6.3.6h-8l6.4-29.8h8.6c2.4 0 4.3.3 5.7.8 5 1.6 8 6.3 6.6 14.6m-3-31.6c-2.3-.3-5.6-.6-9-.6h-24.9l-19.6 91.3h19.6l6-27.9h11.5c6 0 9.9-.6 13.7-1.7a36.2 36.2 0 0025.3-28.6c3-17-5.5-29.7-22.6-32.5" fill-rule="evenodd"/>
  <path d="M722.2 104.4L734 49.3h-74.1l-15.5 72.2h18.3l11.9-55.1h37.4l-11.8 55.1h55.6l-7.4 34.5H693l-11 51.6h-42l-3.6 17.4h60.3l11-51.8H763l14.8-68.8z" fill="red" fill-rule="evenodd"/>
</svg>
