<svg xmlns="http://www.w3.org/2000/svg" width="24" height="24" viewBox="0 0 24 24">
    <g fill="none" fill-rule="evenodd">
        <path fill="#222" fill-rule="nonzero" d="M7.061 14.394c1.36 0 2.47 1.083 2.47 2.428S8.42 19.25 7.06 19.25s-2.47-1.083-2.47-2.428 1.11-2.428 2.47-2.428zm11.674 0c1.36 0 2.47 1.083 2.47 2.428s-1.11 2.428-2.47 2.428-2.47-1.083-2.47-2.428 1.11-2.428 2.47-2.428zM7.06 15.743c-.624 0-1.122.487-1.122 1.08 0 .592.498 1.078 1.122 1.078.624 0 1.123-.486 1.123-1.079 0-.592-.499-1.079-1.123-1.079zm11.674 0c-.624 0-1.123.487-1.123 1.08 0 .592.499 1.078 1.123 1.078s1.122-.486 1.122-1.079c0-.592-.498-1.079-1.122-1.079zM21.429 4.75c.863 0 1.571.69 1.571 1.551v8.768a.674.674 0 0 1-1.34.1l-.007-.1v-1.08H10.43v1.08a.674.674 0 0 1-1.34.1l-.007-.1v-6.34H7.734v2.833a1.56 1.56 0 0 1-1.428 1.544l-.143.007-3.817-.001v.843h1.123c.339 0 .618.25.667.576l.007.1c0 .338-.25.618-.574.666l-.1.008-1.123-.001v.641c0 .09.068.17.165.195l.06.008h.898a.674.674 0 0 1 .1 1.341l-.1.008h-.898a1.564 1.564 0 0 1-1.565-1.41L1 15.945v-5.26c0-1.768 1.412-3.206 3.183-3.3l.184-.005h4.714V6.301c0-.86.708-1.551 1.572-1.551H21.43zm-6.735 11.398a.674.674 0 0 1 .1 1.341l-.1.008h-4.04a.674.674 0 0 1-.1-1.342l.1-.007h4.04zm6.735-10.05H10.653c-.127 0-.224.096-.224.203v6.34h11.224V6.3c0-.107-.097-.202-.224-.202zM6.387 8.73h-2.02c-1.068 0-1.938.801-2.015 1.81l-.005.146-.001 1.078 3.817.001a.222.222 0 0 0 .217-.15l.008-.052-.001-2.833z"/>
        <path d="M0 0h24v24H0z"/>
    </g>
</svg>
