<svg xmlns="http://www.w3.org/2000/svg" width="25" height="24" viewBox="0 0 25 24">
    <path fill="#222" fill-rule="nonzero" d="M20.175 4.817h-3.55v-1.15a1.899 1.899 0 0 0-.2-.795 1.457 1.457 0 0 0-.385-.475l-.124-.09a1.23 1.23 0 0 0-.46-.24l-.23-.048A.147.147 0 0 0 15.166 2h-4.316c-.333 0-.63.07-.892.21-.262.141-.47.346-.624.614-.115.192-.188.37-.22.537l-.04.23-.008.086v1.179h-3.55a.635.635 0 0 0-.479.201.707.707 0 0 0-.192.508v.038c0 .192.064.355.192.489a.635.635 0 0 0 .48.201h.614v12.209c0 .025.016.175.047.45.032.275.132.578.298.91.243.448.569.796.978 1.045.41.25.89.38 1.44.393h8.037c.026 0 .17-.026.432-.077.262-.05.54-.172.835-.364.422-.255.748-.597.978-1.025.23-.428.352-.917.365-1.466l.014-.896c.003-.38.005-.842.005-1.385l-.004-8.574a85.77 85.77 0 0 0-.015-1.239h.633c.179 0 .335-.067.47-.201a.688.688 0 0 0 .201-.508v-.038a.697.697 0 0 0-.201-.499.63.63 0 0 0-.47-.21zM18.14 18.33c0 .307-.054.562-.163.767a1.397 1.397 0 0 1-.49.517 1.72 1.72 0 0 1-.402.163l-.212.056a1.01 1.01 0 0 0-.037.011h-1.19l-.84.013c-.293.003-.6.005-.922.006l-3.858-.002c-.439-.003-.81-.009-1.114-.017a1.636 1.636 0 0 1-.72-.182 1.282 1.282 0 0 1-.488-.488 1.417 1.417 0 0 1-.144-.45l-.022-.148a.515.515 0 0 0-.026-.112V6.274H18.14l.013 2.051.006.613-.003 8.314c-.003.472-.008.831-.016 1.077zM10.448 3.744c.026-.153.09-.24.192-.259l.13-.021.046-.006 4.198-.001c.09.025.14.07.153.134a.594.594 0 0 0 .039.134v1.092h-4.758V3.744zM9.7 17.927h.038c.192 0 .355-.07.49-.211a.697.697 0 0 0 .2-.498V9.206a.697.697 0 0 0-.2-.498.651.651 0 0 0-.49-.21H9.7a.622.622 0 0 0-.48.21.716.716 0 0 0-.192.498v8.012c0 .191.064.357.192.498.128.14.288.21.48.21zm3.127 0h.038a.63.63 0 0 0 .47-.211.697.697 0 0 0 .202-.498V9.206a.697.697 0 0 0-.202-.498.63.63 0 0 0-.47-.21h-.038a.651.651 0 0 0-.49.21.697.697 0 0 0-.2.498v8.012c0 .191.066.357.2.498.135.14.298.21.49.21zm3.108 0a.63.63 0 0 1-.47-.211.697.697 0 0 1-.202-.498V9.206c0-.191.064-.357.192-.498a.622.622 0 0 1 .48-.21h.038c.192 0 .355.07.49.21.134.14.2.307.2.498v8.012a.697.697 0 0 1-.2.498.651.651 0 0 1-.49.21h-.038z"/>
</svg>
