<svg xmlns="http://www.w3.org/2000/svg" width="41" height="40" viewBox="0 0 41 40">
    <path fill="#FF9628" fill-rule="evenodd" d="M21 5c8.284 0 15 6.716 15 15 0 8.284-6.716 15-15 15-8.284 0-15-6.716-15-15 0-8.284 6.716-15 15-15zm0 2.069c-7.141 0-12.931 5.79-12.931 12.931 0 7.141 5.79 12.931 12.931 12.931 7.141 0 12.931-5.79 12.931-12.931 0-7.141-5.79-12.931-12.931-12.931zm0 17.483l.175.01c.746.086 1.325.72 1.325 1.49 0 .828-.672 1.5-1.5 1.5s-1.5-.672-1.5-1.5c0-.77.58-1.404 1.325-1.49l.175-.01zm0-13.966c.52 0 .95.383 1.023.882l.011.153v10.241c0 .571-.463 1.035-1.034 1.035-.52 0-.95-.383-1.023-.882l-.011-.153V11.621c0-.572.463-1.035 1.034-1.035z"/>
</svg>
