<svg xmlns="http://www.w3.org/2000/svg" width="24" height="24" viewBox="0 0 24 24">
    <g fill="none" fill-rule="evenodd">
        <path fill="#222" fill-rule="nonzero" d="M12 1.792c3.469 0 6.533 1.73 8.378 4.374.036.04.067.084.091.131a10.17 10.17 0 0 1 1.532 7.725.625.625 0 0 1-1.224-.254 8.916 8.916 0 0 0-1.207-6.56h-3.342c.242.71.428 1.441.555 2.187a.625.625 0 1 1-1.233.21 12.805 12.805 0 0 0-.65-2.397H9.095a11.773 11.773 0 0 0-.774 3.75h.762a.625.625 0 0 1 .093 1.244l-.093.006h-.749a13.91 13.91 0 0 0 .777 3.75h2.472a.625.625 0 0 1 .093 1.244l-.093.006H9.607a20.416 20.416 0 0 0 2.197 3.747l.196.003c.622 0 1.242-.065 1.85-.195a.625.625 0 1 1 .26 1.222 10.092 10.092 0 0 1-2.62.21h-.004C6.087 21.928 1.792 17.465 1.792 12 1.792 6.362 6.362 1.792 12 1.792zm-.04 8.77l8.946 4.474a1.042 1.042 0 0 1-.235 1.948l-3.009.678-.678 3.009a1.042 1.042 0 0 1-1.948.236l-4.474-8.947a1.041 1.041 0 0 1 1.398-1.398zm-3.71 6.647l-3.54-.001a8.963 8.963 0 0 0 5.442 3.56 20.426 20.426 0 0 1-1.901-3.56zm3.71-5.25l3.933 7.867.579-2.566c.087-.392.393-.698.786-.788l2.568-.579-7.867-3.934zm-4.878.25H3.044a8.915 8.915 0 0 0 .918 3.75h3.833a15.003 15.003 0 0 1-.713-3.75zm.682-5.001H4.43a8.903 8.903 0 0 0-1.328 3.75H7.07a12.98 12.98 0 0 1 .694-3.75zm6.398-3.904a14 14 0 0 1 1.572 2.654h2.88a8.953 8.953 0 0 0-4.452-2.654zM9.858 3.3l-.158.04a8.956 8.956 0 0 0-4.314 2.618h2.878c.421-.915.952-1.804 1.594-2.658zM12 3.042l-.158.001-.157.004-.166.185a13.93 13.93 0 0 0-1.863 2.726h4.692a12.819 12.819 0 0 0-2.025-2.911A11.12 11.12 0 0 0 12 3.042zm-.312 0l-.004.005.004-.004z"/>
        <path d="M0 0h24v24H0z"/>
    </g>
</svg>
