<svg xmlns="http://www.w3.org/2000/svg" width="24" height="24" viewBox="0 0 24 24">
    <g fill="none" fill-rule="evenodd">
        <path fill="#222" fill-rule="nonzero" d="M17.534 16.044H16.48l.005-.612c0-.272.223-.494.496-.494h.067c.274 0 .498.222.498.494l-.012.612zm-3.953-1.311c-.267 0-.486.18-.486.4v2.976c0 .22.22.399.486.399.269 0 .488-.18.488-.4v-2.976c0-.22-.22-.4-.488-.4zM20 13.068v5.662c0 1.359-1.178 2.47-2.618 2.47H6.618C5.178 21.2 4 20.089 4 18.73v-5.662c0-1.359 1.178-2.47 2.618-2.47h10.764c1.44 0 2.618 1.111 2.618 2.47zM7.336 19.345l-.001-5.965h1.334v-.883l-3.557-.006v.87l1.11.002v5.982h1.114zm4-5.076h-1.113v3.185c0 .46.028.691-.001.772-.09.247-.497.51-.656.027-.027-.084-.003-.34-.004-.777l-.004-3.207H8.452l.003 3.156c0 .484-.01.845.004 1.01.027.289.017.626.286.82.5.36 1.46-.055 1.7-.57l-.002.658h.893V14.27zm3.559 3.647l-.002-2.65c-.001-1.011-.757-1.616-1.783-.799l.004-1.97h-1.11l-.006 6.804.914-.013.083-.424c1.168 1.071 1.902.337 1.9-.948zm3.482-.351l-.834.004-.003.113v.466c0 .249-.205.452-.455.452h-.164a.456.456 0 0 1-.456-.452V16.924h1.91v-.72c0-.525-.013-1.05-.057-1.35-.137-.95-1.47-1.102-2.144-.615a1.256 1.256 0 0 0-.467.628c-.095.273-.142.647-.142 1.12v1.582c0 2.627 3.193 2.256 2.812-.004zm-4.28-8.582c.058.14.147.252.268.338.12.084.272.126.455.126.16 0 .303-.043.427-.133.123-.089.227-.222.312-.399l-.021.437h1.24V4.078h-.976v4.104a.407.407 0 0 1-.813 0V4.078h-1.02v3.557c0 .453.009.755.022.908.014.152.05.298.107.44zM10.34 6.004c0-.506.042-.901.126-1.186.084-.284.236-.513.456-.685.219-.173.5-.26.84-.26.287 0 .533.057.738.167.207.111.366.255.476.433.112.178.189.362.23.55.041.19.062.476.062.863v1.333c0 .49-.02.85-.058 1.078-.038.23-.119.442-.245.64a1.16 1.16 0 0 1-.477.44c-.196.094-.42.14-.673.14-.282 0-.52-.038-.717-.12a.984.984 0 0 1-.457-.365 1.623 1.623 0 0 1-.233-.592c-.047-.23-.069-.577-.069-1.04V6.005zm.97 2.095c0 .299.223.543.494.543.27 0 .492-.244.492-.543V5.292c0-.299-.221-.542-.492-.542-.27 0-.493.243-.493.542v2.807zM7.88 9.517h1.17l.001-4.045 1.382-3.465h-1.28l-.734 2.574L7.673 2H6.406l1.47 3.474.003 4.043z"/>
        <path d="M0 0h24v24H0z"/>
    </g>
</svg>
